<svg xmlns="http://www.w3.org/2000/svg" xmlns:xlink="http://www.w3.org/1999/xlink" width="128" height="128" viewBox="0 0 128 128">
    <defs>
        <path id="a" d="M20 0h88c11.046 0 20 8.954 20 20v88c0 11.046-8.954 20-20 20H20c-11.046 0-20-8.954-20-20V20C0 8.954 8.954 0 20 0z"/>
    </defs>
    <g fill="none" fill-rule="evenodd">
        <g>
            <mask id="b" fill="#fff">
                <use xlink:href="#a"/>
            </mask>
            <use fill="#000" xlink:href="#a"/>
            <g fill="#000" fill-rule="nonzero" mask="url(#b)">
                <path d="M0 0h128v128H0z"/>
            </g>
        </g>
        <path fill="#FFF" d="M83.767 25.067C78.05 30.298 72.11 30.28 72.11 30.28s-.014-4.833 3.788-9.984c-4.28-1.855-9.187-2.922-14.81-2.922-23.245 0-34.73 15.534-36.497 32.25a22.158 22.158 0 0 1 2.002-2.304C32.53 41.362 40.88 39.5 40.88 39.5s-1.855 8.378-7.793 14.34c-2.931 2.943-5.995 4.428-8.345 5.178 1.289 7.714 5.544 14.124 10.01 20.842 5.724 8.614 11.639 17.523 11.639 29.703V128h-7.348v-18.438c0-9.945-5.052-17.556-10.405-25.61C22.915 75.34 17 66.43 17 54.25 17 28.198 35.131 10 61.088 10c7.959 0 14.745 1.8 20.518 4.85C86.843 11.22 92.316 10 92.316 10s-1.009 4.56-3.922 9.346c19.183 15.556 24.13 46.457 24.13 60.716 0 4.068-3.296 7.376-7.348 7.376h-3.674v18.437c0 6.1-4.945 11.063-11.022 11.063h-7.348V128h-7.348v-18.438H90.48a3.682 3.682 0 0 0 3.674-3.687V80.062h11.022c0-.489-.729-38.36-21.409-54.995zm10.387 36.558c0 4.067-3.296 7.375-7.348 7.375-4.053 0-7.348-3.308-7.348-7.375s3.295-7.375 7.348-7.375c4.052 0 7.348 3.308 7.348 7.375zM66.599 24.75s-1.855 8.378-7.793 14.34c-5.937 5.96-12.414 5.941-12.414 5.941s-.018-6.5 5.919-12.46c5.937-5.959 14.288-7.821 14.288-7.821zm6.253 8.747c7.873-2.183 15.79.472 15.79.472s-5.61 6.25-13.483 8.433-14.071-1.058-14.071-1.058 3.89-5.664 11.764-7.847zm-9.927 15.222s-5.61 6.25-13.484 8.433c-7.873 2.183-14.071-1.058-14.071-1.058s3.89-5.664 11.764-7.847c7.873-2.183 15.79.472 15.79.472z"/>
    </g>
</svg>
