<svg height="128" viewBox="0 0 128 128" width="128" xmlns="http://www.w3.org/2000/svg" xmlns:xlink="http://www.w3.org/1999/xlink"><defs><path id="a" d="m20 0h88c11.046 0 20 8.954 20 20v88c0 11.046-8.954 20-20 20h-88c-11.046 0-20-8.954-20-20v-88c0-11.046 8.954-20 20-20z"/><mask id="b" fill="#fff"><use fill="#fff" fill-rule="evenodd" xlink:href="#a"/></mask></defs><g fill="none" fill-rule="evenodd"><use fill="#000" xlink:href="#a"/><g fill="#000" fill-rule="nonzero" mask="url(#b)"><path d="m0 0h128v128h-128z"/></g><path d="m83.767 25.067c-5.717 5.231-11.657 5.213-11.657 5.213s-.014-4.833 3.788-9.984c-4.28-1.855-9.187-2.922-14.81-2.922-23.245 0-34.73 15.534-36.497 32.25a22.158 22.158 0 0 1 2.002-2.304c5.937-5.958 14.287-7.82 14.287-7.82s-1.855 8.378-7.793 14.34c-2.931 2.943-5.995 4.428-8.345 5.178 1.289 7.714 5.544 14.124 10.01 20.842 5.724 8.614 11.639 17.523 11.639 29.703v18.437h-7.348v-18.438c0-9.945-5.052-17.556-10.405-25.61-5.723-8.612-11.638-17.522-11.638-29.702 0-26.052 18.131-44.25 44.088-44.25 7.959 0 14.745 1.8 20.518 4.85 5.237-3.63 10.71-4.85 10.71-4.85s-1.009 4.56-3.922 9.346c19.183 15.556 24.13 46.457 24.13 60.716 0 4.068-3.296 7.376-7.348 7.376h-3.674v18.437c0 6.1-4.945 11.063-11.022 11.063h-7.348v11.062h-7.348v-18.438h14.696a3.682 3.682 0 0 0 3.674-3.687v-25.813h11.022c0-.489-.729-38.36-21.409-54.995zm10.387 36.558c0 4.067-3.296 7.375-7.348 7.375-4.053 0-7.348-3.308-7.348-7.375s3.295-7.375 7.348-7.375c4.052 0 7.348 3.308 7.348 7.375zm-27.555-36.875s-1.855 8.378-7.793 14.34c-5.937 5.96-12.414 5.941-12.414 5.941s-.018-6.5 5.919-12.46c5.937-5.959 14.288-7.821 14.288-7.821zm6.253 8.747c7.873-2.183 15.79.472 15.79.472s-5.61 6.25-13.483 8.433-14.071-1.058-14.071-1.058 3.89-5.664 11.764-7.847zm-9.927 15.222s-5.61 6.25-13.484 8.433c-7.873 2.183-14.071-1.058-14.071-1.058s3.89-5.664 11.764-7.847c7.873-2.183 15.79.472 15.79.472z" fill="#fff"/></g></svg>