<svg height="20" viewBox="0 0 20 20" width="20" xmlns="http://www.w3.org/2000/svg"><path d="m.196 10.57c-.122-.155-.196-.354-.196-.569s.074-.414.197-.572l-.002.002c2.578-3.314 5.873-4.987 9.825-4.987 3.923 0 7.204 1.675 9.782 4.986.044.054.082.115.112.181l.002.005c.052.112.083.244.083.382 0 .216-.074.415-.198.573l.001-.002c-2.579 3.311-5.86 4.986-9.783 4.986-3.951 0-7.247-1.675-9.822-4.986zm17.882-.57c-2.187-2.545-4.856-3.801-8.059-3.801-3.23 0-5.914 1.257-8.1 3.801 2.187 2.545 4.87 3.801 8.101 3.801 3.202 0 5.872-1.256 8.059-3.801zm-8.079 3.056c-1.688 0-3.056-1.368-3.056-3.056s1.368-3.056 3.056-3.056 3.056 1.368 3.056 3.056-1.368 3.056-3.056 3.056zm0-1.667c.767 0 1.389-.622 1.389-1.389s-.622-1.389-1.389-1.389-1.389.622-1.389 1.389.622 1.389 1.389 1.389z"/></svg>