<svg xmlns="http://www.w3.org/2000/svg" xmlns:xlink="http://www.w3.org/1999/xlink" width="60" height="60" viewBox="0 0 60 60">
    <defs>
        <circle id="a" cx="30" cy="30" r="30"/>
        <path id="c" d="M10.196 2.132a1.53 1.53 0 0 1 1.515 1.323 4.114 4.114 0 0 1 2.981-1.277 4.13 4.13 0 0 1 4.125 4.126c0 .856-.262 1.653-.711 2.313-.123.229-.286.623-.123.885.215.344.79.089.871.05l.01-.004-.006.008a5.982 5.982 0 0 1 3.436-1.074 5.98 5.98 0 0 1 3.6 1.192c.48-.144.983-.219 1.498-.219 1.387 0 2.69.54 3.67 1.52.981.981 1.521 2.285 1.521 3.672a5.21 5.21 0 0 1-.22 1.506c1.737 3.894 2.285 8.16 2.285 10.622 0 1.068-.842 1.945-1.906 2.023l-.153.005h-1.03v5.07c0 1.617-1.288 2.944-2.907 3.036l-.181.005h-2.06v3.042h-2.058v-5.07h4.118c.53 0 .967-.395 1.023-.903l.006-.11v-7.098h3.089c0-.082-.077-4.034-1.475-8.133l-.098-.28-.003.004-.886-2.154a3.152 3.152 0 0 0-2.715-4.716c-.92.01-1.92.601-1.92.601l-.054-.057c-.042-.044-.094-.097-.097-.102a3.986 3.986 0 0 0-7.033 2.57l-.001.047-.001.05.001.088c.015.52.093 1.02.093 1.02-.305-.104-.72-.164-1.085-.18l-.213-.006h-.028c-.365.048-.675.073-.704.075-.096.02-.19.043-.282.07-.094.033-.918.34-1.442 1.431-.032-.036-.36-.416-.394-.45a3.615 3.615 0 1 0-3.541 5.987c.138.484.383 1.215.764 1.949.421.715.896 1.416 1.38 2.13 1.542 2.278 3.134 4.63 3.254 7.785l.008.383v5.07h-2.06v-5.07c0-2.735-1.415-4.828-2.915-7.042-.697-1.029-1.404-2.073-1.98-3.2l-.24-.488.039-.028a5.673 5.673 0 0 1-1.326-.988 5.618 5.618 0 0 1-1.657-3.998c0-1.51.589-2.93 1.657-3.999a5.618 5.618 0 0 1 3.998-1.656c.936 0 1.837.226 2.642.652.612-.421 1.294-.707 2.09-.718a5.96 5.96 0 0 1 .458-1.448c.02-.074.036-.144.048-.201.063-.316.092-.788-.047-1.02-.288-.48-.767-.46-1.158-.417l-.233.026a4.13 4.13 0 0 1-4.683-5.275 1.53 1.53 0 1 1-.554-2.955zm17.245 17.546l.154.006c1.064.077 1.905.954 1.905 2.022 0 1.118-.923 2.028-2.059 2.028-1.135 0-2.059-.91-2.059-2.028 0-1.119.924-2.028 2.06-2.028zM7.601 6.86a3.109 3.109 0 0 1 3.105 3.105 3.109 3.109 0 0 1-3.105 3.106 3.109 3.109 0 0 1-3.106-3.106A3.109 3.109 0 0 1 7.601 6.86zm0 2.04a1.066 1.066 0 1 0 0 2.131 1.066 1.066 0 0 0 0-2.132zm7.091-4.682a2.086 2.086 0 1 0 0 4.171 2.086 2.086 0 0 0 0-4.171zm8.39-.695a2.04 2.04 0 1 1 0 4.078 2.04 2.04 0 0 1 0-4.078zM19.42 0a1.205 1.205 0 1 1 0 2.41 1.205 1.205 0 0 1 0-2.41z"/>
    </defs>
    <g fill="none" fill-rule="evenodd">
        <mask id="b" fill="#fff">
            <use xlink:href="#a"/>
        </mask>
        <use fill="#505050" xlink:href="#a"/>
        <g mask="url(#b)">
            <g transform="translate(10 8)">
                <mask id="d" fill="#fff">
                    <use xlink:href="#c"/>
                </mask>
                <use fill="#000" xlink:href="#c"/>
                <g fill-rule="nonzero" mask="url(#d)">
                    <path fill="#FFF" d="M0 0h40v40H0z"/>
                </g>
            </g>
        </g>
    </g>
</svg>
