<svg xmlns="http://www.w3.org/2000/svg" xmlns:xlink="http://www.w3.org/1999/xlink" width="60" height="60" viewBox="0 0 60 60">
    <defs>
        <circle id="a" cx="30" cy="30" r="30"/>
        <path id="c" d="M13.235.511c2.204 0 4.087.483 5.693 1.304.01.006.582.309 1.093.64.393.255.746.53.854.617l.035.028c5.356 4.283 6.738 12.76 6.738 16.675 0 1.068-.842 1.945-1.906 2.023l-.153.005h-1.03v5.07c0 1.617-1.288 2.943-2.907 3.036l-.181.005h-2.06v3.042h-2.058v-5.07h4.118c.53 0 .967-.395 1.023-.903l.006-.11v-7.098h3.089c0-.134-.204-10.502-5.961-15.09-.007-.006-.553-.4-1.136-.746a16.137 16.137 0 0 0-1.153-.614c-1.187-.5-2.548-.786-4.104-.786-6.485 0-9.704 4.234-10.22 8.807-.002.01-.107.627-.097 1.26.01.689.136 1.399.136 1.402.365 2.113 1.554 3.87 2.801 5.712l.37.548C7.643 22.378 9 24.602 9.11 27.504l.008.383v5.07h-2.06v-5.07c0-2.735-1.415-4.828-2.915-7.042C2.538 18.477.881 16.027.881 12.678.88 5.515 5.96.511 13.235.511zm1.397 4.71c1.866 1.024 3.072 2.995 3.072 5.021 0 1.975-.843 3.177-1.55 3.837-1.139 1.062-2.586 1.368-3.48 1.306-1.692-.117-3.621-1.45-3.863-3.69-.172-1.586.956-3.026 2.105-3.576 1.016-.486 2.055-.343 2.781.382.47.47.715 1.045.709 1.664a2.726 2.726 0 0 1-.72 1.823l-.061.062-1.588-1.29c.049-.05.21-.239.29-.443.073-.187.073-.28-.046-.4-.093-.092-.236-.199-.556-.046-.505.242-.951 1.012-.887 1.606.138 1.275 1.286 1.825 1.976 1.873.508.035 1.334-.188 1.948-.762.599-.559.902-1.348.902-2.346 0-1.273-.809-2.572-2.013-3.232-1.329-.73-2.905-.593-4.437.384A4.233 4.233 0 0 0 7.5 9.524c-.329.875-.414 1.88-.248 2.906a6.932 6.932 0 0 0 1.602 3.397 6.836 6.836 0 0 0 3.238 2.059l.296.08-.495 1.98a8.892 8.892 0 0 1-4.576-2.778 8.874 8.874 0 0 1-2.078-4.41c-.477-2.934.626-5.648 2.877-7.084 2.158-1.375 4.532-1.54 6.515-.452zm5.81 7.457c1.135 0 2.058.91 2.058 2.028 0 1.118-.923 2.028-2.059 2.028-1.135 0-2.059-.91-2.059-2.028 0-1.119.924-2.028 2.06-2.028z"/>
    </defs>
    <g fill="none" fill-rule="evenodd">
        <mask id="b" fill="#fff">
            <use xlink:href="#a"/>
        </mask>
        <use fill="#505050" xlink:href="#a"/>
        <g mask="url(#b)">
            <g transform="translate(16 13)">
                <mask id="d" fill="#fff">
                    <use xlink:href="#c"/>
                </mask>
                <use fill="#000" xlink:href="#c"/>
                <g fill="#FFF" fill-rule="nonzero" mask="url(#d)">
                    <path d="M-7-7h40v40H-7z"/>
                </g>
            </g>
        </g>
    </g>
</svg>
