<svg version="1.1" xmlns="http://www.w3.org/2000/svg" width="92" height="20" viewBox="0 0 92 20">
    <path d="M13.010 0.954c0.312 0.312 0.312 0.819 0 1.131l-11.314 11.314c-0.312 0.312-0.819 0.312-1.131 0s-0.312-0.819 0-1.131l11.314-11.314c0.312-0.312 0.819-0.312 1.131 0z" />
    <path d="M18.61 6.554c0.312 0.312 0.312 0.819 0 1.131l-11.314 11.314c-0.312 0.312-0.819 0.312-1.131 0s-0.312-0.819 0-1.131l11.314-11.314c0.312-0.312 0.819-0.312 1.131 0z" />
    <path d="M34.758 16.122c-1.024 0-1.912-0.223-2.667-0.669s-1.336-1.086-1.741-1.922c-0.406-0.837-0.608-1.822-0.608-2.957s0.202-2.115 0.608-2.942c0.406-0.826 0.986-1.462 1.74-1.907s1.645-0.669 2.668-0.669c0.75 0 1.436 0.114 2.060 0.342 0.633 0.232 1.173 0.581 1.618 1.026l-0-0-0.471 0.958c-0.517-0.446-1.026-0.765-1.528-0.958-0.477-0.183-1.030-0.289-1.607-0.289-0.020 0-0.040 0-0.060 0l0.003-0c-1.186 0-2.105 0.385-2.758 1.155s-0.981 1.864-0.981 3.283c0 1.429 0.324 2.53 0.973 3.306s1.57 1.163 2.766 1.163c0.608 0 1.162-0.096 1.664-0.289s1.011-0.512 1.528-0.958l0.471 0.958c-0.456 0.456-0.995 0.798-1.618 1.026s-1.31 0.342-2.060 0.342zM49.036 16l-1.186-2.782h-5.654l-1.2 2.782h-1.293l4.758-10.822h1.094l4.758 10.822h-1.277zM42.637 12.185h4.773l-2.386-5.563-2.386 5.563zM52.432 16v-10.822h6.84v1.034h-5.609v3.77h5.304v1.049h-5.304v3.937h5.608v1.034h-6.84zM65.159 16.122c-1.692 0-3.040-0.456-4.043-1.368l0.471-0.958c0.537 0.456 1.084 0.78 1.642 0.973s1.206 0.289 1.946 0.289c0.872 0 1.542-0.17 2.014-0.509s0.707-0.818 0.707-1.437c0-0.365-0.114-0.661-0.342-0.89s-0.528-0.408-0.897-0.539c-0.387-0.138-0.884-0.28-1.391-0.393l-0.092-0.017c-0.831-0.182-1.515-0.38-2.052-0.593s-0.973-0.52-1.307-0.92c-0.334-0.4-0.502-0.924-0.502-1.573 0-0.618 0.162-1.162 0.486-1.634s0.782-0.838 1.376-1.102c0.592-0.264 1.284-0.395 2.074-0.395 0.75 0 1.449 0.117 2.098 0.35s1.196 0.573 1.642 1.018l-0.486 0.958c-0.506-0.436-1.021-0.755-1.542-0.958-0.493-0.193-1.064-0.304-1.661-0.304-0.018 0-0.035 0-0.052 0l0.003-0c-0.841 0-1.5 0.18-1.976 0.54s-0.714 0.854-0.714 1.482c0 0.547 0.208 0.958 0.623 1.231s1.054 0.512 1.915 0.714c0.932 0.223 1.664 0.428 2.197 0.616 0.525 0.18 0.971 0.473 1.328 0.85l0.001 0.001c0.354 0.38 0.532 0.884 0.532 1.512 0 0.608-0.162 1.142-0.486 1.604s-0.788 0.818-1.391 1.071c-0.602 0.254-1.31 0.38-2.12 0.38zM79.922 16l-1.186-2.782h-5.654l-1.2 2.782h-1.293l4.758-10.822h1.094l4.758 10.822h-1.277zM73.523 12.185h4.773l-2.386-5.563-2.386 5.563zM91.814 16h-1.322l-1.338-3.602c-0.162-0.446-0.388-0.745-0.677-0.897s-0.696-0.228-1.224-0.228h-2.705v4.727h-1.232v-10.822h4.302c1.165 0 2.059 0.258 2.682 0.775s0.935 1.262 0.935 2.234c0 0.71-0.185 1.304-0.555 1.786s-0.904 0.824-1.603 1.026c0.317 0.049 0.593 0.193 0.806 0.403l-0-0c0.222 0.218 0.41 0.53 0.562 0.935l1.368 3.663zM87.513 10.239c1.662 0 2.493-0.679 2.493-2.037 0-0.669-0.203-1.168-0.608-1.497s-1.034-0.494-1.885-0.494h-2.964v4.028h2.964z" />
</svg>
