<svg height="20" viewBox="0 0 20 20" width="20" xmlns="http://www.w3.org/2000/svg"><path d="m10.824 12.191c.229-.221.366-.357.414-.406l1.829-1.829c.151-.151.36-.245.59-.245.461 0 .834.373.834.834 0 .23-.093.438-.244.589l-3.604 3.601c-.148.152-.355.247-.584.247-.013 0-.026 0-.04-.001h.002c-.011.001-.024.001-.038.001-.229 0-.436-.094-.584-.246l-3.6-3.602c-.151-.151-.244-.359-.244-.589 0-.46.373-.833.833-.833.23 0 .438.093.589.244l2.179 2.179v-11.303c0-.46.373-.834.834-.834s.834.373.834.834v11.357zm-9.395.666v4.286c0 .789.64 1.429 1.429 1.429h14.286c.789 0 1.429-.64 1.429-1.429v-4.286h1.429v4.286c0 1.578-1.279 2.857-2.857 2.857h-14.286c-1.578 0-2.857-1.279-2.857-2.857v-4.286h1.429z"/></svg>