<svg height="20" viewBox="0 0 20 20" width="20" xmlns="http://www.w3.org/2000/svg"><path d="m3.333 3.333c-1.381 0-2.5 1.119-2.5 2.5v8.333c0 1.381 1.119 2.5 2.5 2.5h13.333c1.381 0 2.5-1.119 2.5-2.5v-8.333c0-1.381-1.119-2.5-2.5-2.5zm0-.833h13.333c1.841 0 3.333 1.492 3.333 3.333v8.333c0 1.841-1.492 3.333-3.333 3.333h-13.333c-1.841 0-3.333-1.492-3.333-3.333v-8.333c0-1.841 1.492-3.333 3.333-3.333zm.417 3.333h10.833c.23 0 .417.187.417.417s-.187.417-.417.417h-10.833c-.23 0-.417-.187-.417-.417s.187-.417.417-.417zm9.027 7.29c-.174-.297-.277-.655-.277-1.036 0-.001 0-.003 0-.004 0-.378.101-.733.277-1.04-.195-.132-.435-.21-.694-.21-.69 0-1.25.56-1.25 1.25s.56 1.25 1.25 1.25c.259 0 .499-.079.699-.213l-.004.003zm.556-2.706c.344-.26.779-.417 1.25-.417 1.151 0 2.083.933 2.083 2.083s-.933 2.083-2.083 2.083c-.471 0-.906-.157-1.255-.42l.005.004c-.344.26-.779.417-1.25.417-1.151 0-2.083-.933-2.083-2.083s.933-2.083 2.083-2.083c.471 0 .906.157 1.255.42zm1.25 2.916c.69 0 1.25-.56 1.25-1.25s-.56-1.25-1.25-1.25-1.25.56-1.25 1.25.56 1.25 1.25 1.25z"/></svg>