<svg version="1.1" xmlns="http://www.w3.org/2000/svg" width="20" height="20" viewBox="0 0 20 20">
    <path d="M7.143 4.286h-2.857v14.286h11.429v-14.286h-8.571zM5.714 2.857v-1.429c0-0.789 0.64-1.429 1.429-1.429v0h5.714c0.789 0 1.429 0.64 1.429 1.429v0 1.429h3.571c0.394 0 0.714 0.32 0.714 0.714s-0.32 0.714-0.714 0.714v0h-0.714v14.286c0 0.789-0.64 1.429-1.429 1.429v0h-11.429c-0.789 0-1.429-0.64-1.429-1.429v0-14.286h-0.714c-0.394 0-0.714-0.32-0.714-0.714s0.32-0.714 0.714-0.714v0h3.571zM7.143 2.857h5.714v-1.429h-5.714v1.429zM6.429 7.143c0.394 0 0.714 0.32 0.714 0.714v0 8.571c0 0.394-0.32 0.714-0.714 0.714s-0.714-0.32-0.714-0.714v0-8.571c0-0.394 0.32-0.714 0.714-0.714v0zM13.571 7.143c0.394 0 0.714 0.32 0.714 0.714v0 8.571c0 0.394-0.32 0.714-0.714 0.714s-0.714-0.32-0.714-0.714v0-8.571c0-0.394 0.32-0.714 0.714-0.714v0zM10 5.714c0.394 0 0.714 0.32 0.714 0.714v0 10c0 0.394-0.32 0.714-0.714 0.714s-0.714-0.32-0.714-0.714v0-10c0-0.394 0.32-0.714 0.714-0.714v0z" />
</svg>
