<svg height="20" viewBox="0 0 20 20" width="20" xmlns="http://www.w3.org/2000/svg"><path d="m7.143 4.286h-2.857v14.286h11.429v-14.286h-8.571zm-1.429-1.429v-1.429c0-.789.64-1.429 1.429-1.429h5.714c.789 0 1.429.64 1.429 1.429v1.429h3.571c.394 0 .714.32.714.714s-.32.714-.714.714h-.714v14.286c0 .789-.64 1.429-1.429 1.429h-11.429c-.789 0-1.429-.64-1.429-1.429v-14.286h-.714c-.394 0-.714-.32-.714-.714s.32-.714.714-.714h3.571zm1.429 0h5.714v-1.429h-5.714zm-.714 4.286c.394 0 .714.32.714.714v8.571c0 .394-.32.714-.714.714s-.714-.32-.714-.714v-8.571c0-.394.32-.714.714-.714zm7.142 0c.394 0 .714.32.714.714v8.571c0 .394-.32.714-.714.714s-.714-.32-.714-.714v-8.571c0-.394.32-.714.714-.714zm-3.571-1.429c.394 0 .714.32.714.714v10c0 .394-.32.714-.714.714s-.714-.32-.714-.714v-10c0-.394.32-.714.714-.714z"/></svg>