<svg height="20" viewBox="0 0 20 20" width="20" xmlns="http://www.w3.org/2000/svg"><path d="m1.667 18.089-.922.922c-.075.072-.177.117-.289.117-.23 0-.417-.187-.417-.417 0-.113.045-.215.117-.29l9.133-9.133c.033-.034.073-.062.116-.082l.002-.001c-.672-.938-1.075-2.109-1.075-3.374 0-3.222 2.612-5.833 5.833-5.833s5.833 2.612 5.833 5.833c0 3.222-2.612 5.833-5.833 5.833-1.673 0-3.181-.704-4.244-1.832l-.003-.003c-.013.018-.026.033-.04.048l-4.289 4.288 1.789 1.788c.075.075.122.18.122.295 0 .23-.187.417-.417.417-.115 0-.22-.047-.295-.122l-1.788-1.789-1.078 1.078 3.039 3.038c.075.075.122.18.122.295 0 .23-.187.417-.417.417-.115 0-.22-.047-.295-.122l-3.038-3.039-1.078 1.078 1.789 1.788c.075.075.122.18.122.295 0 .23-.187.417-.417.417-.115 0-.22-.047-.295-.122l-1.788-1.789zm12.5-7.256c2.761 0 5-2.239 5-5s-2.239-5-5-5-5 2.239-5 5 2.239 5 5 5z"/></svg>