<svg xmlns="http://www.w3.org/2000/svg" xmlns:xlink="http://www.w3.org/1999/xlink" width="21" height="25" viewBox="0 0 21 25">
    <defs>
        <path id="a" d="M9.516 0c1.653 0 3.065.362 4.27.978.007.004.436.232.82.48.353.23.663.481.666.483 4.017 3.213 5.053 9.57 5.053 12.507 0 .839-.692 1.521-1.544 1.521h-.772v3.802c0 1.258-1.04 2.281-2.316 2.281h-1.545v2.282h-1.544v-3.802h3.089c.426 0 .772-.341.772-.76v-5.324h2.316c0-.1-.152-7.876-4.47-11.318-.006-.004-.415-.3-.853-.56a12.103 12.103 0 0 0-.864-.46c-.89-.374-1.911-.59-3.078-.59-4.864 0-7.278 3.176-7.666 6.606 0 .007-.08.47-.072.945.008.517.102 1.05.102 1.052.274 1.584 1.165 2.902 2.1 4.283 1.204 1.777 2.447 3.614 2.447 6.126v3.802H4.883v-3.802c0-2.051-1.062-3.62-2.187-5.282C1.493 13.474.25 11.637.25 9.125.25 3.753 4.06 0 9.516 0zm5.993 8.19l1.096 1.095-1.345 1.344 1.345 1.344-1.096 1.096-1.344-1.344-1.344 1.344-1.096-1.096 1.344-1.344-1.344-1.344 1.096-1.096 1.344 1.345 1.344-1.345z"/>
    </defs>
    <use fill="#fff" fill-rule="evenodd" xlink:href="#a"/>
</svg>
