<svg height="20" viewBox="0 0 20 20" width="20" xmlns="http://www.w3.org/2000/svg"><path d="m5.714 7.143c.789 0 1.429-.64 1.429-1.429s-.64-1.429-1.429-1.429c-.789 0-1.429.64-1.429 1.429s.64 1.429 1.429 1.429zm0 1.428c-1.578 0-2.857-1.279-2.857-2.857s1.279-2.857 2.857-2.857c1.578 0 2.857 1.279 2.857 2.857s-1.279 2.857-2.857 2.857zm5.715 7.143h7.143v-5.714c0-.789-.64-1.429-1.429-1.429h-5.714c-.789 0-1.429.64-1.429 1.429v.383c.86.503 1.429 1.422 1.429 2.474zm-1.429-2.857c0-.789-.64-1.429-1.429-1.429h-5.714c-.789 0-1.429.64-1.429 1.429v5.714h8.571v-5.714zm1.429 4.286v2.857h-11.429v-7.143c0-1.578 1.279-2.857 2.857-2.857h5.714c0-1.578 1.279-2.857 2.857-2.857h5.714c1.578 0 2.857 1.279 2.857 2.857v7.143h-8.571zm2.857-12.857c.789 0 1.429-.64 1.429-1.429s-.64-1.429-1.429-1.429c-.789 0-1.429.64-1.429 1.429s.64 1.429 1.429 1.429zm0 1.428c-1.578 0-2.857-1.279-2.857-2.857s1.279-2.857 2.857-2.857c1.578 0 2.857 1.279 2.857 2.857s-1.279 2.857-2.857 2.857z"/></svg>