<svg height="20" viewBox="0 0 20 20" width="20" xmlns="http://www.w3.org/2000/svg"><path d="m17.116 11.452c0 1.829-.739 3.548-2.084 4.84-1.292 1.241-3.05 2.005-4.987 2.005-.016 0-.033 0-.049 0h.002c-1.9 0-3.689-.711-5.031-2.004-1.344-1.294-2.086-3.014-2.086-4.84 0-1.828.74-3.548 2.086-4.84 1.294-1.241 3.053-2.006 4.992-2.006h.044-.002c.007 0-1.533 1.949-1.533 1.949-.114.141-.183.322-.183.52 0 .277.136.523.345.673l.002.002c.148.11.334.177.535.177h.003c.266 0 .53-.116.704-.333l2.787-3.5c.114-.141.183-.322.183-.52 0-.277-.136-.523-.345-.673l-.002-.002-3.693-2.722c-.149-.11-.336-.176-.538-.176-.283 0-.536.129-.702.332l-.001.002c-.114.141-.184.323-.184.52 0 .277.136.523.346.674l.002.002 1.871 1.38c-1.112.046-2.155.286-3.114.685l.06-.022c-1.095.451-2.032 1.069-2.827 1.835l.003-.003c-.79.755-1.432 1.657-1.884 2.663l-.022.054c-.442.976-.7 2.116-.7 3.316v.014-.001c0 1.153.234 2.274.7 3.328.448 1.018 1.089 1.933 1.904 2.717.792.763 1.729 1.382 2.766 1.811l.059.022c1.017.426 2.2.673 3.44.673h.023-.001.021c1.24 0 2.422-.247 3.5-.696l-.06.022c1.094-.447 2.031-1.065 2.825-1.829l-.003.003c.789-.755 1.431-1.657 1.883-2.663l.022-.054c.466-1.056.7-2.176.7-3.329.002-.472-.397-.856-.886-.856-.49 0-.888.381-.888.853z"/></svg>