<svg height="20" viewBox="0 0 20 20" width="20" xmlns="http://www.w3.org/2000/svg"><path d="m7.032 20c-3.732-.004-6.756-3.028-6.76-6.76.005-3.734 3.033-6.758 6.767-6.758.86 0 1.682.16 2.439.453l-.046-.016 1.567-1.567c.089-.089.212-.145.348-.145h1.06v-1.06c0-.272.22-.492.493-.492h.482v-.483c0-.272.221-.493.493-.493h1.205v-1.206c0-.13.052-.256.144-.348l.982-.981c.089-.089.212-.144.348-.144h2.915c.272 0 .493.22.493.493v3.536c0 .131-.052.256-.144.349l-6.464 6.464c.276.71.436 1.532.436 2.391 0 3.734-3.025 6.762-6.758 6.767zm0-12.534c-3.187.004-5.77 2.587-5.774 5.774.003 3.188 2.586 5.772 5.774 5.775 3.189-.005 5.773-2.591 5.773-5.781 0-.836-.177-1.63-.497-2.348l.015.037c-.026-.058-.041-.126-.041-.198 0-.134.054-.256.14-.345l.004-.005 6.55-6.55v-.89l-5.394 5.393c-.08.08-.191.13-.313.13-.245 0-.443-.198-.443-.443 0-.122.05-.233.13-.313l6.021-6.02v-.698h-2.218l-.693.693v1.494c0 .272-.22.493-.493.493h-1.204v.482c0 .273-.221.493-.493.493h-.483v1.061c0 .272-.22.493-.492.493h-1.35l-1.658 1.658c-.089.087-.21.14-.344.14-.071 0-.139-.015-.201-.043l.003.001c-.678-.306-1.471-.484-2.305-.484-.005 0-.009 0-.014 0h.001zm.123 7.534c-1.019-.001-1.844-.826-1.845-1.845 0-1.018.827-1.845 1.845-1.845 1.017 0 1.845.827 1.845 1.845-.001 1.019-.826 1.844-1.845 1.845zm0-2.705c-.475 0-.86.385-.86.86s.385.86.86.86c.475 0 .86-.385.86-.86s-.385-.86-.86-.86z"/></svg>