<svg version="1.1" xmlns="http://www.w3.org/2000/svg" width="20" height="20" viewBox="0 0 20 20">
    <path d="M5.986 17.296c-0.472 0-0.855-0.383-0.855-0.855s0.383-0.855 0.855-0.855v0c0.472 0 0.855 0.383 0.855 0.855s-0.383 0.855-0.855 0.855v0zM3.47 10h1.189c0.315 0 0.57 0.255 0.57 0.57 0 0.158-0.064 0.3-0.167 0.404l-2.044 2.043c-0.103 0.103-0.246 0.167-0.403 0.167s-0.3-0.064-0.403-0.167l-2.044-2.043c-0.103-0.103-0.167-0.246-0.167-0.404 0-0.315 0.255-0.57 0.57-0.57 0 0 0.001 0 0.001 0h1.189c0-5.037 4.083-9.12 9.12-9.12s9.12 4.083 9.12 9.12c0 5.037-4.083 9.12-9.12 9.12v0-0.002c-0.445-0.034-0.793-0.402-0.793-0.853s0.348-0.819 0.79-0.853l0.003-0v-0.002c4.092 0 7.41-3.318 7.41-7.41s-3.318-7.41-7.41-7.41c-4.092 0-7.41 3.318-7.41 7.41v0zM11.697 9.203h4.283c0.472 0 0.855 0.383 0.855 0.855s-0.383 0.855-0.855 0.855v0h-5.13c-0.002 0-0.005 0-0.008 0-0.472 0-0.855-0.383-0.855-0.855 0-0 0-0.001 0-0.001v0-5.13c0-0.472 0.383-0.855 0.855-0.855s0.855 0.383 0.855 0.855v0 4.276z" />
</svg>
