<svg height="20" viewBox="0 0 20 20" width="20" xmlns="http://www.w3.org/2000/svg"><path d="m15 9.167h-10.833c-.92 0-1.667.746-1.667 1.667v6.667c0 .92.746 1.667 1.667 1.667h11.667c.92 0 1.667-.746 1.667-1.667v-6.667c0-.92-.746-1.667-1.667-1.667h-.833zm-10-.834v-3.75c0-2.531 2.052-4.583 4.583-4.583h.833c2.531 0 4.583 2.052 4.583 4.583v3.75h.833c1.381 0 2.5 1.119 2.5 2.5v6.667c0 1.381-1.119 2.5-2.5 2.5h-11.667c-1.381 0-2.5-1.119-2.5-2.5v-6.667c0-1.381 1.119-2.5 2.5-2.5h.833zm.833 0h8.333v-3.75c0-2.071-1.679-3.75-3.75-3.75h-.833c-2.071 0-3.75 1.679-3.75 3.75zm4.167 3.334c-.46 0-.833.373-.833.833v3.333c0 .46.373.833.833.833s.833-.373.833-.833v-3.333c0-.46-.373-.833-.833-.833zm0-.834c.92 0 1.667.746 1.667 1.667v3.333c0 .92-.746 1.667-1.667 1.667s-1.667-.746-1.667-1.667v-3.333c0-.92.746-1.667 1.667-1.667z"/></svg>