<svg version="1.1" xmlns="http://www.w3.org/2000/svg" width="20" height="20" viewBox="0 0 20 20">
    <path d="M7.032 20c-3.732-0.004-6.756-3.028-6.76-6.76v-0c0.005-3.734 3.033-6.758 6.767-6.758 0.86 0 1.682 0.16 2.439 0.453l-0.046-0.016 1.567-1.567c0.089-0.089 0.212-0.145 0.348-0.145h1.060v-1.060c0-0.272 0.22-0.492 0.493-0.492h0.482v-0.483c0-0.272 0.221-0.493 0.493-0.493h1.205v-1.206c0-0.13 0.052-0.256 0.144-0.348l0.982-0.981c0.089-0.089 0.212-0.144 0.348-0.144h2.915c0.272 0 0.493 0.22 0.493 0.493v3.536c0 0.131-0.052 0.256-0.144 0.349l-6.464 6.464c0.276 0.71 0.436 1.532 0.436 2.391 0 3.734-3.025 6.762-6.758 6.767h-0zM7.032 7.466c-3.187 0.004-5.77 2.587-5.774 5.774v0c0.003 3.188 2.586 5.772 5.774 5.775h0c3.189-0.005 5.773-2.591 5.773-5.781 0-0.836-0.177-1.63-0.497-2.348l0.015 0.037c-0.026-0.058-0.041-0.126-0.041-0.198 0-0.134 0.054-0.256 0.14-0.345l-0 0 0.004-0.005 6.55-6.55v-0.89l-5.394 5.393c-0.080 0.080-0.191 0.13-0.313 0.13-0.245 0-0.443-0.198-0.443-0.443 0-0.122 0.050-0.233 0.13-0.313l6.021-6.020v-0.698h-2.218l-0.693 0.693v1.494c0 0.272-0.22 0.493-0.493 0.493h-1.204v0.482c0 0.273-0.221 0.493-0.493 0.493h-0.483v1.061c0 0.272-0.22 0.493-0.492 0.493h-1.35l-1.658 1.658c-0.089 0.087-0.21 0.14-0.344 0.14-0.071 0-0.139-0.015-0.201-0.043l0.003 0.001c-0.678-0.306-1.471-0.484-2.305-0.484-0.005 0-0.009 0-0.014 0h0.001zM7.155 15c-1.019-0.001-1.844-0.826-1.845-1.845v-0c0-1.018 0.827-1.845 1.845-1.845 1.017 0 1.845 0.827 1.845 1.845-0.001 1.019-0.826 1.844-1.845 1.845h-0zM7.155 12.295c-0.475 0-0.86 0.385-0.86 0.86s0.385 0.86 0.86 0.86v0c0.475 0 0.86-0.385 0.86-0.86s-0.385-0.86-0.86-0.86v0z" />
</svg>
