<svg version="1.1" xmlns="http://www.w3.org/2000/svg" width="20" height="20" viewBox="0 0 20 20">
    <path d="M13.212 4.85l-1.476 1.478c-0.51-0.082-1.098-0.129-1.697-0.129-0.007 0-0.013 0-0.020 0h0.001c-3.23 0-5.913 1.257-8.099 3.801 1.026 1.193 2.16 2.103 3.409 2.733l-1.278 1.278c-1.422-0.822-2.709-1.97-3.854-3.441-0.122-0.155-0.196-0.354-0.196-0.569s0.074-0.414 0.197-0.571l-0.002 0.002c2.577-3.313 5.871-4.987 9.823-4.987 1.117 0 2.181 0.136 3.191 0.406zM15.984 6.006c1.406 0.822 2.68 1.963 3.818 3.424 0.044 0.054 0.082 0.115 0.112 0.181l0.002 0.005c0.052 0.112 0.082 0.244 0.082 0.382 0 0.216-0.074 0.415-0.198 0.573l0.002-0.002c-2.578 3.311-5.859 4.985-9.781 4.985-1.114 0-2.178-0.133-3.187-0.4l1.48-1.479c0.505 0.079 1.088 0.124 1.682 0.124 0.009 0 0.018-0 0.026-0h-0.001c3.202 0 5.871-1.256 8.058-3.801-1.018-1.183-2.139-2.089-3.37-2.718l1.276-1.276zM9.078 12.914l3.835-3.835c0.091 0.276 0.143 0.594 0.143 0.924 0 1.688-1.368 3.055-3.055 3.055-0.33 0-0.648-0.052-0.946-0.149l0.022 0.006zM7.1 10.963c-0.099-0.288-0.156-0.619-0.156-0.964 0-1.688 1.368-3.055 3.055-3.055 0.345 0 0.677 0.057 0.986 0.163l-0.022-0.006-1.77 1.769c-0.127 0.090-0.238 0.2-0.328 0.328l-1.767 1.767zM18.613 0.238c0.147-0.147 0.35-0.238 0.574-0.238 0.449 0 0.812 0.364 0.812 0.812 0 0.224-0.091 0.427-0.238 0.574l-18.375 18.375c-0.147 0.147-0.35 0.238-0.574 0.238-0.449 0-0.812-0.364-0.812-0.812 0-0.224 0.091-0.427 0.238-0.574l18.375-18.375z" />
</svg>
