<svg height="20" viewBox="0 0 20 20" width="20" xmlns="http://www.w3.org/2000/svg"><path d="m12.68 4.577v-2.677c0-.001 0-.003 0-.004 0-.231.096-.44.25-.588.149-.154.357-.25.588-.25h.005c.228 0 .428.085.592.249l5.636 5.636c.154.149.249.357.249.587v.006.007c0 .23-.096.438-.249.586l-5.634 5.636c-.149.154-.357.249-.587.249-.002 0-.005 0-.007 0-.002 0-.003 0-.005 0-.23 0-.439-.095-.587-.249-.154-.149-.25-.357-.25-.588 0-.002 0-.003 0-.005v-2.681h-2.328c-.715 0-1.357.022-1.921.065-.563.045-1.122.123-1.679.235-.55.112-1.029.264-1.431.457-.404.192-.78.44-1.13.745-.347.302-.629.657-.85 1.073-.224.429-.404.927-.514 1.45l-.007.038c-.121.561-.191 1.206-.191 1.866 0 .034 0 .068.001.102v-.005c0 .4.019.849.056 1.353 0 .036.009.117.026.24.02.134.029.237.029.311v.014c0 .134-.048.256-.127.351l.001-.001c-.085.098-.209.159-.347.159-.006 0-.011 0-.017 0h.001c-.167 0-.309-.087-.417-.24-.06-.078-.113-.166-.156-.26l-.004-.009c-.031-.052-.12-.248-.206-.446l-.059-.151c-.939-2.107-1.41-3.779-1.41-5.02 0-1.477.197-2.718.592-3.717 1.214-3.02 4.477-4.522 9.76-4.522h2.328zm-10.556 7.842c.305-.573.694-1.06 1.157-1.464l.006-.005c.417-.365.89-.68 1.402-.93l.038-.017c.504-.241 1.091-.436 1.704-.557l.048-.008c.612-.124 1.228-.21 1.846-.257.578-.045 1.252-.071 1.932-.071h.101-.005 3.707v2.756l4.334-4.333-4.334-4.334v2.758h-3.707c-4.718 0-7.501 1.228-8.476 3.65-.329.831-.496 1.905-.496 3.208 0 .347.049.748.149 1.204.146-.608.35-1.143.613-1.641l-.018.038z"/></svg>