<svg version="1.1" xmlns="http://www.w3.org/2000/svg" width="32" height="32" viewBox="0 0 32 32">
    <path d="M56.386 20.392c-1.158 1.339-2.735 2.008-4.73 2.008-1.893 0-3.459-0.598-4.697-1.792-1.239-1.197-1.858-2.738-1.858-4.626 0-1.91 0.628-3.451 1.883-4.624 1.256-1.171 2.83-1.758 4.723-1.758 0.883 0 1.74 0.157 2.572 0.472s1.494 0.752 1.987 1.313l-1.996 1.99c-0.268-0.366-0.626-0.651-1.041-0.826l-0.016-0.006c-0.407-0.179-0.882-0.282-1.381-0.282-0.007 0-0.015 0-0.022 0h0.001c-1.022 0-1.861 0.351-2.52 1.054s-0.99 1.594-0.99 2.668c0 1.098 0.322 1.994 0.963 2.686 0.642 0.691 1.474 1.038 2.496 1.038 1.135 0 1.995-0.412 2.58-1.235zM69.752 22.073h-3.268l-0.946-2.384h-4.713l-0.896 2.384h-3.199l5.109-12.148h2.856l5.058 12.148zM79.847 22.073h-8.497v-12.147h8.189v2.488h-5.349v2.282h5.057v2.351h-5.057v2.522h5.659v2.504zM90.77 11.109l-1.875 1.974c-0.24-0.309-0.564-0.56-0.972-0.755-0.406-0.194-0.805-0.292-1.195-0.292-0.459 0-0.858 0.094-1.196 0.283s-0.507 0.501-0.507 0.936c0 0.194 0.040 0.362 0.12 0.506s0.215 0.269 0.404 0.377c0.19 0.109 0.376 0.201 0.56 0.275s0.448 0.162 0.791 0.266c0.447 0.149 0.798 0.27 1.050 0.36 0.252 0.093 0.576 0.244 0.971 0.456s0.703 0.43 0.922 0.66c0.217 0.229 0.412 0.535 0.584 0.918 0.173 0.384 0.258 0.804 0.258 1.262 0 1.316-0.45 2.32-1.35 3.010-0.9 0.693-2.004 1.038-3.312 1.038-0.007 0-0.014 0-0.022 0-0.907 0-1.774-0.17-2.572-0.479l0.049 0.017c-0.814-0.309-1.486-0.738-2.014-1.287l1.927-1.956c0.298 0.378 0.691 0.686 1.178 0.926s0.973 0.361 1.454 0.361c0.493 0 0.898-0.106 1.213-0.317s0.473-0.547 0.473-1.004c0-0.184-0.043-0.346-0.128-0.49-0.082-0.137-0.176-0.255-0.284-0.36l-0.001-0c-0.104-0.096-0.287-0.203-0.551-0.318-0.151-0.070-0.373-0.16-0.598-0.243l-0.073-0.023c-0.183-0.062-0.481-0.162-0.894-0.299-0.447-0.149-0.832-0.304-1.153-0.464s-0.642-0.37-0.962-0.634c-0.319-0.264-0.571-0.597-0.734-0.978l-0.006-0.017c-0.172-0.4-0.258-0.864-0.258-1.39 0-0.64 0.138-1.215 0.413-1.724 0.263-0.495 0.637-0.9 1.089-1.193l0.012-0.008c0.458-0.291 0.96-0.512 1.505-0.661 0.499-0.142 1.072-0.224 1.664-0.224 0.78 0 1.526 0.142 2.215 0.401l-0.043-0.014c0.717 0.258 1.334 0.626 1.85 1.106zM104.738 22.073h-3.268l-0.946-2.384h-4.713l-0.894 2.384h-3.2l5.109-12.148h2.856l5.056 12.148zM116.298 22.073h-3.441l-2.633-4.821h-0.998v4.822h-2.89v-12.148h4.645c0.618 0 1.192 0.064 1.72 0.19 0.56 0.134 1.053 0.341 1.502 0.613l-0.023-0.013c0.459 0.278 0.826 0.669 1.068 1.134l0.007 0.016c0.258 0.491 0.387 1.070 0.387 1.733 0 0.801-0.223 1.487-0.67 2.059s-1.067 0.978-1.858 1.218l3.183 5.2zM64.729 17.338l-1.514-4.17-1.548 4.17zM99.715 17.338l-1.514-4.17-1.549 4.17zM112.736 13.649c0-0.904-0.652-1.355-1.96-1.355h-1.566v2.832h1.394c1.422 0 2.132-0.493 2.132-1.477zM21.154 4.086c-1.581 1.419-3.222 1.414-3.222 1.414s-0.003-1.31 1.048-2.708c-1.184-0.502-2.54-0.792-4.093-0.792-6.425 0-9.598 4.213-10.087 8.745 0.16-0.208 0.344-0.418 0.554-0.624 1.641-1.617 3.949-2.122 3.949-2.122s-0.513 2.272-2.154 3.889c-0.628 0.628-1.402 1.11-2.266 1.393l-0.040 0.011c0.356 2.092 1.532 3.83 2.766 5.652 1.582 2.336 3.216 4.752 3.216 8.055v5h-2.030v-5c0-2.697-1.396-4.761-2.875-6.945-1.583-2.336-3.217-4.752-3.217-8.055 0-7.065 5.011-12 12.184-12 2.2 0 4.076 0.488 5.672 1.315 1.446-0.984 2.96-1.315 2.96-1.315s-0.28 1.237-1.085 2.534c5.301 4.218 6.669 12.598 6.669 16.465 0 1.103-0.911 2-2.030 2h-1.016v5c0 1.654-1.366 3-3.046 3h-2.031v3h-2.030v-5h4.061c0.56 0 1.015-0.448 1.015-1v-7h3.046c0-0.133-0.202-10.403-5.917-14.914zM24.024 14c0 1.103-0.911 2-2.031 2s-2.030-0.897-2.030-2 0.91-2 2.030-2 2.031 0.897 2.031 2zM16.408 4s-0.512 2.272-2.153 3.889c-1.641 1.616-3.432 1.611-3.432 1.611s-0.004-1.763 1.637-3.379c1.64-1.616 3.949-2.121 3.949-2.121zM18.136 6.372c2.176-0.592 4.365 0.128 4.365 0.128s-1.55 1.695-3.726 2.287-3.889-0.287-3.889-0.287 1.075-1.536 3.251-2.128zM15.393 10.5s-1.55 1.695-3.726 2.287-3.888-0.287-3.888-0.287 1.074-1.536 3.25-2.128 4.364 0.128 4.364 0.128z"></path>
</svg>
