<svg version="1.1" xmlns="http://www.w3.org/2000/svg" width="20" height="20" viewBox="0 0 20 20">
    <path d="M15.521 17.304c0.296 0.281 0.48 0.678 0.48 1.117s-0.184 0.836-0.479 1.117l-0.001 0.001c-0.301 0.286-0.708 0.462-1.157 0.462s-0.856-0.176-1.158-0.463l0.001 0.001-8.727-8.421c-0.296-0.281-0.48-0.678-0.48-1.117s0.184-0.836 0.479-1.117l0.001-0.001 8.727-8.421c0.301-0.286 0.708-0.462 1.157-0.462s0.856 0.176 1.158 0.463l-0.001-0.001c0.295 0.281 0.479 0.677 0.479 1.116s-0.184 0.835-0.478 1.116l-0.001 0.001-7.571 7.305 7.571 7.305z" />
</svg>
