<svg version="1.1" xmlns="http://www.w3.org/2000/svg" width="20" height="20" viewBox="0 0 20 20">
    <path d="M17.303 15.52c0.281 0.296 0.678 0.48 1.117 0.48s0.836-0.184 1.116-0.479l0.001-0.001c0.286-0.301 0.462-0.708 0.462-1.157s-0.176-0.856-0.463-1.158l0.001 0.001-8.42-8.726c-0.281-0.296-0.678-0.48-1.117-0.48s-0.836 0.184-1.116 0.479l-0.001 0.001-8.42 8.726c-0.286 0.301-0.462 0.708-0.462 1.157s0.176 0.856 0.463 1.158l-0.001-0.001c0.281 0.295 0.677 0.479 1.116 0.479s0.835-0.184 1.115-0.478l0.001-0.001 7.304-7.57 7.304 7.57z" />
</svg>
