<svg version="1.1" xmlns="http://www.w3.org/2000/svg" width="20" height="20" viewBox="0 0 20 20">
    <path d="M19.966 7.64c0.022 0.063 0.034 0.137 0.034 0.213 0 0.195-0.083 0.371-0.215 0.494l-0 0-4.395 4.226 1.060 6.075c0.012 0.048 0.019 0.103 0.019 0.159 0 0.381-0.309 0.69-0.69 0.69-0.113 0-0.22-0.027-0.314-0.075l0.004 0.002-5.377-2.877-5.49 2.91c-0.094 0.052-0.205 0.082-0.324 0.082-0.151 0-0.29-0.049-0.403-0.132l0.002 0.001c-0.174-0.125-0.286-0.327-0.286-0.555 0-0.042 0.004-0.084 0.011-0.124l-0.001 0.004 1.073-6.002-4.46-4.326c-0.131-0.124-0.213-0.3-0.213-0.495 0-0.075 0.012-0.147 0.034-0.214l-0.001 0.005c0.082-0.246 0.293-0.428 0.55-0.468l0.004-0 6.046-0.837 2.732-5.58c0.114-0.231 0.347-0.387 0.617-0.387 0.268 0 0.5 0.153 0.613 0.377l0.002 0.004 2.662 5.49 6.155 0.874c0.259 0.040 0.471 0.22 0.553 0.467zM17.842 8.341l-5.062-0.72c-0.228-0.036-0.416-0.177-0.515-0.372l-0.002-0.004-2.276-4.577-2.246 4.586c-0.099 0.2-0.287 0.343-0.51 0.378l-0.004 0-5.057 0.751 3.664 3.557c0.161 0.157 0.234 0.381 0.199 0.606l-0.847 5.042 4.519-2.394c0.092-0.048 0.201-0.077 0.317-0.077 0.117 0 0.227 0.029 0.324 0.080l-0.004-0.002 4.532 2.366-0.877-5.032c-0.007-0.038-0.012-0.081-0.012-0.126 0-0.191 0.078-0.363 0.205-0.487l0-0 3.654-3.574z" />
</svg>
