<svg height="16" viewBox="0 0 16 16" width="16" xmlns="http://www.w3.org/2000/svg" xmlns:xlink="http://www.w3.org/1999/xlink"><defs><path id="a" d="m15.58 2.961-7.336-2.883a.665.665 0 0 0 -.488 0l-7.336 2.883a.669.669 0 0 0 -.42.619v8.708c0 .287.185.544.459.631l7.336 3.017c.01.003.098.032.205.032.114 0 .195-.029.205-.032l7.336-3.017a.664.664 0 0 0 .459-.63v-8.711a.679.679 0 0 0 -.42-.618zm-8.243 11.43-6.01-2.585v-7.313l6.01 2.314v7.583zm.663-8.765-5.379-2.11 5.379-2.108 5.379 2.11zm6.673 6.18-6.006 2.584v-7.583l6-2.31.003 7.31h.003z"/><path id="b" d="m6.452.26a.727.727 0 1 1 0 1.457h-.224a.727.727 0 1 1 0-1.457zm2.384 6.53a.839.839 0 1 1 -.839.839c0-.462.374-.839.839-.839zm2.367-1.174a.839.839 0 1 1 -.839.839c0-.462.374-.839.84-.839zm-8.387.878a.839.839 0 1 1 0-1.678.839.839 0 0 1 0 1.678zm-.533 1.086a.839.839 0 1 1 -1.678 0 .839.839 0 0 1 1.678 0zm1.36-.144a.839.839 0 1 1 0 1.678.839.839 0 0 1 0-1.678z"/><mask id="c" fill="#fff"><use fill="#fff" fill-rule="evenodd" xlink:href="#a"/></mask><mask id="d" fill="#fff"><use fill="#fff" fill-rule="evenodd" xlink:href="#b"/></mask></defs><g fill="none" fill-rule="nonzero"><use fill="#000" xlink:href="#a"/><g fill="#505050" mask="url(#c)"><path d="m0 0h16v16h-16z"/></g><g transform="translate(1.6 2.4)"><use fill="#000" xlink:href="#b"/><g fill="#505050" mask="url(#d)"><path d="m-1.6-2.4h16v16h-16z"/></g></g></g></svg>