<svg height="40" viewBox="0 0 142 40" width="142" xmlns="http://www.w3.org/2000/svg"><path d="m67.107 25.49c-1.448 1.674-3.419 2.51-5.913 2.51-2.366 0-4.324-.747-5.871-2.24-1.549-1.496-2.323-3.423-2.323-5.783 0-2.388.785-4.314 2.354-5.78 1.57-1.464 3.538-2.197 5.904-2.197 1.104 0 2.175.196 3.215.59 1.04.393 1.867.94 2.484 1.641l-2.495 2.487a3.095 3.095 0 0 0 -1.322-1.04 4.398 4.398 0 0 0 -1.753-.353c-1.277 0-2.326.439-3.15 1.318-.825.88-1.238 1.992-1.238 3.335 0 1.372.402 2.492 1.204 3.358.803.864 1.843 1.297 3.12 1.297 1.419 0 2.494-.515 3.225-1.544zm16.708 2.102h-4.085l-1.182-2.98h-5.892l-1.12 2.98h-3.999l6.386-15.185h3.57l6.323 15.185zm12.62 0h-10.622v-15.184h10.237v3.11h-6.687v2.853h6.322v2.939h-6.322v3.153h7.074v3.13zm13.654-13.706-2.344 2.468c-.3-.386-.705-.7-1.215-.944-.508-.242-1.006-.365-1.494-.365-.574 0-1.072.118-1.495.354-.422.236-.634.626-.634 1.17 0 .242.05.453.15.632.1.18.269.336.505.471.238.136.47.251.7.344.23.092.56.203.989.332.559.186.997.337 1.312.45.315.116.72.305 1.214.57.495.264.879.538 1.152.825.271.286.515.669.73 1.147.216.48.323 1.005.323 1.577 0 1.645-.563 2.9-1.688 3.763-1.125.866-2.505 1.298-4.14 1.298a8.897 8.897 0 0 1 -3.182-.578c-1.018-.386-1.857-.923-2.517-1.609l2.409-2.445c.372.472.864.857 1.473 1.157.61.301 1.216.451 1.817.451.616 0 1.122-.132 1.516-.396.394-.265.591-.684.591-1.255 0-.23-.054-.433-.16-.612a2.127 2.127 0 0 0 -.355-.45c-.13-.12-.359-.254-.689-.397a13.16 13.16 0 0 0 -.839-.333c-.229-.077-.601-.203-1.118-.374-.559-.186-1.04-.38-1.441-.58-.4-.2-.802-.463-1.203-.793a3.21 3.21 0 0 1 -.925-1.244c-.215-.5-.323-1.08-.323-1.738 0-.8.172-1.519.516-2.155a3.973 3.973 0 0 1 1.377-1.501c.573-.364 1.2-.64 1.881-.826a7.873 7.873 0 0 1 4.795.203c.896.323 1.667.783 2.312 1.383zm17.46 13.706h-4.085l-1.183-2.98h-5.892l-1.118 2.98h-4l6.387-15.185h3.57l6.32 15.185zm14.451 0h-4.301l-3.291-6.027h-1.247v6.028h-3.613v-15.186h5.807c.773 0 1.49.08 2.15.237a6.515 6.515 0 0 1 1.849.75 3.572 3.572 0 0 1 1.344 1.437c.323.614.484 1.338.484 2.166 0 1.001-.279 1.859-.838 2.574-.56.715-1.334 1.222-2.323 1.522l3.979 6.5zm-64.464-5.919-1.893-5.213-1.935 5.213zm43.734 0-1.892-5.213-1.936 5.213zm16.277-4.612c0-1.13-.815-1.694-2.45-1.694h-1.958v3.54h1.743c1.778 0 2.665-.616 2.665-1.846zm-114.481-11.954c-1.976 1.774-4.028 1.768-4.028 1.768s-.004-1.638 1.31-3.385c-1.48-.628-3.175-.99-5.117-.99-8.031 0-11.998 5.266-12.609 10.932.2-.26.43-.522.692-.78 2.051-2.021 4.936-2.652 4.936-2.652s-.641 2.84-2.692 4.861a7.15 7.15 0 0 1 -2.883 1.755c.445 2.615 1.915 4.788 3.458 7.065 1.977 2.92 4.02 5.94 4.02 10.069v6.25h-2.537v-6.25c0-3.371-1.745-5.951-3.594-8.681-1.979-2.92-4.022-5.94-4.022-10.069 0-8.831 6.264-15 15.23-15 2.75 0 5.095.61 7.09 1.644 1.807-1.23 3.7-1.644 3.7-1.644s-.35 1.546-1.356 3.168c6.626 5.273 8.336 15.748 8.336 20.582 0 1.379-1.139 2.5-2.538 2.5h-1.27v6.25c0 2.068-1.708 3.75-3.807 3.75h-2.539v3.75h-2.538v-6.25h5.077c.7 0 1.269-.56 1.269-1.25v-8.75h3.808c0-.166-.252-13.004-7.396-18.643zm3.588 12.393c0 1.379-1.139 2.5-2.539 2.5s-2.538-1.121-2.538-2.5 1.138-2.5 2.538-2.5 2.539 1.121 2.539 2.5zm-9.52-12.5s-.64 2.84-2.691 4.861c-2.051 2.02-4.29 2.014-4.29 2.014s-.005-2.204 2.046-4.224c2.05-2.02 4.936-2.651 4.936-2.651zm2.16 2.965c2.72-.74 5.456.16 5.456.16s-1.938 2.119-4.658 2.859-4.861-.359-4.861-.359 1.344-1.92 4.064-2.66zm-3.429 5.16s-1.938 2.119-4.658 2.859-4.86-.359-4.86-.359 1.343-1.92 4.063-2.66 5.455.16 5.455.16z" fill-rule="evenodd"/></svg>