<svg xmlns="http://www.w3.org/2000/svg" width="214" height="60" viewBox="0 0 214 60">
    <g fill="#FFF" fill-rule="evenodd">
        <path d="M100.66 32.236C98.49 34.746 95.534 36 91.79 36c-3.548 0-6.485-1.12-8.806-3.361-2.323-2.242-3.484-5.133-3.484-8.673 0-3.58 1.178-6.47 3.531-8.668C85.387 13.099 88.34 12 91.887 12c1.657 0 3.263.294 4.822.884 1.56.59 2.801 1.412 3.727 2.463l-3.742 3.73c-.496-.686-1.158-1.207-1.984-1.56a6.598 6.598 0 0 0-2.63-.53c-1.915 0-3.489.659-4.724 1.978-1.238 1.319-1.857 2.988-1.857 5.001 0 2.06.603 3.74 1.806 5.038 1.204 1.296 2.764 1.945 4.68 1.945 2.128 0 3.74-.773 4.837-2.316l3.839 3.603zm25.063 3.153h-6.13l-1.772-4.472h-8.84l-1.678 4.472h-5.999l9.579-22.779h5.355l9.485 22.779zm18.93 0H128.72V12.611h15.355v4.665h-10.031v4.28h9.483v4.407h-9.483v4.73h10.61v4.696zm20.48-20.56l-3.516 3.702c-.45-.579-1.058-1.05-1.822-1.416-.763-.363-1.51-.548-2.241-.548-.86 0-1.608.178-2.242.532-.634.354-.952.938-.952 1.754 0 .364.075.68.225.948.15.27.404.504.758.707.357.204.706.377 1.05.516.344.138.84.305 1.483.498.839.28 1.496.505 1.969.676.471.173 1.079.457 1.821.853.743.397 1.318.809 1.727 1.238.408.43.773 1.004 1.096 1.721.324.72.484 1.507.484 2.365 0 2.468-.845 4.35-2.532 5.645-1.688 1.299-3.757 1.948-6.21 1.948-1.656 0-3.248-.29-4.773-.868-1.528-.58-2.786-1.385-3.775-2.413l3.613-3.668c.558.708 1.296 1.286 2.21 1.736.913.451 1.823.677 2.725.677.924 0 1.682-.198 2.274-.595.591-.398.887-1.025.887-1.882 0-.344-.082-.65-.242-.918a3.19 3.19 0 0 0-.531-.676c-.194-.18-.538-.38-1.033-.595-.497-.213-.914-.38-1.258-.5-.344-.114-.903-.304-1.678-.56a16.706 16.706 0 0 1-2.162-.87c-.6-.3-1.203-.695-1.804-1.19a4.815 4.815 0 0 1-1.388-1.866c-.322-.75-.483-1.62-.483-2.606 0-1.201.257-2.28.773-3.233.515-.954 1.203-1.705 2.066-2.252.86-.546 1.8-.96 2.822-1.239a11.984 11.984 0 0 1 3.176-.419c1.336 0 2.673.242 4.016.724 1.344.485 2.5 1.175 3.468 2.075zm26.19 20.56h-6.126l-1.775-4.472h-8.839l-1.677 4.472h-6l9.58-22.779h5.356l9.481 22.779zm21.677 0h-6.452l-4.936-9.04h-1.87v9.04h-5.42V12.611h8.71c1.16 0 2.236.118 3.227.355.987.235 1.911.61 2.772 1.124a5.358 5.358 0 0 1 2.016 2.157c.485.921.726 2.006.726 3.25 0 1.5-.418 2.787-1.258 3.86-.838 1.072-2 1.833-3.483 2.283L213 35.39zm-96.697-8.88l-2.838-7.818-2.903 7.819h5.741zm65.602 0l-2.838-7.818-2.904 7.819h5.742zm24.416-6.917c0-1.694-1.224-2.541-3.677-2.541h-2.936v5.308h2.615c2.667 0 3.998-.922 3.998-2.767z"/>
        <path fill-rule="nonzero" d="M84.959 48.008a1.835 1.835 0 0 0-.677-.526 2.003 2.003 0 0 0-1.407-.145 1.598 1.598 0 0 0-.48.205 1.131 1.131 0 0 0-.353.363c-.092.15-.137.329-.137.539 0 .193.04.358.12.496.08.137.189.254.329.35.14.097.31.182.509.254.2.073.419.146.659.218.271.089.553.19.844.303.291.112.559.262.803.447.243.186.443.42.598.702.156.282.234.633.234 1.052 0 .46-.084.861-.252 1.204a2.48 2.48 0 0 1-.67.853 2.85 2.85 0 0 1-.982.508c-.376.113-.771.169-1.186.169-.551 0-1.09-.103-1.617-.308A3.123 3.123 0 0 1 80 53.778l1.078-1.016c.208.29.485.52.833.69.347.169.688.254 1.024.254.175 0 .355-.023.539-.067a1.43 1.43 0 0 0 .497-.224c.147-.105.267-.236.36-.393.09-.157.137-.353.137-.587a.962.962 0 0 0-.156-.562 1.398 1.398 0 0 0-.42-.387 2.995 2.995 0 0 0-.622-.284l-.755-.254a7.43 7.43 0 0 1-.766-.29 2.54 2.54 0 0 1-.689-.448 2.162 2.162 0 0 1-.497-.684c-.128-.27-.192-.607-.192-1.01 0-.435.09-.81.27-1.125.18-.314.415-.574.707-.78a3.13 3.13 0 0 1 .994-.46c.371-.1.748-.151 1.132-.151.43 0 .868.077 1.311.23.443.153.829.383 1.156.69l-.982 1.088zm4.747-1.79h5.618v1.33h-4.108v2.178h3.892v1.282h-3.892v2.42h4.324v1.354h-5.834v-8.564zm15.624 2.008a1.935 1.935 0 0 0-.875-.672 2.893 2.893 0 0 0-2.252.03c-.359.162-.668.384-.928.666-.26.282-.459.613-.599.992-.14.379-.21.79-.21 1.234 0 .468.068.895.204 1.282.136.387.33.72.581.998.252.278.553.494.905.647.35.153.746.23 1.185.23a2.6 2.6 0 0 0 1.21-.272 2.37 2.37 0 0 0 .85-.72l1.21.859a3.883 3.883 0 0 1-1.377 1.107c-.543.262-1.178.393-1.905.393a4.88 4.88 0 0 1-1.826-.333 4.204 4.204 0 0 1-1.432-.931c-.399-.4-.71-.875-.934-1.428a4.842 4.842 0 0 1-.335-1.832c0-.686.117-1.305.353-1.857a4.136 4.136 0 0 1 .97-1.41 4.3 4.3 0 0 1 1.456-.894 5.143 5.143 0 0 1 2.67-.236c.296.052.58.133.851.242.272.108.527.244.767.405.24.161.443.355.61.58l-1.15.92zm11.167 3.411c0 .516-.088.982-.263 1.397a3.133 3.133 0 0 1-.719 1.059c-.303.29-.663.514-1.078.671a3.791 3.791 0 0 1-1.353.236c-.488 0-.939-.079-1.354-.236a3.221 3.221 0 0 1-1.084-.671 3.023 3.023 0 0 1-.719-1.059 3.626 3.626 0 0 1-.257-1.397v-5.42h1.509v5.36c0 .25.032.498.096.744s.17.465.317.659c.148.193.344.35.587.472.244.12.545.181.905.181.359 0 .66-.06.904-.181.243-.121.44-.279.587-.472.148-.194.253-.413.317-.66.064-.245.096-.493.096-.743v-5.36h1.51v5.42zm3.993-5.42h2.947c.399 0 .786.043 1.161.128.376.084.71.224 1 .417.292.194.526.448.701.762.176.315.264.698.264 1.15 0 .62-.174 1.126-.521 1.518-.348.39-.82.655-1.42.792l2.264 3.798h-1.82l-1.965-3.629H122v3.63h-1.509v-8.565zm2.743 3.69c.216 0 .431-.016.647-.048.215-.032.41-.093.58-.182.172-.088.314-.215.426-.38.112-.166.168-.378.168-.636 0-.234-.052-.425-.156-.574a1.163 1.163 0 0 0-.395-.357 1.642 1.642 0 0 0-.545-.182 3.788 3.788 0 0 0-.593-.048h-1.366v2.407h1.234zm6.987-3.69h5.618v1.331h-4.109v2.178h3.893v1.282h-3.893v2.42h4.325v1.354h-5.834v-8.564zm14.693 0h2.36l2.204 6.085h.036l2.18-6.084h2.372v8.564h-1.498V47.9h-.024l-2.575 6.883h-1.054l-2.54-6.883h-.023v6.883h-1.438v-8.564zm13.216 0h5.618v1.331h-4.109v2.178h3.893v1.282h-3.893v2.42h4.325v1.354h-5.834v-8.564zm13.827 1.791a1.835 1.835 0 0 0-.677-.526 2.003 2.003 0 0 0-1.407-.145 1.598 1.598 0 0 0-.48.205 1.131 1.131 0 0 0-.353.363c-.092.15-.137.329-.137.539 0 .193.04.358.12.496.08.137.189.254.329.35.14.097.31.182.509.254.2.073.419.146.659.218.271.089.553.19.844.303.291.112.559.262.803.447.243.186.443.42.598.702.156.282.234.633.234 1.052 0 .46-.084.861-.252 1.204a2.48 2.48 0 0 1-.67.853 2.85 2.85 0 0 1-.982.508c-.376.113-.771.169-1.186.169-.551 0-1.09-.103-1.617-.308a3.123 3.123 0 0 1-1.294-.914l1.078-1.016c.208.29.485.52.833.69.347.169.688.254 1.024.254.175 0 .355-.023.539-.067a1.43 1.43 0 0 0 .497-.224c.147-.105.267-.236.36-.393.09-.157.137-.353.137-.587a.962.962 0 0 0-.156-.562 1.398 1.398 0 0 0-.42-.387 2.995 2.995 0 0 0-.622-.284l-.755-.254a7.43 7.43 0 0 1-.766-.29 2.54 2.54 0 0 1-.689-.448 2.162 2.162 0 0 1-.497-.684c-.128-.27-.192-.607-.192-1.01 0-.435.09-.81.27-1.125.18-.314.415-.574.707-.78a3.13 3.13 0 0 1 .994-.46c.371-.1.748-.151 1.132-.151.43 0 .868.077 1.311.23.443.153.829.383 1.156.69l-.982 1.088zm9.071 0a1.835 1.835 0 0 0-.676-.526 2.003 2.003 0 0 0-1.408-.145 1.598 1.598 0 0 0-.479.205 1.131 1.131 0 0 0-.353.363c-.092.15-.138.329-.138.539 0 .193.04.358.12.496.08.137.19.254.33.35.139.097.309.182.508.254.2.073.42.146.659.218.271.089.553.19.844.303.292.112.56.262.803.447.244.186.443.42.599.702.156.282.233.633.233 1.052 0 .46-.083.861-.251 1.204a2.48 2.48 0 0 1-.67.853 2.85 2.85 0 0 1-.983.508c-.375.113-.77.169-1.186.169-.55 0-1.09-.103-1.617-.308a3.123 3.123 0 0 1-1.294-.914l1.078-1.016c.208.29.486.52.833.69.347.169.689.254 1.024.254.176 0 .355-.023.54-.067a1.43 1.43 0 0 0 .496-.224c.148-.105.268-.236.36-.393.091-.157.137-.353.137-.587a.962.962 0 0 0-.155-.562 1.398 1.398 0 0 0-.42-.387 2.995 2.995 0 0 0-.623-.284l-.754-.254a7.43 7.43 0 0 1-.767-.29 2.54 2.54 0 0 1-.689-.448 2.162 2.162 0 0 1-.497-.684c-.127-.27-.191-.607-.191-1.01 0-.435.09-.81.27-1.125.179-.314.414-.574.706-.78a3.13 3.13 0 0 1 .994-.46c.371-.1.749-.151 1.132-.151.431 0 .868.077 1.312.23.443.153.828.383 1.156.69l-.983 1.088zm7.407-1.79h1.305l3.654 8.564h-1.725l-.79-1.96H187.2l-.767 1.96h-1.688l3.689-8.564zm1.916 5.298l-1.305-3.484-1.33 3.484h2.635zm13.288 2.819c-.431.21-.904.373-1.42.49a8.084 8.084 0 0 1-1.778.175c-.687 0-1.314-.11-1.88-.333a4.294 4.294 0 0 1-1.462-.931 4.229 4.229 0 0 1-.952-1.428 4.767 4.767 0 0 1-.342-1.832c0-.686.118-1.305.354-1.857a4.136 4.136 0 0 1 .97-1.41 4.3 4.3 0 0 1 1.455-.894 5.143 5.143 0 0 1 1.82-.315c.68 0 1.3.099 1.864.296.563.198 1.016.458 1.359.78l-1.042 1.138c-.216-.242-.517-.448-.904-.617a3.12 3.12 0 0 0-1.264-.254c-.447 0-.853.08-1.216.242a2.728 2.728 0 0 0-.928.665 3.014 3.014 0 0 0-.593.992c-.14.379-.21.79-.21 1.234 0 .46.07.88.21 1.264.14.383.34.716.599.998.26.282.575.502.946.66.371.156.793.235 1.264.235.647 0 1.21-.1 1.689-.302v-2.178h-1.785v-1.258h3.246v4.44zm4.029-8.117h5.617v1.33h-4.108v2.178h3.893v1.282h-3.893v2.42h4.324v1.354h-5.833v-8.564z"/>
        <path d="M34.598 7.661c-2.962 2.66-6.04 2.652-6.04 2.652s-.007-2.458 1.963-5.077c-2.219-.944-4.761-1.486-7.675-1.486-12.045 0-17.996 7.898-18.912 16.398.299-.39.643-.783 1.037-1.171C8.048 15.947 12.375 15 12.375 15s-.961 4.26-4.038 7.292c-1.52 1.496-3.107 2.251-4.325 2.632.668 3.923 2.873 7.182 5.187 10.598 2.967 4.38 6.032 8.91 6.032 15.103V60h-3.808v-9.375c0-5.057-2.618-8.927-5.392-13.022C3.065 33.223 0 28.693 0 22.5 0 9.253 9.395 0 22.846 0c4.124 0 7.641.915 10.633 2.466C36.192.621 39.029 0 39.029 0s-.523 2.318-2.033 4.752c9.94 7.91 12.504 23.622 12.504 30.873 0 2.068-1.708 3.75-3.808 3.75h-1.904v9.375c0 3.101-2.562 5.625-5.711 5.625h-3.808V60h-3.807v-9.375h7.615c1.05 0 1.904-.84 1.904-1.875V35.625h5.711c0-.249-.377-19.506-11.094-27.964zm5.383 18.589c0 2.068-1.708 3.75-3.808 3.75-2.1 0-3.808-1.682-3.808-3.75s1.708-3.75 3.808-3.75c2.1 0 3.808 1.682 3.808 3.75zM25.7 7.5s-.96 4.26-4.037 7.292c-3.077 3.03-6.433 3.02-6.433 3.02s-.01-3.305 3.067-6.335c3.076-3.03 7.404-3.977 7.404-3.977zm3.241 4.447c4.08-1.11 8.183.24 8.183.24s-2.907 3.179-6.987 4.289c-4.08 1.11-7.292-.538-7.292-.538s2.016-2.88 6.096-3.99zm-5.144 7.74s-2.907 3.179-6.987 4.289c-4.08 1.11-7.292-.538-7.292-.538s2.016-2.88 6.096-3.99c4.08-1.11 8.183.24 8.183.24z"/>
    </g>
</svg>
