<svg xmlns="http://www.w3.org/2000/svg" xmlns:xlink="http://www.w3.org/1999/xlink" width="60" height="60" viewBox="0 0 60 60">
    <defs>
        <circle id="a" cx="30" cy="30" r="30"/>
        <path id="c" d="M24.143.35a2.421 2.421 0 0 1 2.42 2.421v5.737h3.94v2.039h-2.97c1.604 3.784 2.115 7.849 2.115 10.228 0 1.119-.924 2.028-2.06 2.028H26.56v5.07c0 1.677-1.386 3.041-3.088 3.041h-2.06v3.042h-2.058v-5.07h4.118c.568 0 1.03-.454 1.03-1.013v-7.098h3.088c0-.096-.106-5.498-2.314-10.228H5.367c-.166.588-.284 1.19-.353 1.799 0 .01-.106.627-.096 1.26.01.689.136 1.399.136 1.402.365 2.113 1.554 3.87 2.801 5.712 1.604 2.368 3.262 4.818 3.262 8.167v5.07h-2.06v-5.07c0-2.735-1.415-4.828-2.915-7.042-1.604-2.368-3.261-4.818-3.261-8.167 0-1.098.12-2.145.348-3.131H.005v-2.04h3.893V2.772A2.421 2.421 0 0 1 6.32.35zM22.44 13.678c1.136 0 2.06.91 2.06 2.028 0 1.118-.924 2.028-2.06 2.028-1.135 0-2.059-.91-2.059-2.028 0-1.119.924-2.028 2.06-2.028zm2.083-7.21H5.938v2.04h18.586v-2.04zm0-4.079H5.938v2.04h18.586v-2.04z"/>
    </defs>
    <g fill="none" fill-rule="evenodd">
        <mask id="b" fill="#fff">
            <use xlink:href="#a"/>
        </mask>
        <use fill="#505050" xlink:href="#a"/>
        <g mask="url(#b)">
            <g transform="translate(14 13)">
                <mask id="d" fill="#fff">
                    <use xlink:href="#c"/>
                </mask>
                <use fill="#000" xlink:href="#c"/>
                <g fill="#FFF" fill-rule="nonzero" mask="url(#d)">
                    <path d="M-5-6h40v40H-5z"/>
                </g>
            </g>
        </g>
    </g>
</svg>
