<svg xmlns="http://www.w3.org/2000/svg" xmlns:xlink="http://www.w3.org/1999/xlink" width="20" height="20"  viewBox="0 0 20 20">
    <path d="M16.508 4.1h-0.511v-1.144c0-0.002 0-0.004 0-0.006 0-1.625-1.313-2.942-2.936-2.95h-6.166c-1.623 0.008-2.937 1.325-2.937 2.95 0 0.002 0 0.004 0 0.006v-0 1.144h-0.466c-1.623 0.008-2.937 1.325-2.937 2.95 0 0.002 0 0.004 0 0.006v-0 4.767c0 0.002 0 0.004 0 0.006 0 1.625 1.313 2.942 2.936 2.95h0.462v3.747c0 0.812 0.659 1.476 1.467 1.476h9.107c0.807 0 1.467-0.663 1.467-1.476v-3.748h0.514c1.623-0.008 2.937-1.325 2.937-2.95 0-0.002 0-0.004 0-0.006v0-4.766c0-0.002 0-0.004 0-0.006 0-1.625-1.313-2.942-2.936-2.95h-0.001zM5.066 2.956c0-1.011 0.82-1.837 1.824-1.837h6.162c1.009 0.005 1.824 0.824 1.824 1.833 0 0.001 0 0.002 0 0.004v-0 1.144h-9.811v-1.144zM14.881 18.533c0 0.194-0.161 0.356-0.356 0.356h-9.104c-0.195-0.002-0.353-0.16-0.354-0.355v-6.181h9.816v6.18zM18.332 11.826c0 0.001 0 0.002 0 0.003 0 1.009-0.816 1.828-1.824 1.833h-0.512v-1.31h0.733c0 0 0 0 0 0 0.307 0 0.556-0.249 0.556-0.556 0-0.002 0-0.003-0-0.005v0c0-0.001 0-0.002 0-0.003 0-0.307-0.249-0.556-0.556-0.556 0 0 0 0-0 0h-13.592c0 0 0 0-0 0-0.307 0-0.556 0.249-0.556 0.556 0 0.001 0 0.002 0 0.004v-0c-0 0.001-0 0.003-0 0.004 0 0.307 0.249 0.556 0.556 0.556 0 0 0 0 0 0h0.82v1.31h-0.466c-1.009-0.005-1.824-0.824-1.824-1.833 0-0.001 0-0.002 0-0.004v0-4.767c0-1.011 0.82-1.836 1.824-1.836h13.016c1.009 0.005 1.824 0.824 1.824 1.833 0 0.001 0 0.002 0 0.002v-0 4.767z" />
    <path d="M6.444 15.089c-0.309 0-0.559-0.25-0.559-0.559s0.25-0.559 0.559-0.559v0h7.118c0.311 0 0.559 0.249 0.559 0.559 0 0.311-0.249 0.559-0.559 0.559h-7.119zM13.608 16.257c0.306 0.001 0.554 0.249 0.554 0.556 0 0.001 0 0.002-0 0.004v-0c0 0.311-0.249 0.559-0.559 0.559h-7.118c-0.001 0-0.001 0-0.002 0-0.307 0-0.557-0.249-0.557-0.557 0-0.001 0-0.002 0-0.002v0c0-0.311 0.248-0.559 0.559-0.559h7.122zM16.58 6.29c0.311 0 0.559 0.248 0.559 0.559s-0.248 0.559-0.559 0.559h-1.133c-0.001 0-0.002 0-0.003 0-0.307 0-0.557-0.249-0.557-0.557 0-0.001 0-0.002 0-0.002v0c0-0.311 0.249-0.559 0.559-0.559h1.134z" />
</svg>
