<svg version="1.1" xmlns="http://www.w3.org/2000/svg" width="20" height="20" viewBox="0 0 20 20">
    <path d="M10 9.116l8.933-8.933c0.113-0.113 0.269-0.183 0.442-0.183 0.345 0 0.625 0.28 0.625 0.625 0 0.173-0.070 0.329-0.183 0.442l-8.933 8.933 8.933 8.933c0.113 0.113 0.183 0.269 0.183 0.442 0 0.345-0.28 0.625-0.625 0.625-0.173 0-0.329-0.070-0.442-0.183v0l-8.933-8.933-8.933 8.933c-0.113 0.113-0.269 0.183-0.442 0.183-0.345 0-0.625-0.28-0.625-0.625 0-0.173 0.070-0.329 0.183-0.442v0l8.933-8.933-8.933-8.933c-0.113-0.113-0.183-0.269-0.183-0.442 0-0.345 0.28-0.625 0.625-0.625 0.173 0 0.329 0.070 0.442 0.183l8.933 8.933z" />
</svg>
