<svg height="18" viewBox="0 0 18 18" width="18" xmlns="http://www.w3.org/2000/svg" xmlns:xlink="http://www.w3.org/1999/xlink"><defs><path id="a" d="m6.05 11.33c.283 0 .472.215.472.538s-.189.539-.472.539h-3.778c-.283 0-.472-.216-.472-.539s.189-.538.472-.538zm-1.8-2.692c.283 0 .472.215.472.538s-.189.538-.472.538h-3.778c-.282 0-.472-.214-.472-.538 0-.323.189-.538.472-.538zm11.767-4.269c.141.216.094.593-.095.754l-5.005 4.362c-.378.377-.945.538-1.417.538a2.14 2.14 0 0 1 -1.417-.538l-5.052-4.362c-.237-.161-.237-.538-.095-.754.142-.269.472-.269.661-.107l5.006 4.361c.52.43 1.228.43 1.747 0l5.006-4.361c.188-.162.519-.108.66.107zm.566-2.369c.803 0 1.417.7 1.417 1.615v10.77c0 .915-.614 1.615-1.417 1.615h-15.11c-.285 0-.473-.215-.473-.538s.189-.539.472-.539h15.111c.284 0 .473-.215.473-.538v-10.77c0-.323-.19-.538-.473-.538h-15.11c-.285 0-.473-.217-.473-.539 0-.323.189-.538.472-.538zm-.614 10.93a.572.572 0 0 1 0 .755.48.48 0 0 1 -.33.161.48.48 0 0 1 -.33-.161l-2.834-3.231a.572.572 0 0 1 0-.754c.189-.215.472-.215.661 0z"/><mask id="b" fill="#fff"><use fill="#fff" fill-rule="evenodd" xlink:href="#a"/></mask></defs><g fill-rule="evenodd"><use xlink:href="#a"/><g fill-rule="nonzero" mask="url(#b)"><path d="m0 0h18v18h-18z"/></g></g></svg>