<svg version="1.1" xmlns="http://www.w3.org/2000/svg" width="20" height="20" viewBox="0 0 20 20">
    <path d="M19.249 10.519l-6.812-0.018c-0.208 1.179-1.24 2.086-2.438 2.072-1.209-0.015-2.206-0.905-2.387-2.065l-0.002-0.014-6.861 0.007v5.72c-0.014 1.108 0.847 2.014 1.913 2.028h14.601c1.072-0.001 1.973-0.892 1.985-1.976v-5.754zM0.793 9.726l7.186-0.005c0.212 0.003 0.383 0.176 0.383 0.388 0 0.002-0 0.005-0 0.007v-0c-0 0.007-0 0.015-0 0.023 0 0.68 0.409 1.264 0.994 1.52l0.011 0.004c0.617 0.265 1.334 0.081 1.814-0.389 0.306-0.296 0.497-0.709 0.5-1.167v-0.001c0.004-0.214 0.179-0.386 0.394-0.386 0 0 0 0 0.001 0h-0l7.121 0.020-1.555-6.599c-0.256-0.825-0.995-1.384-1.828-1.391h-11.411c-0.822-0.010-1.56 0.515-1.857 1.346l-0.004 0.015c-0.001 0.004-0.001 0.005-0.001 0.007l0-0.002-1.747 6.61zM18.365 2.945c0.006 0.021 0.008 0.042 0.015 0.111h-0.375l0.365-0.086 1.62 6.869 0.010 0.086v6.353c-0.016 1.499-1.251 2.721-2.735 2.722h-14.607c-1.49-0.019-2.677-1.27-2.659-2.783v-6.38l0.013-0.096 1.807-6.836 0.022-0.062c-0.004 0.008-0.008 0.018-0.011 0.028l-0.001 0.003 0.006-0.017c0.375-1.122 1.413-1.872 2.571-1.858h11.41c1.168 0.009 2.195 0.79 2.544 1.927l0.017 0.11c-0.012-0.077-0.016-0.107-0.018-0.118l0.008 0.025zM5.788 5.448c-0.207-0.001-0.374-0.168-0.375-0.375v-0c0-0.206 0.169-0.375 0.375-0.375h8.398c0.207 0 0.375 0.169 0.375 0.375s-0.169 0.375-0.375 0.375h-8.398zM3.862 7.448c-0.207-0.001-0.374-0.168-0.375-0.375v-0c0-0.207 0.169-0.375 0.375-0.375h12.25c0.207 0 0.375 0.169 0.375 0.375s-0.169 0.375-0.375 0.375h-12.25z" />
</svg>
