<svg height="24" viewBox="0 0 24 24" width="24" xmlns="http://www.w3.org/2000/svg" xmlns:xlink="http://www.w3.org/1999/xlink"><defs><path id="a" d="m12 24h-9.609c-1.32-.002-2.39-1.083-2.391-2.417v-19.166c.002-1.334 1.071-2.415 2.391-2.417h15.219c1.32.002 2.39 1.083 2.391 2.417v3.583h-.957v-3.583c0-.801-.642-1.45-1.434-1.45h-15.22c-.79 0-1.433.649-1.433 1.45v19.166c0 .801.642 1.45 1.434 1.45h9.609z"/><path id="b" d="m23.984 11.637v-.014a18.25 18.25 0 0 1 -.016-.527c-.013-.935-.734-1.71-1.64-1.761-1.89-.11-3.353-.745-4.602-2.002l-.01-.01a1.028 1.028 0 0 0 -1.43 0l-.011.01c-1.25 1.257-2.712 1.893-4.602 2.002-.907.052-1.628.826-1.641 1.761-.003.19-.008.363-.015.527v.031c-.037 1.99-.083 4.465.72 6.712a8.58 8.58 0 0 0 1.986 3.193c.998 1.005 2.306 1.804 3.887 2.373a1.173 1.173 0 0 0 .621.044c.055-.011.109-.026.16-.045 1.58-.57 2.885-1.368 3.883-2.374a8.592 8.592 0 0 0 1.986-3.193c.806-2.254.76-4.734.724-6.727zm-1.629 6.382c-.846 2.369-2.574 3.995-5.282 4.972a.21.21 0 0 1 -.146 0c-2.71-.975-4.44-2.6-5.285-4.97-.74-2.07-.698-4.343-.661-6.348v-.011c.008-.172.013-.353.016-.551a.788.788 0 0 1 .73-.782c1.07-.062 2.009-.275 2.872-.652a7.506 7.506 0 0 0 2.341-1.624.087.087 0 0 1 .12 0 7.509 7.509 0 0 0 2.34 1.624c.863.377 1.803.59 2.873.652a.788.788 0 0 1 .73.782c.003.2.008.38.015.551.037 2.007.078 4.282-.664 6.357z"/><path id="c" d="m1 .946h1.933v.966h-1.933zm2.9 0h4.833v.966h-4.833zm-2.967 4.9h1.934v.966h-1.934zm2.9 0h2.9v.966h-2.9zm-1.933 4.9h2.9v.966h-2.9zm3.867 0h.966v.966h-.966zm-4.767 4.9h1.933v.966h-1.933zm2.9 0h3.833v.966h-3.833zm12.277-4.442a.472.472 0 0 1 .683 0 .51.51 0 0 1 0 .704l-2.245 2.316a.473.473 0 0 1 -.682 0l-.857-.885a.51.51 0 0 1 0-.704.472.472 0 0 1 .682 0l.516.533z"/><mask id="d" fill="#fff"><use fill="#fff" fill-rule="evenodd" xlink:href="#a"/></mask><mask id="e" fill="#fff"><use fill="#fff" fill-rule="evenodd" xlink:href="#b"/></mask><mask id="f" fill="#fff"><use fill="#fff" fill-rule="evenodd" xlink:href="#c"/></mask></defs><g fill="#000" fill-rule="evenodd"><g fill-rule="nonzero"><use xlink:href="#a"/><g mask="url(#d)"><path d="m0 0h24v24h-24z"/></g><use xlink:href="#b"/><g mask="url(#e)"><path d="m0 0h24v24h-24z"/></g></g><g transform="translate(2 3)"><use xlink:href="#c"/><g fill-rule="nonzero" mask="url(#f)"><path d="m-2-3h24v24h-24z"/></g></g></g></svg>