<svg height="20" viewBox="0 0 20 20" width="20" xmlns="http://www.w3.org/2000/svg"><path d="m13.212 4.85-1.476 1.478c-.51-.082-1.098-.129-1.697-.129-.007 0-.013 0-.02 0h.001c-3.23 0-5.913 1.257-8.099 3.801 1.026 1.193 2.16 2.103 3.409 2.733l-1.278 1.278c-1.422-.822-2.709-1.97-3.854-3.441-.122-.155-.196-.354-.196-.569s.074-.414.197-.571l-.002.002c2.577-3.313 5.871-4.987 9.823-4.987 1.117 0 2.181.136 3.191.406zm2.772 1.156c1.406.822 2.68 1.963 3.818 3.424.044.054.082.115.112.181l.002.005c.052.112.082.244.082.382 0 .216-.074.415-.198.573l.002-.002c-2.578 3.311-5.859 4.985-9.781 4.985-1.114 0-2.178-.133-3.187-.4l1.48-1.479c.505.079 1.088.124 1.682.124h.026-.001c3.202 0 5.871-1.256 8.058-3.801-1.018-1.183-2.139-2.089-3.37-2.718l1.276-1.276zm-6.906 6.908 3.835-3.835c.091.276.143.594.143.924 0 1.688-1.368 3.055-3.055 3.055-.33 0-.648-.052-.946-.149l.022.006zm-1.978-1.951c-.099-.288-.156-.619-.156-.964 0-1.688 1.368-3.055 3.055-3.055.345 0 .677.057.986.163l-.022-.006-1.77 1.769c-.127.09-.238.2-.328.328l-1.767 1.767zm11.513-10.725c.147-.147.35-.238.574-.238.449 0 .812.364.812.812 0 .224-.091.427-.238.574l-18.375 18.375c-.147.147-.35.238-.574.238-.449 0-.812-.364-.812-.812 0-.224.091-.427.238-.574l18.375-18.375z"/></svg>