<svg height="20" viewBox="0 0 20 20" width="20" xmlns="http://www.w3.org/2000/svg"><path d="m19.756 18.58-4.809-4.809c1.187-1.442 1.907-3.307 1.907-5.34 0-4.654-3.772-8.428-8.425-8.431-.029 0-.063-.001-.097-.001-4.655 0-8.429 3.774-8.429 8.429s3.774 8.429 8.429 8.429c.034 0 .068 0 .102-.001h-.005.018c2.027 0 3.886-.719 5.336-1.917l-.014.011 4.808 4.804c.149.139.349.225.569.225.46 0 .833-.373.833-.833 0-.219-.085-.419-.223-.568v.001zm-11.327-3.4c-3.728-.003-6.751-3.023-6.756-6.751 0-3.722 3.029-6.756 6.756-6.756 3.728.006 6.749 3.027 6.756 6.755v.001c0 3.722-3.033 6.751-6.756 6.751z"/></svg>