<svg height="20" viewBox="0 0 20 20" width="20" xmlns="http://www.w3.org/2000/svg"><path d="m10 9.116 8.933-8.933c.113-.113.269-.183.442-.183.345 0 .625.28.625.625 0 .173-.07.329-.183.442l-8.933 8.933 8.933 8.933c.113.113.183.269.183.442 0 .345-.28.625-.625.625-.173 0-.329-.07-.442-.183l-8.933-8.933-8.933 8.933c-.113.113-.269.183-.442.183-.345 0-.625-.28-.625-.625 0-.173.07-.329.183-.442l8.933-8.933-8.933-8.933c-.113-.113-.183-.269-.183-.442 0-.345.28-.625.625-.625.173 0 .329.07.442.183z"/></svg>