<svg height="60" viewBox="0 0 60 60" width="60" xmlns="http://www.w3.org/2000/svg" xmlns:xlink="http://www.w3.org/1999/xlink"><defs><circle id="a" cx="30" cy="30" r="30"/><path id="b" d="m13.152.555h.041l.754.002h.141a11.385 11.385 0 0 1 7.966 3.424c2.156 2.196 3.344 5.126 3.344 8.25v1.482c.02.639 0 1.025 0 1.025l.042 4.635v7.5c0 1.677-1.386 3.041-3.089 3.041h-2.94v3.042h-2.058v-5.07h4.998c.569 0 1.03-.454 1.03-1.013v-2.03h-.857v.973h-2.04v-.974h-1.064v.974h-2.04v-.974h-.973v-2.039h.973v-1.02h2.04v1.02h1.066v-1.02h2.04v1.02h.856v-2.086h-.065a1.03 1.03 0 0 1 -.862-1.594l.927-1.417v-3.71l-.002-.184a16.204 16.204 0 0 0 -.01-.294h.006l-.017-1.288c0-2.586-.98-5.008-2.759-6.82a9.34 9.34 0 0 0 -5.572-2.745 27.893 27.893 0 0 0 -2.236-.117c-6.188.187-9.272 4.33-9.777 8.798 0 .01-.106.627-.096 1.26.01.689.136 1.399.136 1.402.365 2.113 1.554 3.87 2.801 5.712 1.604 2.368 3.262 4.818 3.262 8.167v5.07h-2.06v-5.07c0-2.735-1.415-4.828-2.915-7.042-1.605-2.368-3.262-4.818-3.262-8.167-.001-7.13 5.052-12.075 12.269-12.122zm5.641 12.123c1.393 0 2.526 1.116 2.526 2.488s-1.133 2.488-2.526 2.488-2.526-1.116-2.526-2.488 1.133-2.488 2.526-2.488z"/><mask id="c" fill="#fff"><use fill="#fff" fill-rule="evenodd" xlink:href="#a"/></mask><mask id="d" fill="#fff"><use fill="#fff" fill-rule="evenodd" xlink:href="#b"/></mask></defs><g fill="none" fill-rule="evenodd"><use fill="#505050" xlink:href="#a"/><g mask="url(#c)"><g transform="translate(16 13)"><use fill="#000" xlink:href="#b"/><g fill="#fff" fill-rule="nonzero" mask="url(#d)"><path d="m-7-7h40v40h-40z"/></g></g></g></g></svg>