<svg xmlns="http://www.w3.org/2000/svg" width="16" height="16" viewBox="0 0 16 16">
    <path d="M8.132 0c2.724.003 4.94 2.158 4.94 4.806v1.67h.115c.72 0 1.304.57 1.304 1.269v6.987c0 .7-.585 1.268-1.304 1.268H2.796c-.72 0-1.305-.569-1.305-1.268V7.745c0-.7.585-1.268 1.305-1.268h.114V4.806C2.91 2.158 5.127.003 7.85 0h.282zm-.281 2.105c-1.53 0-2.779 1.21-2.779 2.7v1.672h5.838V4.806c0-1.49-1.248-2.7-2.778-2.7h-.281zM8 12.805c.98 0 1.773-.768 1.773-1.715 0-.946-.794-1.714-1.773-1.714-.98 0-1.773.768-1.773 1.714 0 .947.794 1.715 1.773 1.715z"/>
</svg>
