<svg width="16px" height="16px" viewBox="0 0 16 16" version="1.1" xmlns="http://www.w3.org/2000/svg" xmlns:xlink="http://www.w3.org/1999/xlink">
    <path d="M5,12 C5.55228475,12 6,12.4477153 6,13 C6,13.5522847 5.55228475,14 5,14 C4.44771525,14 4,13.5522847 4,13 C4,12.4477153 4.44771525,12 5,12 Z M11,12 C11.5522847,12 12,12.4477153 12,13 C12,13.5522847 11.5522847,14 11,14 C10.4477153,14 10,13.5522847 10,13 C10,12.4477153 10.4477153,12 11,12 Z M5,7 C5.55228475,7 6,7.44771525 6,8 C6,8.55228475 5.55228475,9 5,9 C4.44771525,9 4,8.55228475 4,8 C4,7.44771525 4.44771525,7 5,7 Z M11,7 C11.5522847,7 12,7.44771525 12,8 C12,8.55228475 11.5522847,9 11,9 C10.4477153,9 10,8.55228475 10,8 C10,7.44771525 10.4477153,7 11,7 Z M5,2 C5.55228475,2 6,2.44771525 6,3 C6,3.55228475 5.55228475,4 5,4 C4.44771525,4 4,3.55228475 4,3 C4,2.44771525 4.44771525,2 5,2 Z M11,2 C11.5522847,2 12,2.44771525 12,3 C12,3.55228475 11.5522847,4 11,4 C10.4477153,4 10,3.55228475 10,3 C10,2.44771525 10.4477153,2 11,2 Z" id="Shape"></path>
</svg>