<svg xmlns="http://www.w3.org/2000/svg" width="20" height="20" viewBox="0 0 20 20">
  <path fill-rule="evenodd" d="M11.998 0C13.104 0 14 .896 14 2.002v1.503c0 .276-.224.5-.5.5-.275 0-.499-.224-.499-.5V2c0-.552-.447-1-1-1H2c-.552 0-1 .448-1 1v16c0 .552.448 1 1 1h9.995c.552 0 .999-.446 1-.997L13 16.499c0-.276.225-.499.5-.499.276 0 .5.224.5.5V18c0 1.105-.895 2-2 2H2c-1.105 0-2-.895-2-2V2C0 .895.895 0 2 0h9.998zm3.608 6.141c.174-.172.443-.19.638-.057l.069.057 3.537 3.505.058.069c.118.169.118.394 0 .563l-.058.069-3.536 3.504-.07.057c-.17.117-.397.117-.568 0l-.069-.057-.058-.068c-.118-.17-.118-.395 0-.563l.058-.069 2.682-2.66H6.504l-.09-.008c-.233-.042-.41-.244-.41-.487 0-.244.177-.446.41-.488l.09-.008h11.785L15.606 6.84l-.057-.068c-.135-.193-.116-.46.057-.632z"/>
</svg>