<svg xmlns="http://www.w3.org/2000/svg" width="20" height="20" viewBox="0 0 20 20">
    <path d="M17.854 2.146c.173.174.193.443.058.638l-.058.07-2.622 2.62c1.826 1.048 3.42 2.56 4.668 4.224.043.056.071.119.087.183l.011.074.002.043c0 .033-.003.067-.01.1-.013.072-.043.142-.09.205-2.339 3.116-5.885 5.7-9.902 5.7-1.515 0-2.963-.368-4.304-.992l-2.84 2.838c-.195.196-.511.196-.707 0-.174-.173-.193-.442-.058-.637l.058-.07 2.616-2.614c-1.826-1.048-3.42-2.56-4.665-4.225-.058-.08-.09-.17-.098-.26v-.085c.007-.09.04-.18.098-.26C2.43 6.583 5.98 4 9.998 4c1.514 0 2.962.367 4.303.992l2.845-2.844c.195-.196.512-.196.708 0zm-3.295 4L6.397 14.31c1.076.438 2.27.693 3.6.693 4.018 0 6.774-2.319 8.875-5-1.19-1.521-2.591-2.925-4.313-3.855zM9.998 5C5.98 5 3.22 7.318 1.127 10.001c1.186 1.52 2.587 2.923 4.308 3.854L13.6 5.692C12.523 5.254 11.33 5 9.998 5zm2.753 3.805c.165.513.247.911.247 1.194 0 1.657-1.343 3-3 3-.424 0-.828-.088-1.194-.247l.794-.793c.13.026.263.04.4.04 1.104 0 2-.895 2-2 0-.091-.013-.224-.04-.4l.793-.794zM9.998 6.998c.426 0 .832.089 1.199.25l-.793.791c-.131-.027-.267-.04-.406-.04-1.105 0-2 .895-2 2 0 .138.014.274.041.405l-.792.792c-.16-.367-.25-.772-.25-1.198 0-1.657 1.344-3 3-3z"/>
</svg>
