<svg height="60" viewBox="0 0 60 60" width="60" xmlns="http://www.w3.org/2000/svg" xmlns:xlink="http://www.w3.org/1999/xlink"><defs><circle id="a" cx="30" cy="30" r="30"/><path id="b" d="m9.387.505a3.307 3.307 0 0 1 2.19-.102c1.368.395 2.564 1.5 3.558 3.284.396.71.677 1.386.847 1.843 1.904.098 3.555.568 4.985 1.306l.084.045a13.507 13.507 0 0 1 1.852 1.213c5.361 4.282 6.745 12.765 6.745 16.681 0 1.119-.924 2.028-2.06 2.028h-1.028v5.07c0 1.677-1.386 3.041-3.088 3.041h-2.06v3.042h-2.058v-5.07h4.118c.568 0 1.03-.454 1.03-1.013v-7.098h3.088c0-.133-.201-10.386-5.865-15.013-.023-.02-.514-.45-1.14-.823-.58-.347-1.3-.638-1.32-.646-1.17-.48-2.505-.754-4.03-.754-.24 0-.477.007-.709.018l-.031-.078-.028.023-.003-.011a9.407 9.407 0 0 0 -.141-.43 35.799 35.799 0 0 0 -.644-1.47l.006-.001c-.55-1.108-1.543-2.79-2.703-3.126a1.158 1.158 0 0 0 -.764.02c-.204.085-.398.225-.431.662-.068.882 1.059 2.242 1.784 3.199.403.496 1.122 1.434 1.102 1.438-1.775.358-3.225 1.09-4.371 2.07a5.19 5.19 0 0 0 -.277.29l-.177-.291a25.032 25.032 0 0 0 -.807-1.249c-.814-1.109-2.087-2.427-3.299-2.328-.176.03-.57.16-.674.735-.114.625.777 1.614 1.809 2.76.34.377.71.788 1.09 1.235l.66.752-.018.028c-.884 1.358-1.407 2.928-1.592 4.542-.003.027-.01.107-.009.08l-.029.363a9.527 9.527 0 0 0 .073 2.219l.009.049c.37 2.1 1.554 3.849 2.795 5.682 1.604 2.368 3.262 4.818 3.262 8.167v5.07h-2.06v-5.07c0-2.735-1.415-4.828-2.915-7.042-1.604-2.368-3.261-4.818-3.261-8.167 0-2.062.421-3.945 1.195-5.58a69.532 69.532 0 0 0 -.794-.893c-1.411-1.565-2.63-2.917-2.328-4.579a2.986 2.986 0 0 1 2.558-2.484c2.235-.213 4.063 1.589 5.142 3.013.212-.12.43-.234.65-.342-.913-1.097-1.77-2.382-1.659-3.832.09-1.163.708-2.043 1.74-2.476zm13.053 17.173c1.136 0 2.06.91 2.06 2.028s-.924 2.028-2.06 2.028c-1.135 0-2.059-.91-2.059-2.028 0-1.119.924-2.028 2.06-2.028z"/><mask id="c" fill="#fff"><use fill="#fff" fill-rule="evenodd" xlink:href="#a"/></mask><mask id="d" fill="#fff"><use fill="#fff" fill-rule="evenodd" xlink:href="#b"/></mask></defs><g fill="none" fill-rule="evenodd"><use fill="#505050" xlink:href="#a"/><g mask="url(#c)"><g transform="translate(15 10)"><use fill="#000" xlink:href="#b"/><g fill="#fff" fill-rule="nonzero" mask="url(#d)"><path d="m-5-2h40v40h-40z"/></g></g></g></g></svg>