<svg xmlns="http://www.w3.org/2000/svg" width="16" height="16" viewBox="0 0 16 16">
    <path d="M9.243 6.765c-1.468-1.468-3.826-1.519-5.356-.152l-.16.152-2.588 2.58C.404 10.079 0 11.058 0 12.103s.404 2.024 1.139 2.758C1.873 15.596 2.852 16 3.897 16c.964 0 1.873-.345 2.581-.972l.173-.162 1.65-1.728c.194-.194.194-.512-.002-.707-.172-.172-.436-.193-.63-.066l-.077.064-1.648 1.725c-.543.543-1.271.843-2.047.843-.776 0-1.504-.3-2.049-.845-1.083-1.083-1.128-2.816-.135-3.954l.135-.144 2.588-2.58c.545-.544 1.273-.844 2.05-.844.775 0 1.503.3 2.048.844.196.196.513.196.71 0 .17-.171.192-.436.063-.63l-.064-.08zM12.103 0c-.965 0-1.874.345-2.582.972l-.173.162-1.65 1.728c-.194.194-.193.512.002.707.172.172.436.193.63.066l.077-.064 1.648-1.725c.543-.543 1.271-.843 2.047-.843.776 0 1.505.3 2.05.845 1.082 1.083 1.127 2.816.134 3.954l-.135.144-2.588 2.58c-.545.544-1.273.844-2.049.844s-1.504-.3-2.049-.844c-.196-.196-.513-.196-.709 0-.196.196-.196.513 0 .71 1.468 1.467 3.826 1.518 5.356.15l.161-.151 2.588-2.58c.734-.734 1.138-1.713 1.138-2.758s-.404-2.024-1.139-2.758C14.127.404 13.147 0 12.102 0z"/>
</svg>
