<svg height="20" viewBox="0 0 92 20" width="92" xmlns="http://www.w3.org/2000/svg"><path d="m13.01.954c.312.312.312.819 0 1.131l-11.314 11.314c-.312.312-.819.312-1.131 0s-.312-.819 0-1.131l11.314-11.314c.312-.312.819-.312 1.131 0z"/><path d="m18.61 6.554c.312.312.312.819 0 1.131l-11.314 11.314c-.312.312-.819.312-1.131 0s-.312-.819 0-1.131l11.314-11.314c.312-.312.819-.312 1.131 0z"/><path d="m34.758 16.122c-1.024 0-1.912-.223-2.667-.669s-1.336-1.086-1.741-1.922c-.406-.837-.608-1.822-.608-2.957s.202-2.115.608-2.942c.406-.826.986-1.462 1.74-1.907s1.645-.669 2.668-.669c.75 0 1.436.114 2.06.342.633.232 1.173.581 1.618 1.026l-.471.958c-.517-.446-1.026-.765-1.528-.958-.477-.183-1.03-.289-1.607-.289-.02 0-.04 0-.06 0h.003c-1.186 0-2.105.385-2.758 1.155s-.981 1.864-.981 3.283c0 1.429.324 2.53.973 3.306s1.57 1.163 2.766 1.163c.608 0 1.162-.096 1.664-.289s1.011-.512 1.528-.958l.471.958c-.456.456-.995.798-1.618 1.026s-1.31.342-2.06.342zm14.278-.122-1.186-2.782h-5.654l-1.2 2.782h-1.293l4.758-10.822h1.094l4.758 10.822zm-6.399-3.815h4.773l-2.386-5.563-2.386 5.563zm9.795 3.815v-10.822h6.84v1.034h-5.609v3.77h5.304v1.049h-5.304v3.937h5.608v1.034h-6.84zm12.727.122c-1.692 0-3.04-.456-4.043-1.368l.471-.958c.537.456 1.084.78 1.642.973s1.206.289 1.946.289c.872 0 1.542-.17 2.014-.509s.707-.818.707-1.437c0-.365-.114-.661-.342-.89s-.528-.408-.897-.539c-.387-.138-.884-.28-1.391-.393l-.092-.017c-.831-.182-1.515-.38-2.052-.593s-.973-.52-1.307-.92-.502-.924-.502-1.573c0-.618.162-1.162.486-1.634s.782-.838 1.376-1.102c.592-.264 1.284-.395 2.074-.395.75 0 1.449.117 2.098.35s1.196.573 1.642 1.018l-.486.958c-.506-.436-1.021-.755-1.542-.958-.493-.193-1.064-.304-1.661-.304-.018 0-.035 0-.052 0h.003c-.841 0-1.5.18-1.976.54s-.714.854-.714 1.482c0 .547.208.958.623 1.231s1.054.512 1.915.714c.932.223 1.664.428 2.197.616.525.18.971.473 1.328.85l.001.001c.354.38.532.884.532 1.512 0 .608-.162 1.142-.486 1.604s-.788.818-1.391 1.071c-.602.254-1.31.38-2.12.38zm14.763-.122-1.186-2.782h-5.654l-1.2 2.782h-1.293l4.758-10.822h1.094l4.758 10.822zm-6.399-3.815h4.773l-2.386-5.563-2.386 5.563zm18.291 3.815h-1.322l-1.338-3.602c-.162-.446-.388-.745-.677-.897s-.696-.228-1.224-.228h-2.705v4.727h-1.232v-10.822h4.302c1.165 0 2.059.258 2.682.775s.935 1.262.935 2.234c0 .71-.185 1.304-.555 1.786s-.904.824-1.603 1.026c.317.049.593.193.806.403.222.218.41.53.562.935l1.368 3.663zm-4.301-5.761c1.662 0 2.493-.679 2.493-2.037 0-.669-.203-1.168-.608-1.497s-1.034-.494-1.885-.494h-2.964v4.028z"/></svg>