<svg width="104px" height="32px" viewBox="0 0 104 32" version="1.1" xmlns="http://www.w3.org/2000/svg" xmlns:xlink="http://www.w3.org/1999/xlink">
    <g stroke="none" stroke-width="1" fill-rule="evenodd">
        <path d="M43.2166219,2.08899564e-12 C44.0481215,2.08899564e-12 44.8542595,0.147 45.6368473,0.4422 C46.4194352,0.7374 47.042607,1.1478 47.5069666,1.6734 L45.6289973,3.5382 C45.3802116,3.1956 45.0480949,2.9352 44.6332509,2.7588 C44.2171991,2.5812 43.7782012,2.4936 43.3138415,2.4936 C42.3525145,2.4936 41.5626804,2.823 40.9425279,3.4824 C40.3211676,4.1418 40.0107894,4.9764 40.0107894,5.9832 C40.0107894,7.0128 40.3133176,7.8528 40.9171662,8.502 C41.5216187,9.15 42.3042066,9.4746 43.2655337,9.4746 C44.3337419,9.4746 45.1428991,9.0882 45.6936091,8.3166 L47.6198863,10.1178 C46.5299395,11.373 45.0462833,12 43.168314,12 C41.3875643,12 39.9135698,11.4396 38.7487457,10.3194 C37.582714,9.1986 37,7.7532 37,5.9832 C37,4.1928 37.5911678,2.748 38.7722958,1.6488 C39.9546315,0.5496 41.4358722,2.08899564e-12 43.2166219,2.08899564e-12 Z M76.2213425,0.01566 C76.8916145,0.01566 77.5630942,0.13626 78.2369893,0.37746 C78.9114882,0.61986 79.4917868,0.96486 79.9772811,1.41486 L78.2122315,3.26526 C77.9863921,2.97606 77.6814485,2.74026 77.2980046,2.55726 C76.9151646,2.37606 76.5401746,2.28366 76.1730346,2.28366 C75.7412828,2.28366 75.3662928,2.37246 75.0480645,2.54946 C74.7298363,2.72646 74.5704203,3.01866 74.5704203,3.42666 C74.5704203,3.60846 74.6078589,3.76686 74.68334,3.90066 C74.758821,4.03506 74.8856293,4.15266 75.0637646,4.25406 C75.2425038,4.35606 75.4176199,4.44246 75.5903206,4.51206 C75.7630214,4.58106 76.011807,4.66446 76.334866,4.76106 C76.7557485,4.90086 77.0854499,5.01366 77.3227624,5.09886 C77.5594711,5.18526 77.8644147,5.32746 78.2369893,5.52546 C78.6095639,5.72406 78.8982036,5.92986 79.1035121,6.14466 C79.3082168,6.35946 79.4917868,6.64626 79.6536182,7.00506 C79.8160535,7.36506 79.8963654,7.75866 79.8963654,8.18766 C79.8963654,9.42126 79.4724636,10.36206 78.6258678,11.01006 C77.7786682,11.65926 76.7400485,11.98386 75.5094049,11.98386 C74.6779053,11.98386 73.8790135,11.83926 73.1139373,11.55006 C72.3470495,11.26026 71.7154238,10.85766 71.2190602,10.34346 L73.0324177,8.50926 C73.3126035,8.86326 73.6827627,9.15246 74.1416877,9.37746 C74.6000088,9.60306 75.0565184,9.71586 75.5094049,9.71586 C75.9731607,9.71586 76.3535853,9.61686 76.6506789,9.41826 C76.9471686,9.21966 77.0957153,8.90586 77.0957153,8.47746 C77.0957153,8.30526 77.0546536,8.15286 76.9743418,8.01846 C76.8940299,7.88466 76.8040564,7.77246 76.7074407,7.68066 C76.610221,7.59006 76.4375203,7.49046 76.1893385,7.38306 C75.939949,7.27626 75.7304135,7.19346 75.5577128,7.13346 C75.3850121,7.07586 75.1048263,6.98106 74.7159478,6.85266 C74.2950653,6.71346 73.9333599,6.56826 73.6308318,6.41826 C73.3295113,6.26826 73.0269831,6.07026 72.7250588,5.82306 C72.4225306,5.57646 72.1900489,5.26566 72.0288213,4.89006 C71.8669898,4.51506 71.7860741,4.08006 71.7860741,3.58686 C71.7860741,2.98626 71.9152977,2.44746 72.1743488,1.97046 C72.432796,1.49346 72.7781974,1.11786 73.2111569,0.84426 C73.6423049,0.57126 74.1145145,0.36486 74.627182,0.22506 C75.1398495,0.08526 75.6718402,0.01566 76.2213425,0.01566 Z M55.4379697,0.3051 L60.1981087,11.6943 L57.1214998,11.6943 L56.2320307,9.4587 L51.7961585,9.4587 L50.9537896,11.6943 L47.9430002,11.6943 L52.7502394,0.3051 L55.4379697,0.3051 Z M69.4077613,0.30534 L69.4077613,2.63814 L64.3734751,2.63814 L64.3734751,4.77774 L69.1330102,4.77774 L69.1330102,6.98154 L64.3734751,6.98154 L64.3734751,9.34614 L69.6988164,9.34614 L69.6988164,11.69454 L61.7014448,11.69454 L61.7014448,0.30534 L69.4077613,0.30534 Z M88.3626803,0.3051 L93.1210078,11.6943 L90.0462104,11.6943 L89.1555336,9.4587 L84.7196614,9.4587 L83.8778964,11.6943 L80.8665031,11.6943 L85.67495,0.3051 L88.3626803,0.3051 Z M98.9977177,0.30528 C99.5798278,0.30528 100.119669,0.36468 100.616636,0.48288 C101.112396,0.60048 101.576151,0.78768 102.007903,1.04508 C102.440259,1.30308 102.776603,1.66188 103.019954,2.12328 C103.263305,2.58408 103.384074,3.12648 103.384074,3.74808 C103.384074,4.49868 103.174539,5.14188 102.753053,5.67828 C102.33217,6.21468 101.748852,6.59508 101.004911,6.82008 L104,11.69448 L100.762164,11.69448 L98.2845725,7.17408 L97.3461917,7.17408 L97.3461917,11.69448 L94.6258535,11.69448 L94.6258535,0.30528 L98.9977177,0.30528 Z M54.0460986,3.3453 L52.5890118,7.2549 L55.4705775,7.2549 L54.0460986,3.3453 Z M86.9702053,3.3453 L85.5125147,7.2549 L88.3940805,7.2549 L86.9702053,3.3453 Z M98.8026746,2.52528 L97.3292839,2.52528 L97.3292839,5.17968 L98.641447,5.17968 L98.8472511,5.17584574 C100.04863,5.12983512 100.648036,4.66974316 100.648036,3.79608 C100.648036,2.94888 100.033922,2.52528 98.8026746,2.52528 L98.8026746,2.52528 Z"></path>
        <text font-family="AvenirNext-Medium, Avenir Next" font-size="12" font-weight="400" line-spacing="16" letter-spacing="0.5142857" fill="#888888">
            <tspan x="37" y="28">4xxi</tspan>
        </text>
        <path d="M20.8153846,-2.48689958e-14 C20.8153846,-2.48689958e-14 20.5361997,1.23702472 19.7306242,2.5351541 C25.0328271,6.75285333 26.4,15.1330156 26.4,19 C26.4,20.103 25.4892,21 24.3692308,21 L23.3538462,21 L23.3538462,26 C23.3538462,27.654 21.9871385,29 20.3076923,29 L18.2769231,29 L18.2769231,32 L16.2461538,32 L16.2461538,27 L20.3076923,27 C20.8681846,27 21.3230769,26.552 21.3230769,26 L21.3230769,19 L24.3692308,19 C24.3692308,18.8673857 24.1677977,8.59664594 18.4522352,4.08565819 C16.9815366,5.40586548 15.4589821,5.49374185 15.2540628,5.49958489 L15.2307691,5.5 C15.2307691,5.5 15.2269974,4.19021355 16.2766934,2.79372282 C15.094835,2.28931339 13.7387637,2 12.1846154,2 C5.76042166,2 2.58643019,6.21257989 2.09786487,10.745744 C2.25753432,10.5377234 2.44082834,10.3281539 2.65116923,10.121 C4.29203077,8.505 6.6,8 6.6,8 C6.6,8 6.08723077,10.272 4.44636923,11.889 C3.63663079,12.6864697 2.79054324,13.0891834 2.14117447,13.2925477 C2.49616854,15.3849367 3.67228667,17.1232202 4.90633846,18.945 C6.48830769,21.281 8.12307692,23.697 8.12307692,27 L8.12307692,32 L6.09230769,32 L6.09230769,27 C6.09230769,24.303 4.69615385,22.239 3.21673846,20.055 C1.63476923,17.719 -1.0658141e-14,15.303 -1.0658141e-14,12 C-1.0658141e-14,4.935 5.01092308,0 12.1846154,0 C14.3845774,0 16.2604012,0.488093486 17.8560903,1.31560596 C19.3027718,0.331116052 20.8153846,-2.48689958e-14 20.8153846,-2.48689958e-14 Z M19.2923077,12 C20.4122769,12 21.3230769,12.897 21.3230769,14 C21.3230769,15.103 20.4122769,16 19.2923077,16 C18.1723385,16 17.2615385,15.103 17.2615385,14 C17.2615385,12.897 18.1723385,12 19.2923077,12 Z M12.6923077,10.5 C12.6923077,10.5 11.1418154,12.195 8.96584615,12.787 C6.78987692,13.379 5.07692308,12.5 5.07692308,12.5 C5.07692308,12.5 6.15221538,10.964 8.32818462,10.372 C10.5041538,9.78 12.6923077,10.5 12.6923077,10.5 Z M13.7076923,4 C13.7076923,4 13.1949231,6.272 11.5540615,7.889 C10.0225908,9.39726667 8.36109653,9.49346222 8.1463705,9.49958489 L8.12307683,9.5 C8.12307683,9.5 8.118,7.737 9.75886154,6.121 C11.3997231,4.505 13.7076923,4 13.7076923,4 Z M15.4358769,6.372 C17.6118462,5.78 19.8,6.5 19.8,6.5 C19.8,6.5 18.2495077,8.195 16.0735385,8.787 C13.8975692,9.379 12.1846154,8.5 12.1846154,8.5 C12.1846154,8.5 13.2599077,6.964 15.4358769,6.372 Z"></path>
    </g>
</svg>