<svg xmlns="http://www.w3.org/2000/svg" xmlns:xlink="http://www.w3.org/1999/xlink" width="60" height="60" viewBox="0 0 60 60">
    <defs>
        <circle id="a" cx="30" cy="30" r="30"/>
        <path id="c" d="M13.152.555h.041l.754.002H14.088a11.385 11.385 0 0 1 7.966 3.424c2.156 2.196 3.344 5.126 3.344 8.25v1.482c.02.639 0 1.025 0 1.025l.042 4.635v7.5c0 1.677-1.386 3.041-3.089 3.041h-2.94v3.042h-2.058v-5.07h4.998c.569 0 1.03-.454 1.03-1.013v-2.03h-.857v.973h-2.04v-.974H19.42v.974h-2.04v-.974h-.973v-2.039h.973v-1.02h2.04v1.02h1.066v-1.02h2.04v1.02h.856v-2.086h-.065a1.03 1.03 0 0 1-.862-1.594l.927-1.417v-3.71l-.002-.184a16.204 16.204 0 0 0-.01-.294h.006l-.017-1.288c0-2.586-.98-5.008-2.759-6.82a9.34 9.34 0 0 0-5.572-2.745 27.893 27.893 0 0 0-2.236-.117c-6.188.187-9.272 4.33-9.777 8.798 0 .01-.106.627-.096 1.26.01.689.136 1.399.136 1.402.365 2.113 1.554 3.87 2.801 5.712 1.604 2.368 3.262 4.818 3.262 8.167v5.07h-2.06v-5.07c0-2.735-1.415-4.828-2.915-7.042C2.538 18.477.881 16.027.881 12.678.88 5.548 5.933.603 13.15.556zm5.641 12.123c1.393 0 2.526 1.116 2.526 2.488 0 1.372-1.133 2.488-2.526 2.488-1.393 0-2.526-1.116-2.526-2.488 0-1.372 1.133-2.488 2.526-2.488z"/>
    </defs>
    <g fill="none" fill-rule="evenodd">
        <mask id="b" fill="#fff">
            <use xlink:href="#a"/>
        </mask>
        <use fill="#505050" xlink:href="#a"/>
        <g mask="url(#b)">
            <g transform="translate(16 13)">
                <mask id="d" fill="#fff">
                    <use xlink:href="#c"/>
                </mask>
                <use fill="#000" xlink:href="#c"/>
                <g fill="#FFF" fill-rule="nonzero" mask="url(#d)">
                    <path d="M-7-7h40v40H-7z"/>
                </g>
            </g>
        </g>
    </g>
</svg>
