<svg xmlns="http://www.w3.org/2000/svg" width="16" height="16" viewBox="0 0 16 16">
    <path d="M15.5 10c.276 0 .5.224.5.5V14c0 1.105-.895 2-2 2H2c-1.105 0-2-.895-2-2v-3.5c0-.276.224-.5.5-.5s.5.224.5.5V14c0 .513.386.936.883.993L2 15h12c.513 0 .936-.386.993-.883L15 14v-3.5c0-.276.224-.5.5-.5zM8 .004c.243 0 .445.177.487.41l.008.09v9.786l2.66-2.682c.172-.174.438-.193.631-.058l.069.058c.172.173.19.442.057.637l-.057.07L8.35 11.85c-.171.174-.438.193-.631.058l-.069-.058-3.505-3.537c-.193-.195-.193-.511 0-.706.172-.173.439-.193.632-.058l.068.058 2.658 2.683V.504c0-.276.223-.5.496-.5z"/>
</svg>
