<!-- Generated by IcoMoon.io -->
<svg version="1.1" xmlns="http://www.w3.org/2000/svg" width="16" height="16" viewBox="0 0 16 16">
<title>bitmap</title>
<path fill="#505050" d="M16 8c0 4.418-3.582 8-8 8s-8-3.582-8-8c0-4.418 3.582-8 8-8s8 3.582 8 8z"></path>
<path fill="#fff" d="M5.967 2.272c0.219-0.206 0.682-0.463 1.332 0.137 0.393 0.363 0.645 0.851 0.748 1.076 0.502 0.028 0.94 0.149 1.321 0.34 0.007 0.004 0.163 0.081 0.315 0.179 0.137 0.089 0.272 0.2 0.276 0.203 1.456 1.183 1.833 3.499 1.833 4.571 0 0.308-0.254 0.558-0.566 0.558h-0.283v1.394c0 0.461-0.381 0.837-0.85 0.837h-0.566v0.837h-0.566v-1.395h1.133c0.156 0 0.283-0.125 0.283-0.279v-1.952h0.85c0-0.037-0.056-2.88-1.633-4.146-0.003-0.002-0.146-0.131-0.31-0.228-0.157-0.093-0.336-0.155-0.341-0.157-0.323-0.134-0.693-0.21-1.115-0.21-0.021 0-0.194-0.011-0.215-0.010-0.035-0.13-0.070-0.235-0.11-0.337l0.008 0.023c-0.088-0.189-0.298-0.591-0.607-0.876-0.348-0.321-0.467-0.209-0.538-0.142-0.070 0.066-0.105 0.133-0.108 0.206-0.003 0.063 0.023 0.13 0.069 0.184 0 0 0.174 0.198 0.349 0.411 0.075 0.068 0.242 0.29 0.391 0.531-0.322 0.084-0.945 0.4-1.169 0.678-0.020-0.019-0.192-0.184-0.213-0.205-0.009-0.009-0.018-0.019-0.026-0.030l-0-0.001c-0.175-0.165-0.587-0.555-0.691-0.659-0.034-0.034-0.19-0.122-0.337-0.113-0.075 0.004-0.129 0.032-0.175 0.089-0.141 0.177-0.039 0.318-0.015 0.346l0.71 0.71c0.015 0.012 0.030 0.025 0.045 0.039 0.053 0.054 0.295 0.269 0.273 0.301-0.253 0.38-0.402 0.824-0.453 1.279-0.001 0.005-0.023 0.16-0.023 0.378 0 0.146 0.035 0.355 0.036 0.36 0.102 0.577 0.428 1.059 0.769 1.563 0.441 0.651 0.897 1.325 0.897 2.247v1.395h-0.566v-1.395c0-0.752-0.39-1.328-0.802-1.937-0.441-0.652-0.897-1.325-0.897-2.247 0-0.573 0.119-1.095 0.335-1.548l-0.751-0.751c-0.164-0.182-0.378-0.646-0.012-1.104 0.141-0.179 0.355-0.296 0.596-0.307l0.002-0c0.31-0.017 0.627 0.129 0.781 0.283 0.177 0.171 0.368 0.354 0.561 0.536l0.027 0.025c0.077-0.045 0.156-0.088 0.237-0.127l-0.318-0.368c-0.145-0.168-0.22-0.378-0.211-0.59 0.010-0.225 0.11-0.433 0.29-0.603zM9.81 6.826c0.312 0 0.566 0.25 0.566 0.558s-0.254 0.558-0.566 0.558-0.566-0.25-0.566-0.558c0-0.308 0.254-0.558 0.566-0.558z"></path>
</svg>
