<svg height="20" viewBox="0 0 20 20" width="20" xmlns="http://www.w3.org/2000/svg"><path d="m19.249 10.519-6.812-.018c-.208 1.179-1.24 2.086-2.438 2.072-1.209-.015-2.206-.905-2.387-2.065l-.002-.014-6.861.007v5.72c-.014 1.108.847 2.014 1.913 2.028h14.601c1.072-.001 1.973-.892 1.985-1.976v-5.754zm-18.456-.793 7.186-.005c.212.003.383.176.383.388v.007.023c0 .68.409 1.264.994 1.52l.011.004c.617.265 1.334.081 1.814-.389.306-.296.497-.709.5-1.167v-.001c.004-.214.179-.386.394-.386h.001l7.121.02-1.555-6.599c-.256-.825-.995-1.384-1.828-1.391h-11.411c-.822-.01-1.56.515-1.857 1.346l-.004.015c-.001.004-.001.005-.001.007v-.002l-1.747 6.61zm17.572-6.781c.006.021.008.042.015.111h-.375l.365-.086 1.62 6.869.01.086v6.353c-.016 1.499-1.251 2.721-2.735 2.722h-14.607c-1.49-.019-2.677-1.27-2.659-2.783v-6.38l.013-.096 1.807-6.836.022-.062c-.004.008-.008.018-.011.028l-.001.003.006-.017c.375-1.122 1.413-1.872 2.571-1.858h11.41c1.168.009 2.195.79 2.544 1.927l.017.11c-.012-.077-.016-.107-.018-.118l.008.025zm-12.577 2.503c-.207-.001-.374-.168-.375-.375 0-.206.169-.375.375-.375h8.398c.207 0 .375.169.375.375s-.169.375-.375.375zm-1.926 2c-.207-.001-.374-.168-.375-.375 0-.207.169-.375.375-.375h12.25c.207 0 .375.169.375.375s-.169.375-.375.375z"/></svg>