<svg xmlns="http://www.w3.org/2000/svg" width="16" height="16" viewBox="0 0 16 16">
    <path d="M14 6c1.105 0 2 .895 2 2v5c0 .552-.448 1-1 1H9v1c0 .552-.448 1-1 1H1c-.552 0-1-.448-1-1v-5c0-1.105.895-2 2-2h5c0-1.105.895-2 2-2h5zM7 9H2c-.513 0-.936.386-.993.883L1 10v5h7v-5c0-.513-.386-.936-.883-.993L7 9zm7-2H9c-.513 0-.936.386-.993.883L8 8l.001.268C8.598 8.614 9 9.26 9 10v3h6V8c0-.513-.386-.936-.883-.993L14 7zM4.5 2C5.88 2 7 3.12 7 4.5S5.88 7 4.5 7 2 5.88 2 4.5 3.12 2 4.5 2zm0 1C3.672 3 3 3.672 3 4.5S3.672 6 4.5 6 6 5.328 6 4.5 5.328 3 4.5 3zm7-3C12.88 0 14 1.12 14 2.5S12.88 5 11.5 5 9 3.88 9 2.5 10.12 0 11.5 0zm0 1c-.828 0-1.5.672-1.5 1.5S10.672 4 11.5 4 13 3.328 13 2.5 12.328 1 11.5 1z"/>
</svg>
