<svg xmlns="http://www.w3.org/2000/svg" width="20" height="20" viewBox="0 0 20 20">
    <path d="M250.522 294.09l.144.057 8.253 3.807c.354.163.58.518.58.908l.001 10.013c0 .538-.294 1.031-.765 1.302l-.133.068-7.945 3.612c-.368.167-.787.188-1.167.062l-.16-.063-7.932-3.611c-.502-.229-.838-.696-.89-1.224l-.008-.145V298.86c0-.39.227-.744.58-.907l8.241-3.807c.378-.174.81-.194 1.2-.058zm-8.98 4.857v9.929c0 .167.085.322.224.415l.075.041 7.632 3.475v-10.2l-7.932-3.66zm16.917-.006l-7.945 3.666v10.2l7.645-3.475c.157-.071.265-.212.293-.374l.007-.083v-9.934zm-11.305 7.787c.861.044 1.402.83 1.448 1.653.048.845-.4 1.76-1.41 1.813-.953.05-1.557-.781-1.606-1.653-.046-.824.403-1.664 1.256-1.797l.154-.016h.158zm-.1 1.007c-.25.013-.45.364-.428.75.022.387.26.715.509.702.295-.016.445-.443.427-.75-.021-.388-.26-.715-.509-.702zm-3.28-2.115c.905.044 1.395.855 1.44 1.653.047.843-.396 1.76-1.412 1.813-1.01.053-1.556-.808-1.604-1.653-.045-.8.354-1.663 1.255-1.797l.155-.016h.166zm-.11 1.007c-.294.016-.444.444-.427.751.018.308.213.716.51.701.298-.016.444-.45.427-.75-.017-.308-.212-.717-.51-.702zm11.397-2.437l.154.035c.917.257 1.204 1.234.953 2.073-.25.84-1.032 1.518-1.948 1.261-.972-.272-1.196-1.26-.953-2.073.236-.792.945-1.44 1.794-1.296zm-.794 1.576c-.088.296-.042.745.242.824.24.068.548-.2.659-.572.111-.372-.002-.757-.242-.824-.24-.067-.548.2-.66.572zm-7.113-3.072c.861.044 1.402.83 1.448 1.653.048.845-.4 1.76-1.41 1.813-.953.05-1.557-.781-1.606-1.654-.046-.824.403-1.663 1.256-1.796l.154-.016h.158zm-.1 1.007c-.25.013-.45.364-.428.75.022.387.26.715.509.702.295-.016.445-.444.427-.751-.021-.387-.26-.714-.509-.701zm-3.28-2.116c.905.044 1.395.856 1.44 1.654.047.843-.396 1.76-1.412 1.813-1.01.052-1.556-.808-1.604-1.653-.045-.8.354-1.664 1.255-1.798l.155-.015h.166zm-.11 1.008c-.294.016-.444.443-.427.75.018.308.213.717.51.702.298-.016.444-.45.427-.75-.017-.309-.212-.717-.51-.702zm6.193-7.567l-.088.032-7.114 3.287 7.338 3.385 7.337-3.385-7.112-3.287c-.114-.053-.242-.063-.361-.032zm-2.297 1.895c.87-.046 1.815.382 1.871 1.366.052.923-.806 1.508-1.706 1.556-.9.048-1.82-.443-1.872-1.367-.052-.923.806-1.507 1.707-1.555zm4.947-.037c.87-.046 1.815.381 1.87 1.366.056.98-.833 1.509-1.705 1.555-.9.048-1.82-.443-1.872-1.366-.052-.923.806-1.508 1.707-1.555zm-4.794 1.044h-.097c-.399.021-.737.252-.723.493.013.242.375.436.775.415.399-.022.737-.252.723-.494-.014-.262-.38-.4-.678-.414zm4.946-.037h-.096c-.399.02-.737.251-.724.493.014.242.376.435.775.414.319-.017.74-.206.724-.493-.015-.262-.38-.401-.679-.414z" transform="translate(-660 -434) translate(420 140)"/>
</svg>
