<svg width="20px" height="20px" viewBox="0 0 20 20" xmlns="http://www.w3.org/2000/svg">
    <g stroke="none" stroke-width="1" fill-rule="evenodd">
        <g transform="translate(-660.000000, -314.000000)">
            <g transform="translate(420.000000, 140.000000)">
                <path d="M251.997918,174 C253.103637,174 254,174.896363 254,176.002082 L254,177.504836 C254,177.780607 253.776443,178.004165 253.500671,178.004165 C253.224899,178.004165 253.001342,177.780607 253.001342,177.504836 L253.001342,176 C253.001342,175.447715 252.553627,175 252.001342,175 L242,175 C241.447715,175 241,175.447715 241,176 L241,192 C241,192.552285 241.447715,193 242,193 L251.995474,193 C252.546614,193 252.993854,192.554069 252.99547,192.002932 L252.999878,190.499327 C253.000687,190.22332 253.224663,190 253.500671,190 C253.776443,190 254,190.223557 254,190.499329 L254,192 C254,193.104569 253.104569,194 252,194 L242,194 C240.895431,194 240,193.104569 240,192 L240,176 C240,174.895431 240.895431,174 242,174 L251.997918,174 Z M255.606431,180.141171 C255.77984,179.969313 256.049021,179.950218 256.243712,180.083885 L256.312898,180.141171 L259.849852,183.64648 L259.907655,183.715046 C260.02567,183.883877 260.02567,184.109228 259.907655,184.278059 L259.849852,184.346626 L256.313678,187.851161 L256.244493,187.908447 C256.074137,188.025406 255.846752,188.025406 255.676396,187.908447 L255.607211,187.851161 L255.549408,187.782595 C255.431393,187.613764 255.431393,187.388412 255.549408,187.219581 L255.607211,187.151015 L258.289117,184.490591 L246.503834,184.491102 L246.413958,184.483118 C246.180709,184.441161 246.003834,184.238839 246.003834,183.995576 C246.003834,183.752312 246.180709,183.54999 246.413958,183.508033 L246.503834,183.500049 L258.289117,183.499538 L255.606431,180.841317 L255.548628,180.772751 C255.413754,180.579801 255.433021,180.313029 255.606431,180.141171 Z" id="NEW/icons/20/log_out"></path>
            </g>
        </g>
    </g>
</svg>