<svg width="16px" height="16px" viewBox="0 0 16 16" version="1.1" xmlns="http://www.w3.org/2000/svg" xmlns:xlink="http://www.w3.org/1999/xlink">
    <path d="M5.36792991,5.13102761 L0.433343048,5.81892674 L0.348339195,5.83800208 C-0.00280566489,5.94855638 -0.125798339,6.40793545 0.154277106,6.67780339 L3.74209189,10.1350739 L2.87201064,15.0421272 L2.86396833,15.1231932 C2.85642577,15.4943197 3.25764699,15.7568542 3.60261476,15.5729421 L8,13.2290868 L12.3973852,15.5729421 L12.4719985,15.6056416 C12.8226299,15.7274994 13.1962993,15.427043 13.1279894,15.0421272 L12.2569039,10.1350739 L15.8457229,6.67780339 L15.9032802,6.6124071 C16.1223802,6.31656902 15.9518671,5.87263027 15.566657,5.81892674 L10.6310659,5.13102761 L8.45153818,0.649490356 C8.26834108,0.272824279 7.73165892,0.272824279 7.54846182,0.649490356 L5.36792991,5.13102761 Z" fill-rule="nonzero"></path>
</svg>