<svg height="16" viewBox="0 0 16 16" width="16" xmlns="http://www.w3.org/2000/svg"><path d="m16 8c0 4.418-3.582 8-8 8s-8-3.582-8-8 3.582-8 8-8 8 3.582 8 8z" fill="#505050"/><path d="m5.967 2.272c.219-.206.682-.463 1.332.137.393.363.645.851.748 1.076.502.028.94.149 1.321.34.007.004.163.081.315.179.137.089.272.2.276.203 1.456 1.183 1.833 3.499 1.833 4.571 0 .308-.254.558-.566.558h-.283v1.394c0 .461-.381.837-.85.837h-.566v.837h-.566v-1.395h1.133c.156 0 .283-.125.283-.279v-1.952h.85c0-.037-.056-2.88-1.633-4.146-.003-.002-.146-.131-.31-.228-.157-.093-.336-.155-.341-.157-.323-.134-.693-.21-1.115-.21-.021 0-.194-.011-.215-.01-.035-.13-.07-.235-.11-.337l.008.023c-.088-.189-.298-.591-.607-.876-.348-.321-.467-.209-.538-.142-.07.066-.105.133-.108.206-.003.063.023.13.069.184 0 0 .174.198.349.411.075.068.242.29.391.531-.322.084-.945.4-1.169.678-.02-.019-.192-.184-.213-.205-.009-.009-.018-.019-.026-.03v-.001c-.175-.165-.587-.555-.691-.659-.034-.034-.19-.122-.337-.113-.075.004-.129.032-.175.089-.141.177-.039.318-.015.346l.71.71c.015.012.03.025.045.039.053.054.295.269.273.301-.253.38-.402.824-.453 1.279-.001.005-.023.16-.023.378 0 .146.035.355.036.36.102.577.428 1.059.769 1.563.441.651.897 1.325.897 2.247v1.395h-.566v-1.395c0-.752-.39-1.328-.802-1.937-.441-.652-.897-1.325-.897-2.247 0-.573.119-1.095.335-1.548l-.751-.751c-.164-.182-.378-.646-.012-1.104.141-.179.355-.296.596-.307h.002c.31-.017.627.129.781.283.177.171.368.354.561.536l.027.025c.077-.045.156-.088.237-.127l-.318-.368c-.145-.168-.22-.378-.211-.59.01-.225.11-.433.29-.603zm3.843 4.554c.312 0 .566.25.566.558s-.254.558-.566.558-.566-.25-.566-.558.254-.558.566-.558z" fill="#fff"/></svg>