<svg width="20px" height="20px" viewBox="0 0 20 20" version="1.1" xmlns="http://www.w3.org/2000/svg" xmlns:xlink="http://www.w3.org/1999/xlink">
    <path d="M14,2.84217094e-14 C17.3137085,2.84217094e-14 20,2.6862915 20,6 C20,9.3137085 17.3137085,12 14,12 C12.5130675,12 11.152466,11.4591123 10.1042161,10.5633575 L6.667,14 L7.8137085,15.1464466 C8.00897064,15.3417088 8.00897064,15.6582912 7.8137085,15.8535534 C7.61844635,16.0488155 7.30186386,16.0488155 7.10660172,15.8535534 L5.96,14.707 L4.667,16 L7.3137085,18.6464466 C7.50897064,18.8417088 7.50897064,19.1582912 7.3137085,19.3535534 C7.11844635,19.5488155 6.80186386,19.5488155 6.60660172,19.3535534 L3.96,16.707 L2.667,18 L3.8137085,19.1464466 C4.00897064,19.3417088 4.00897064,19.6582912 3.8137085,19.8535534 C3.61844635,20.0488155 3.30186386,20.0488155 3.10660172,19.8535534 L1.96,18.707 L0.853553391,19.8137085 C0.658291245,20.0089706 0.341708755,20.0089706 0.146446609,19.8137085 C-0.0488155365,19.6184464 -0.0488155365,19.3018639 0.146446609,19.1066017 L9.40026143,9.85280474 C8.52626286,8.81046986 8,7.46669257 8,6 C8,2.6862915 10.6862915,2.84217094e-14 14,2.84217094e-14 Z M14,1 C11.2385763,1 9,3.23857625 9,6 C9,8.76142375 11.2385763,11 14,11 C16.7614237,11 19,8.76142375 19,6 C19,3.23857625 16.7614237,1 14,1 Z"></path>
</svg>