<svg xmlns="http://www.w3.org/2000/svg" width="21" height="20" viewBox="0 0 21 20">
    <g fill-rule="evenodd">
        <path fill="#FFF" d="M0 0H740V440H0z" transform="translate(-660 -254)"/>
        <path fill-rule="nonzero" d="M668.429 254c4.653 0 8.428 3.776 8.428 8.429 0 2.028-.718 3.89-1.91 5.342l-.217.252 5.124 5.123c.195.196.195.512 0 .708-.174.173-.443.192-.638.057l-.07-.057-5.13-5.131-.11.11-.138.118c-1.453 1.192-3.31 1.906-5.34 1.906-4.656 0-8.428-3.775-8.428-8.428 0-4.653 3.772-8.429 8.429-8.429zm.073 1c-4.137 0-7.5 3.368-7.5 7.503 0 4.134 3.363 7.497 7.5 7.497 4.133 0 7.5-3.363 7.5-7.497 0-4.135-3.367-7.503-7.5-7.503z" transform="translate(-660 -254)"/>
    </g>
</svg>
