<svg height="20" viewBox="0 0 20 20" width="20" xmlns="http://www.w3.org/2000/svg"><path d="m5.986 17.296c-.472 0-.855-.383-.855-.855s.383-.855.855-.855.855.383.855.855-.383.855-.855.855zm-2.516-7.296h1.189c.315 0 .57.255.57.57 0 .158-.064.3-.167.404l-2.044 2.043c-.103.103-.246.167-.403.167s-.3-.064-.403-.167l-2.044-2.043c-.103-.103-.167-.246-.167-.404 0-.315.255-.57.57-.57h.001 1.189c0-5.037 4.083-9.12 9.12-9.12s9.12 4.083 9.12 9.12-4.083 9.12-9.12 9.12v-.002c-.445-.034-.793-.402-.793-.853s.348-.819.79-.853h.003v-.002c4.092 0 7.41-3.318 7.41-7.41s-3.318-7.41-7.41-7.41-7.41 3.318-7.41 7.41zm8.227-.797h4.283c.472 0 .855.383.855.855s-.383.855-.855.855h-5.13c-.002 0-.005 0-.008 0-.472 0-.855-.383-.855-.855v-.001-5.13c0-.472.383-.855.855-.855s.855.383.855.855z"/></svg>