<svg xmlns="http://www.w3.org/2000/svg" width="16" height="16" viewBox="0 0 16 16">
    <path d="M11 0c.552 0 1 .448 1 1v1h2.5c.276 0 .5.224.5.5s-.224.5-.5.5H14v12c0 .552-.448 1-1 1H3c-.552 0-1-.448-1-1V3h-.5c-.276 0-.5-.224-.5-.5s.224-.5.5-.5H4V1c0-.552.448-1 1-1h6zm2 3H3v12h10V3zM5.5 5c.276 0 .5.224.5.5v8c0 .276-.224.5-.5.5s-.5-.224-.5-.5v-8c0-.276.224-.5.5-.5zm5 0c.276 0 .5.224.5.5v8c0 .276-.224.5-.5.5s-.5-.224-.5-.5v-8c0-.276.224-.5.5-.5zM8 4c.276 0 .5.224.5.5v9c0 .276-.224.5-.5.5s-.5-.224-.5-.5v-9c0-.276.224-.5.5-.5zm3-3H5v1h6V1z"/>
</svg>
