<svg width="20px" height="20px" viewBox="0 0 20 20" xmlns="http://www.w3.org/2000/svg">
    <g stroke="none" stroke-width="1">
        <g transform="translate(-600.000000, -374.000000)">
            <g transform="translate(420.000000, 140.000000)">
                <path d="M180.146734,234.146221 C180.320485,233.972766 180.590036,233.953652 180.784901,234.088773 L180.854141,234.146672 L187.525,240.816 L194.052517,234.294332 C194.413234,233.934082 194.980483,233.90672 195.372441,234.212135 L195.466558,234.295421 L199.710116,238.544491 C200.070145,238.905306 200.097556,239.472449 199.792548,239.864683 L199.709371,239.958877 L193.186,246.476 L199.853717,253.142499 L199.911553,253.211784 C200.046482,253.406738 200.027016,253.67615 199.853266,253.849606 C199.679515,254.023061 199.409964,254.042174 199.215099,253.907054 L199.145859,253.849155 L192.478,247.183 L186.242542,253.414787 C185.909186,253.747873 185.470398,253.951197 185.004663,253.992267 L184.828902,254 L181,254 C180.487164,254 180.064493,253.61396 180.006728,253.116621 L180,253 L180,249.164702 C180,248.692956 180.166666,248.238403 180.467375,247.879757 L180.58636,247.749915 L186.817,241.523 L180.146283,234.853328 L180.088447,234.784043 C179.953518,234.589089 179.972984,234.319677 180.146734,234.146221 Z M187.524,242.23 L181.29318,248.457308 C181.136754,248.613608 181.037441,248.816378 181.008681,249.033189 L181,249.164702 L181,253 L184.828902,253 C185.049799,253 185.263164,252.926913 185.436665,252.794124 L185.535722,252.707393 L191.771,246.476 L187.524,242.23 Z M192.525,237.231919 L188.231,241.522 L192.478,245.769 L196.772,241.478919 L192.525,237.231919 Z M194.758,235.002 L193.232,236.524919 L197.479,240.771919 L199.002239,239.251795 L194.758,235.002 Z" id="Shape"></path>
            </g>
        </g>
    </g>
</svg>