<svg xmlns="http://www.w3.org/2000/svg" width="188" height="40" viewBox="0 0 188 40">
    <g fill-rule="evenodd">
        <path d="M54.02 12.5c1.04 0 2.048.184 3.026.553.978.369 1.757.882 2.338 1.539l-2.348 2.33c-.31-.428-.726-.753-1.244-.974-.52-.222-1.07-.331-1.65-.331-1.201 0-2.189.412-2.964 1.236-.777.824-1.165 1.867-1.165 3.126 0 1.287.379 2.337 1.133 3.149.756.81 1.734 1.215 2.936 1.215 1.335 0 2.347-.483 3.035-1.447l2.408 2.251c-1.363 1.57-3.217 2.353-5.565 2.353-2.226 0-4.068-.7-5.524-2.1-1.458-1.402-2.186-3.208-2.186-5.421 0-2.238.739-4.044 2.215-5.418 1.478-1.374 3.33-2.061 5.556-2.061zm41.257.02c.838 0 1.677.15 2.52.452.842.303 1.568.734 2.175 1.297l-2.207 2.313c-.282-.362-.663-.657-1.142-.885-.479-.227-.948-.342-1.407-.342-.54 0-1.008.11-1.406.332-.398.221-.597.586-.597 1.096 0 .228.047.426.141.593.095.168.253.315.476.442.223.127.442.235.658.322.216.086.527.19.93.311l.424.142c.329.11.6.205.811.28.296.109.678.286 1.143.534.466.248.827.505 1.083.774.256.268.486.627.688 1.075.203.45.303.942.303 1.479 0 1.542-.53 2.718-1.588 3.528-1.059.811-2.357 1.217-3.895 1.217-1.04 0-2.038-.18-2.995-.542-.958-.363-1.748-.866-2.368-1.509l2.267-2.292c.35.442.812.804 1.386 1.085.573.282 1.144.423 1.71.423.58 0 1.055-.124 1.426-.372s.557-.64.557-1.176c0-.215-.052-.406-.152-.574-.1-.167-.213-.307-.334-.422-.121-.113-.337-.238-.647-.372-.312-.134-.574-.237-.79-.312-.216-.072-.566-.19-1.052-.351-.526-.174-.978-.356-1.356-.543-.377-.188-.755-.435-1.133-.744-.378-.308-.668-.697-.87-1.166-.202-.47-.303-1.013-.303-1.63 0-.75.161-1.424.485-2.02.323-.596.755-1.066 1.296-1.408.539-.34 1.13-.599 1.77-.774.64-.174 1.306-.261 1.993-.261zm-8.517.362v2.916h-6.293v2.674h5.95v2.755h-5.95v2.956h6.657v2.935h-9.997V12.882h9.633zm36.987 0c.728 0 1.403.074 2.024.222.62.147 1.2.38 1.739.702.54.323.96.771 1.265 1.348.304.576.455 1.254.455 2.031 0 .938-.262 1.742-.789 2.413-.526.67-1.255 1.146-2.185 1.427L130 27.118h-4.047l-3.097-5.65h-1.173v5.65h-3.4V12.882h5.464zm-54.45 0l5.95 14.236h-3.845l-1.112-2.795h-5.545l-1.053 2.795H59.93l6.009-14.237h3.36zm41.156 0l5.948 14.236h-3.843l-1.114-2.795H105.9l-1.053 2.795h-3.764l6.01-14.237h3.36zm-42.895 3.8l-1.822 4.887h3.602l-1.78-4.887zm41.155 0l-1.822 4.887h3.602l-1.78-4.887zm14.79-1.025h-1.841v3.318h1.64l.213-.004c1.531-.048 2.295-.623 2.295-1.726 0-1.059-.768-1.588-2.307-1.588z"/>
        <path fill-rule="nonzero" d="M133.769 27.096c.31 0 .562-.106.755-.32.194-.212.291-.455.291-.726 0-.271-.097-.513-.29-.726-.194-.214-.446-.32-.756-.32s-.562.106-.756.32c-.194.213-.29.455-.29.726 0 .271.096.514.29.727.194.213.446.32.756.32zm7.416-.116V14.503h4.592v-1.24h-10.579v1.24h4.592V26.98h1.395zm15.922 0v-1.24h-7.343v-5.29h6.646v-1.22h-6.646v-4.727h7.11v-1.24h-8.505V26.98h8.738zm3.173 0l1.492-3.604h7.091l1.512 3.604h1.55l-5.89-13.717h-1.357L158.75 26.98h1.53zm8.06-4.882h-6.045l3.023-7.285 3.022 7.285zm7.533 4.882V15.064h.039l4.96 11.916h.736l4.96-11.916h.039V26.98h1.395V13.263h-2.132l-4.592 11.353h-.019l-4.65-11.353h-2.131V26.98h1.395z"/>
        <path d="M26.02 0s-.35 1.546-1.356 3.168C31.29 8.44 33 18.916 33 23.75c0 1.379-1.139 2.5-2.538 2.5h-1.27v6.25c0 2.068-1.708 3.75-3.807 3.75h-2.539V40h-2.538v-6.25h5.077c.7 0 1.269-.56 1.269-1.25v-8.75h3.808c0-.166-.252-13.005-7.397-18.643-1.975 1.774-4.027 1.768-4.027 1.768s-.004-1.637 1.308-3.383c-1.477-.63-3.172-.992-5.115-.992C7.2 2.5 3.232 7.767 2.622 13.434c.199-.26.428-.523.692-.783C5.365 10.631 8.25 10 8.25 10s-.641 2.84-2.692 4.861c-1.012.997-2.07 1.5-2.882 1.755.444 2.615 1.914 4.788 3.457 7.065 1.977 2.92 4.02 5.94 4.02 10.069V40H7.616v-6.25c0-3.371-1.745-5.951-3.594-8.681C2.043 22.149 0 19.129 0 15 0 6.169 6.264 0 15.23 0c2.75 0 5.096.61 7.09 1.645C24.13.414 26.02 0 26.02 0zm-1.905 15c1.4 0 2.539 1.121 2.539 2.5S25.515 20 24.115 20c-1.4 0-2.538-1.121-2.538-2.5s1.138-2.5 2.538-2.5zm-8.25-1.875s-1.938 2.119-4.658 2.859c-2.72.74-4.86-.359-4.86-.359s1.343-1.92 4.063-2.66c2.72-.74 5.455.16 5.455.16zM17.135 5s-.641 2.84-2.692 4.861c-2.051 2.02-4.29 2.014-4.29 2.014s-.005-2.204 2.046-4.224C14.249 5.631 17.135 5 17.135 5zm2.16 2.965c2.72-.74 5.455.16 5.455.16s-1.938 2.119-4.658 2.859c-2.72.74-4.861-.359-4.861-.359s1.344-1.92 4.064-2.66z"/>
    </g>
</svg>
