<svg xmlns="http://www.w3.org/2000/svg" width="14" height="14" viewBox="0 0 14 14">
    <path d="M9.501 3c.78 0 1.42.595 1.493 1.356L11 4.5 11 10h1.5c.246 0 .45-.177.492-.41L13 9.5v-8c0-.245-.177-.45-.41-.492L12.5 1H4.5c-.245 0-.45.177-.492.41L4 1.5V3h5.502zm0 1H1.5c-.246 0-.45.177-.492.41L1 4.5v8c0 .245.177.45.41.492L1.5 13H9.5c.245 0 .45-.177.492-.41L10 12.5 10 11l-.002-1 .003-5.5c0-.245-.177-.45-.41-.492L9.5 4zM2.999 1.5C3 .72 3.594.08 4.355.007L4.499 0H12.5c.78 0 1.42.595 1.493 1.356L14 1.5v8c0 .78-.595 1.42-1.355 1.493L12.5 11H11v1.5c0 .78-.594 1.42-1.355 1.493L9.501 14H1.5c-.78 0-1.42-.595-1.493-1.356L0 12.5v-8c0-.78.595-1.42 1.355-1.493L1.5 3H3V1.5z"/>
</svg>
