<svg xmlns="http://www.w3.org/2000/svg" width="20" height="20" viewBox="0 0 20 20">
    <path d="M7.494 4.003c.276 0 .5.224.5.5 0 .275-.224.499-.5.499H2.999c-1.053 0-1.916.815-1.992 1.849L1 7v10.003c0 1.054.815 1.916 1.849 1.993l.149.005h10.008c1.053 0 1.916-.815 1.992-1.849l.005-.149v-4.495c0-.275.224-.499.5-.499s.5.224.5.5v4.494c0 1.655-1.342 2.997-2.997 2.997H2.999C1.344 20 .002 18.658.002 17.003V7C.002 5.345 1.344 4.003 3 4.003h4.495zM18.508 1c.244-.001.446.174.487.405l.007.09-.022 4.974c-.001.274-.225.497-.499.499-.244 0-.446-.174-.487-.406l-.008-.089.018-3.772-7.909 7.908c-.195.195-.51.196-.703.003-.172-.172-.19-.44-.055-.634l.058-.07 7.909-7.907-3.774.015c-.243.001-.446-.174-.487-.405l-.007-.09c.001-.243.178-.447.41-.49l.089-.009L18.508 1z"/>
</svg>
