<svg xmlns="http://www.w3.org/2000/svg" width="16" height="16" viewBox="0 0 16 16">
    <path d="M5.725 0c.603 0 1.182.217 1.634.608l.146.137.628.636c.246.25.572.404.918.439l.15.007h2.605c1.325 0 2.41 1.114 2.494 2.425l.004.127.11.029c.815.234 1.436.927 1.564 1.782l.02.172.005.157v6.984c0 1.325-1.032 2.41-2.336 2.494l-.164.006H2.353c-1.325 0-2.275-1.032-2.348-2.336L0 13.503V2.5C0 1.175 1.032.09 2.336.005L2.5 0h3.225zm0 1H2.5c-.78 0-1.42.595-1.493 1.356L1 2.5v11.003c0 .78.465 1.42 1.21 1.493l.144.007h.506c.72 0 1.073-.8 1.135-1.375l.007-.125v-6.68c0-1.326 1.031-2.41 2.335-2.495l.165-.006h6.8c-.045-.744-.625-1.411-1.357-1.487l-.14-.008H9.202c-.602 0-1.182-.217-1.634-.608l-.146-.136-.628-.636c-.246-.25-.572-.405-.918-.44L5.725 1zm8.08 4.322H6.503c-.78 0-1.42.595-1.493 1.356l-.007.144v6.68c0 .483-.114 1.096-.535 1.5h9.036c.78 0 1.42-.594 1.493-1.355l.007-.144V6.519c0-.62-.471-1.13-1.075-1.19l-.122-.007zM9.938 7.471c.245 0 .45.177.492.41l.008.09-.001 1.624h1.625c.276 0 .5.224.5.5 0 .246-.177.45-.41.492l-.09.008h-1.625l.001 1.624c0 .277-.224.5-.5.5-.245 0-.45-.177-.492-.41l-.008-.09-.001-1.624H7.813c-.276 0-.5-.224-.5-.5 0-.245.177-.45.41-.492l.09-.008h1.623l.001-1.624c0-.276.224-.5.5-.5z"/>
</svg>
