<svg height="20" viewBox="0 0 20 20" width="20" xmlns="http://www.w3.org/2000/svg"><path d="m3.727 11.056c.297.304.475.489.541.555l2.443 2.438c.201.201.326.48.326.787 0 .615-.498 1.113-1.113 1.113-.307 0-.585-.125-.787-.326l-4.81-4.807c-.202-.198-.328-.473-.328-.778 0-.018 0-.037.001-.055v.003c-.001-.015-.001-.033-.001-.051 0-.305.125-.58.327-.778l4.809-4.807c.198-.185.465-.299.758-.299.614 0 1.112.498 1.112 1.112 0 .293-.114.56-.299.759l.001-.001-2.907 2.91h15.087c.614 0 1.112.498 1.112 1.112s-.498 1.112-1.112 1.112h-15.161z"/></svg>