<svg xmlns="http://www.w3.org/2000/svg" width="16" height="16" viewBox="0 0 16 16">
    <path d="M12.353 0C13.815 0 15 1.194 15 2.667c0 1.472-1.185 2.666-2.647 2.666-.763 0-1.451-.325-1.934-.846l-5.246 2.71c.079.254.122.523.122.803 0 .307-.052.603-.147.877l5.179 2.74c.485-.58 1.213-.95 2.026-.95 1.462 0 2.647 1.194 2.647 2.666C15 14.806 13.815 16 12.353 16c-1.462 0-2.647-1.194-2.647-2.667 0-.189.02-.373.057-.55L4.438 9.964c-.472.436-1.1.702-1.79.702C1.186 10.667 0 9.473 0 8L0 7.96c0-.578.171-1.085.472-1.477l.022-.034c.48-.676 1.266-1.116 2.154-1.116.678 0 1.296.257 1.764.68l5.356-2.768c-.04-.186-.062-.38-.062-.578C9.706 1.194 10.89 0 12.353 0z"/>
</svg>
