<svg width="20px" height="20px" viewBox="0 0 20 20" version="1.1" xmlns="http://www.w3.org/2000/svg" xmlns:xlink="http://www.w3.org/1999/xlink">
    <path d="M16,2 C18.209139,2 20,3.790861 20,6 L20,14 C20,16.209139 18.209139,18 16,18 L4,18 C1.790861,18 0,16.209139 0,14 L0,6 C0,3.790861 1.790861,2 4,2 L16,2 Z M16,3 L4,3 C2.34314575,3 1,4.34314575 1,6 L1,14 C1,15.6568542 2.34314575,17 4,17 L16,17 C17.6568542,17 19,15.6568542 19,14 L19,6 C19,4.34314575 17.6568542,3 16,3 Z M14.5,7 C14.7761424,7 15,7.22385763 15,7.5 C15,7.77614237 14.7761424,8 14.5,8 L3.5,8 C3.22385763,8 3,7.77614237 3,7.5 C3,7.22385763 3.22385763,7 3.5,7 L14.5,7 Z M14.5,10 C15.8807119,10 17,11.1192881 17,12.5 C17,13.8807119 15.8807119,15 14.5,15 C13.9367608,15 13.4170252,14.8137392 12.9990287,14.4994531 C12.5823569,14.8139606 12.0629043,15 11.5,15 C10.1192881,15 9,13.8807119 9,12.5 C9,11.1192881 10.1192881,10 11.5,10 C12.0629409,10 12.5824244,10.1860636 13.0003073,10.5000477 C13.4170252,10.1862608 13.9367608,10 14.5,10 Z M11.5,11 C10.6715729,11 10,11.6715729 10,12.5 C10,13.3284271 10.6715729,14 11.5,14 C11.8084636,14 12.0951803,13.9068909 12.3335786,13.7472443 C12.1209967,13.3796624 12,12.9539613 12,12.5 C12,12.0464571 12.1207738,11.6211224 12.3319149,11.2544023 C12.0950584,11.0930695 11.808398,11 11.5,11 Z M14.5,11 C13.6715729,11 13,11.6715729 13,12.5 C13,13.3284271 13.6715729,14 14.5,14 C15.3284271,14 16,13.3284271 16,12.5 C16,11.6715729 15.3284271,11 14.5,11 Z"></path>
</svg>