<svg height="20" viewBox="0 0 20 20" width="20" xmlns="http://www.w3.org/2000/svg"><path d="m10.286 20v-9.714h9.714v9.714zm-10.286-10.286v-9.714h9.714v9.714zm10.286 0v-9.714h9.714v9.714zm-10.286 10.286v-9.714h9.714v9.714zm14.857-2.559h.854v-4.87h-.854zm-9.677-10.285h.854v-1.103h.65v-.752h-.65v-3.015h-1.176l-2 3.081v.686h2.321v1.103zm10.634-2.506 1.709-2.365h-1.03l-1.248 1.788-1.256-1.788h-1.022l1.715 2.373-1.825 2.497h1.022l1.366-1.906 1.365 1.906h1.022zm-8.577 7.92h-1.03l-1.248 1.79-1.256-1.79h-1.022l1.716 2.373-1.826 2.497h1.023l1.365-1.905 1.365 1.905h1.022l-1.818-2.504z"/><path d="m3.697 5.301 1.482-2.249v2.25z"/></svg>