<svg xmlns="http://www.w3.org/2000/svg" width="14" height="14" viewBox="0 0 14 14">
    <path d="M3 9.5c0-.276.224-.5.5-.5s.5.224.5.5V12c0 .552.448 1 1 1h7c.552 0 1-.448 1-1V2c0-.552-.448-1-1-1H5c-.552 0-1 .448-1 1v2.5c0 .276-.224.5-.5.5S3 4.776 3 4.5V2c0-1.105.895-2 2-2h7c1.105 0 2 .895 2 2v10c0 1.105-.895 2-2 2H5c-1.105 0-2-.895-2-2V9.5zM0 6.988c0-.241.174-.442.403-.483l.089-.008h7.915L7.012 5.102c-.196-.195-.196-.512 0-.707.195-.195.512-.195.707 0l2.024 2.024c.312.312.312.819 0 1.131L7.719 9.574c-.195.195-.512.195-.707 0-.196-.195-.196-.512 0-.707L8.398 7.48H.492c-.242 0-.442-.174-.484-.403L0 6.988z"/>
</svg>
