<svg width="20px" height="20px" viewBox="0 0 20 20" version="1.1" xmlns="http://www.w3.org/2000/svg" xmlns:xlink="http://www.w3.org/1999/xlink">
    <path d="M13.6086957,0 C14.873812,0.00158318703 15.9088013,0.994343313 15.9942927,2.25127999 L16,2.41666667 L16,4.5215 C16,4.78576825 15.7857683,5 15.5215,5 C15.2866384,5 15.0913044,4.83076181 15.0507964,4.60758364 L15.0430886,4.52150001 L15.0430886,4.52150001 L15.0434783,2.41666667 C15.0434783,1.66301319 14.4744057,1.04357249 13.7468661,0.973304907 L13.6086957,0.966666667 L2.39130435,0.966666667 C1.64556028,0.966666667 1.03262045,1.54177481 0.963090312,2.27703075 L0.956521739,2.41666667 L0.956521739,17.5833333 C0.956521739,18.3369868 1.52559427,18.9564275 2.25313388,19.0266951 L2.39130435,19.0333333 L9.5165,19.0330212 C9.75384931,19.0330108 9.95125974,19.2040329 9.9922067,19.4295732 L10,19.5165 L10,19.5165 C10,19.7835297 9.78352968,20 9.5165,20 L2.39130435,20 C1.12618799,19.9984168 0.091198727,19.0056567 0.00570726053,17.74872 L6.30606678e-13,17.5833333 L6.30606678e-13,2.41666667 C0.00156657188,1.13813241 0.983907925,0.0921659863 2.22765336,0.00576779208 L2.39130435,0 L13.6086957,0 Z M4.93333333,16 C4.93333333,16.2669376 4.71693763,16.4833333 4.45,16.4833333 L3.48333333,16.4833333 C3.2163957,16.4833333 3,16.2669376 3,16 C3,15.7330624 3.2163957,15.5166667 3.48333333,15.5166667 L4.45,15.5166667 C4.71693763,15.5166667 4.93333333,15.7330624 4.93333333,16 Z M8.9,16 C8.9,16.2669376 8.6836043,16.4833333 8.41666667,16.4833333 L6.38333333,16.4833333 C6.1163957,16.4833333 5.9,16.2669376 5.9,16 C5.9,15.7330624 6.1163957,15.5166667 6.38333333,15.5166667 L8.41666667,15.5166667 C8.6836043,15.5166667 8.9,15.7330624 8.9,16 Z M16.6044414,11.5357028 C16.7691782,11.7057151 16.7897702,11.9682941 16.6662177,12.1615348 L16.6044414,12.239635 L14.360247,14.5556987 C14.2660491,14.6529133 14.1426259,14.7014558 14.0192027,14.7014558 C13.9266353,14.7014558 13.834068,14.6741507 13.75383,14.6194856 L13.6781584,14.5556987 L12.8204677,13.6705409 C12.6321972,13.4762411 12.6321972,13.1610379 12.8204677,12.9666087 C12.9879308,12.7937827 13.247859,12.7745798 13.4358699,12.909 L13.5026818,12.9666087 L14.0192027,13.499671 L15.9222274,11.5357028 C16.1106233,11.3411442 16.4160455,11.3411442 16.6044414,11.5357028 Z M5.9,12 C5.9,12.2669376 5.6836043,12.4833333 5.41666667,12.4833333 L3.48333333,12.4833333 C3.2163957,12.4833333 3,12.2669376 3,12 C3,11.7330624 3.2163957,11.5166667 3.48333333,11.5166667 L5.41666667,11.5166667 C5.6836043,11.5166667 5.9,11.7330624 5.9,12 Z M7.83333333,12 C7.83333333,12.2669376 7.61693763,12.4833333 7.35,12.4833333 C7.08306237,12.4833333 6.86666667,12.2669376 6.86666667,12 C6.86666667,11.7330624 7.08306237,11.5166667 7.35,11.5166667 C7.61693763,11.5166667 7.83333333,11.7330624 7.83333333,12 Z M4.93333333,8 C4.93333333,8.26693763 4.71693763,8.48333333 4.45,8.48333333 L3.48333333,8.48333333 C3.2163957,8.48333333 3,8.26693763 3,8 C3,7.73306237 3.2163957,7.51666667 3.48333333,7.51666667 L4.45,7.51666667 C4.71693763,7.51666667 4.93333333,7.73306237 4.93333333,8 Z M7.9,8 C7.9,8.26693763 7.6836043,8.48333333 7.41666667,8.48333333 L6.38333333,8.48333333 C6.1163957,8.48333333 5.9,8.26693763 5.9,8 C5.9,7.73306237 6.1163957,7.51666667 6.38333333,7.51666667 L7.41666667,7.51666667 C7.6836043,7.51666667 7.9,7.73306237 7.9,8 Z M4.93333333,4 C4.93333333,4.26693763 4.71693763,4.48333333 4.45,4.48333333 L3.48333333,4.48333333 C3.2163957,4.48333333 3,4.26693763 3,4 C3,3.73306237 3.2163957,3.51666667 3.48333333,3.51666667 L4.45,3.51666667 C4.71693763,3.51666667 4.93333333,3.73306237 4.93333333,4 Z M14.9851938,6.16269927 L15.0702038,6.2354795 C16.0518797,7.22296267 17.2007983,7.72275587 18.6859761,7.80829233 C19.3983095,7.84938237 19.9644904,8.45739291 19.9750355,9.19243678 L19.9816567,9.4758782 L19.9870588,9.61706777 L19.9968586,10.2211334 C20.0143315,11.6673902 19.9724978,14.0181413 19.4187098,15.5676248 C19.0717084,16.538733 18.5466236,17.3829096 17.8581397,18.0768634 C17.0743561,18.8668296 16.0479377,19.4943681 14.8074643,19.9420868 C14.7668609,19.9567327 14.7245822,19.9686326 14.6818106,19.9774812 C14.6215954,19.9898896 14.5607888,19.9960938 14.5000808,19.9960938 C14.4393728,19.9960938 14.3786648,19.9898896 14.318351,19.9774812 C14.2755795,19.9686326 14.2335964,19.9568345 14.1931901,19.9422902 C12.9512385,19.4953852 11.9237359,18.8681518 11.1392625,18.0780839 C10.4504829,17.3843335 9.92539817,16.5403603 9.57869242,15.5694556 C9.06375522,14.1275901 8.99327532,11.9866463 9.00046807,10.5339701 L9.01349702,9.60669354 L9.02512616,9.19253848 C9.0356712,8.45739291 9.60195068,7.84938237 10.3141856,7.80839403 C11.712,7.72779341 12.8119515,7.2803288 13.7549504,6.40469368 L13.9383347,6.22724113 C14.2339906,5.94755974 14.6682862,5.92604579 14.9851938,6.16269927 Z M14.501,7.073 L14.4353987,7.13748977 C13.3186072,8.17450254 11.997789,8.71297533 10.3716394,8.8067422 C10.1891501,8.81724426 10.0281323,8.99013575 10.0250213,9.20701893 L10.0133586,9.62332913 L10.0029903,10.2459075 C9.97712855,12.368211 10.1163669,14.1016979 10.5204484,15.2331587 C10.8183887,16.0675019 11.2649873,16.7853902 11.8488771,17.373494 C12.4563091,17.9852578 13.246178,18.4915166 14.2057449,18.8772825 L14.499,18.989 L14.7937241,18.8771624 C15.6457086,18.5337328 16.3638639,18.0953546 16.9392013,17.572549 L17.1482407,17.37256 C17.7320309,16.7841316 18.1787475,16.0658794 18.4770451,15.2310723 C18.8574309,14.1667634 19.0041053,12.5744045 18.9998328,10.6307226 L18.9969901,10.2373542 L18.98779,9.65530115 L18.9819295,9.49923192 L18.9751384,9.20678147 C18.9720293,8.99006496 18.8110144,8.81716733 18.6284779,8.80663795 C17.0096437,8.71340375 15.6937706,8.17919264 14.629391,7.19743444 L14.501,7.073 Z M10.2499997,3.51666667 C10.5169373,3.51666667 10.733333,3.73306237 10.733333,4 C10.733333,4.26693763 10.5169373,4.48333333 10.2499997,4.48333333 L6.38333333,4.48333333 C6.1163957,4.48333333 5.9,4.26693763 5.9,4 C5.9,3.73306237 6.1163957,3.51666667 6.38333333,3.51666667 L10.2499997,3.51666667 Z"></path>
</svg>