<svg height="60" viewBox="0 0 60 60" width="60" xmlns="http://www.w3.org/2000/svg" xmlns:xlink="http://www.w3.org/1999/xlink"><defs><circle id="a" cx="30" cy="30" r="30"/><path id="b" d="m24.143.35a2.421 2.421 0 0 1 2.42 2.421v5.737h3.94v2.039h-2.97c1.604 3.784 2.115 7.849 2.115 10.228 0 1.119-.924 2.028-2.06 2.028h-1.028v5.07c0 1.677-1.386 3.041-3.088 3.041h-2.06v3.042h-2.058v-5.07h4.118c.568 0 1.03-.454 1.03-1.013v-7.098h3.088c0-.096-.106-5.498-2.314-10.228h-19.909c-.166.588-.284 1.19-.353 1.799 0 .01-.106.627-.096 1.26.01.689.136 1.399.136 1.402.365 2.113 1.554 3.87 2.801 5.712 1.604 2.368 3.262 4.818 3.262 8.167v5.07h-2.06v-5.07c0-2.735-1.415-4.828-2.915-7.042-1.604-2.368-3.261-4.818-3.261-8.167 0-1.098.12-2.145.348-3.131h-3.224v-2.04h3.893v-5.735a2.421 2.421 0 0 1 2.422-2.422zm-1.703 13.328c1.136 0 2.06.91 2.06 2.028s-.924 2.028-2.06 2.028c-1.135 0-2.059-.91-2.059-2.028 0-1.119.924-2.028 2.06-2.028zm2.083-7.21h-18.585v2.04h18.586v-2.04zm0-4.079h-18.585v2.04h18.586v-2.04z"/><mask id="c" fill="#fff"><use fill="#fff" fill-rule="evenodd" xlink:href="#a"/></mask><mask id="d" fill="#fff"><use fill="#fff" fill-rule="evenodd" xlink:href="#b"/></mask></defs><g fill="none" fill-rule="evenodd"><use fill="#505050" xlink:href="#a"/><g mask="url(#c)"><g transform="translate(14 13)"><use fill="#000" xlink:href="#b"/><g fill="#fff" fill-rule="nonzero" mask="url(#d)"><path d="m-5-6h40v40h-40z"/></g></g></g></g></svg>