<svg xmlns="http://www.w3.org/2000/svg" width="16" height="16" viewBox="0 0 16 16">
    <path d="M8.5 12c.276 0 .5.224.5.5s-.224.5-.5.5h-5c-.276 0-.5-.224-.5-.5s.224-.5.5-.5h5zm-8 0c.276 0 .5.224.5.5s-.224.5-.5.5-.5-.224-.5-.5.224-.5.5-.5zm8-3c.276 0 .5.224.5.5s-.224.5-.5.5h-5c-.276 0-.5-.224-.5-.5s.224-.5.5-.5h5zm-8 0c.276 0 .5.224.5.5s-.224.5-.5.5-.5-.224-.5-.5.224-.5.5-.5zm11-3c.276 0 .5.224.5.5s-.224.5-.5.5h-8c-.276 0-.5-.224-.5-.5s.224-.5.5-.5h8zM.5 6c.276 0 .5.224.5.5S.776 7 .5 7 0 6.776 0 6.5.224 6 .5 6zm15-3c.276 0 .5.224.5.5s-.224.5-.5.5H.5C.224 4 0 3.776 0 3.5S.224 3 .5 3h15z"/>
</svg>
