<svg xmlns="http://www.w3.org/2000/svg" width="16" height="16" viewBox="0 0 16 16">
  <path d="M13.5 2c1.325 0 2.41 1.032 2.495 2.336L16 4.5v7c0 1.325-1.032 2.41-2.336 2.495L13.5 14h-1.854l1.211 1.186c.167.163.188.415.063.6l-.063.074c-.095.094-.22.14-.344.14-.094 0-.187-.026-.268-.079l-.076-.06-1.998-1.957c-.203-.199-.225-.507-.068-.73l.068-.08 1.996-1.954c.19-.187.499-.187.689 0 .166.163.187.414.062.6l-.062.074L11.644 13H13.5c.78 0 1.42-.595 1.493-1.356L15 11.5v-7c0-.78-.595-1.42-1.356-1.493L13.5 3H11c-.276 0-.5-.224-.5-.5 0-.245.177-.45.41-.492L11 2h2.5zM8.556 13c.245 0 .444.224.444.5s-.199.5-.444.5H.444C.2 14 0 13.776 0 13.5s.199-.5.444-.5h8.112zm0-5.5C8.8 7.5 9 7.724 9 8s-.199.5-.444.5H.444C.2 8.5 0 8.276 0 8s.199-.5.444-.5h8.112zm0-5.5C8.8 2 9 2.224 9 2.5s-.199.5-.444.5H.444C.2 3 0 2.776 0 2.5S.199 2 .444 2h8.112z" transform="translate(-921 -5469) translate(100 5349) translate(720 56) translate(0 48) translate(85 8) translate(16 8)"/>
</svg>
