<svg xmlns="http://www.w3.org/2000/svg" width="20" height="20" viewBox="0 0 20 20">
    <path d="M10 4c4.018 0 7.564 2.582 9.903 5.698.042.056.071.119.087.183l.011.074.002.043c0 .033-.003.067-.01.1-.013.072-.043.142-.09.205-2.339 3.116-5.885 5.7-9.902 5.7-4.018 0-7.568-2.584-9.9-5.7-.058-.08-.09-.17-.098-.26v-.085c.007-.09.04-.18.098-.26C2.433 6.583 5.983 4 10.001 4zm0 1c-4.017 0-6.776 2.318-8.87 5 2.094 2.683 4.853 5.002 8.87 5.002 4.018 0 6.774-2.319 8.875-5C16.774 7.317 14.018 4.998 10 4.998zm.003 2c1.657 0 3.001 1.343 3.001 3s-1.344 3-3 3c-1.658 0-3.002-1.343-3.002-3s1.344-3 3.001-3zm0 1c-1.105 0-2 .895-2 2s.895 2 2 2 2-.895 2-2-.895-2-2-2z"/>
</svg>
