<svg height="20" viewBox="0 0 20 20" width="20" xmlns="http://www.w3.org/2000/svg"><path d="m16.508 4.1h-.511v-1.144c0-.002 0-.004 0-.006 0-1.625-1.313-2.942-2.936-2.95h-6.166c-1.623.008-2.937 1.325-2.937 2.95v.006 1.144h-.466c-1.623.008-2.937 1.325-2.937 2.95v.006 4.767.006c0 1.625 1.313 2.942 2.936 2.95h.462v3.747c0 .812.659 1.476 1.467 1.476h9.107c.807 0 1.467-.663 1.467-1.476v-3.748h.514c1.623-.008 2.937-1.325 2.937-2.95 0-.002 0-.004 0-.006v-4.766c0-.002 0-.004 0-.006 0-1.625-1.313-2.942-2.936-2.95zm-11.442-1.144c0-1.011.82-1.837 1.824-1.837h6.162c1.009.005 1.824.824 1.824 1.833v.004 1.144h-9.811v-1.144zm9.815 15.577c0 .194-.161.356-.356.356h-9.104c-.195-.002-.353-.16-.354-.355v-6.181h9.816v6.18zm3.451-6.707v.003c0 1.009-.816 1.828-1.824 1.833h-.512v-1.31h.733c.307 0 .556-.249.556-.556 0-.002 0-.003 0-.005 0-.001 0-.002 0-.003 0-.307-.249-.556-.556-.556h-13.592c-.307 0-.556.249-.556.556v.004.004c0 .307.249.556.556.556h.82v1.31h-.466c-1.009-.005-1.824-.824-1.824-1.833 0-.001 0-.002 0-.004v-4.767c0-1.011.82-1.836 1.824-1.836h13.016c1.009.005 1.824.824 1.824 1.833v.002 4.767z"/><path d="m6.444 15.089c-.309 0-.559-.25-.559-.559s.25-.559.559-.559h7.118c.311 0 .559.249.559.559 0 .311-.249.559-.559.559h-7.119zm7.164 1.168c.306.001.554.249.554.556v.004c0 .311-.249.559-.559.559h-7.118c-.001 0-.001 0-.002 0-.307 0-.557-.249-.557-.557 0-.001 0-.002 0-.002 0-.311.248-.559.559-.559h7.122zm2.972-9.967c.311 0 .559.248.559.559s-.248.559-.559.559h-1.133c-.001 0-.002 0-.003 0-.307 0-.557-.249-.557-.557 0-.001 0-.002 0-.002 0-.311.249-.559.559-.559z"/></svg>