<svg xmlns="http://www.w3.org/2000/svg" width="20" height="20" viewBox="0 0 20 20">
    <path d="M.147.146C.32-.027.59-.046.785.09l.07.058 6.67 6.669L14.053.294c.36-.36.927-.387 1.32-.082l.094.083 4.243 4.25c.36.36.388.927.083 1.32l-.084.094-6.523 6.517 6.668 6.666.058.07c.134.195.115.464-.059.638-.173.173-.443.192-.638.057l-.07-.058-6.667-6.666-6.235 6.232c-.334.333-.773.536-1.238.577L4.829 20H1c-.513 0-.936-.386-.993-.883L0 19v-3.835c0-.472.167-.927.467-1.285l.12-.13 6.23-6.227L.147.853.087.784C-.046.589-.027.32.147.146zM7.524 8.23l-6.23 6.227c-.157.157-.257.36-.285.576L1 15.165V19h3.829c.22 0 .434-.073.608-.206l.099-.087 6.235-6.231L7.524 8.23zm5.001-4.998l-4.294 4.29 4.247 4.247 4.294-4.29-4.247-4.247zm2.233-2.23l-1.526 1.523 4.247 4.247 1.523-1.52-4.244-4.25z"/>
</svg>
