<svg height="20" viewBox="0 0 20 20" width="20" xmlns="http://www.w3.org/2000/svg"><path d="m19.966 7.64c.022.063.034.137.034.213 0 .195-.083.371-.215.494l-4.395 4.226 1.06 6.075c.012.048.019.103.019.159 0 .381-.309.69-.69.69-.113 0-.22-.027-.314-.075l.004.002-5.377-2.877-5.49 2.91c-.094.052-.205.082-.324.082-.151 0-.29-.049-.403-.132l.002.001c-.174-.125-.286-.327-.286-.555 0-.042.004-.084.011-.124l-.001.004 1.073-6.002-4.46-4.326c-.131-.124-.213-.3-.213-.495 0-.075.012-.147.034-.214l-.001.005c.082-.246.293-.428.55-.468h.004l6.046-.837 2.732-5.58c.114-.231.347-.387.617-.387.268 0 .5.153.613.377l.002.004 2.662 5.49 6.155.874c.259.04.471.22.553.467zm-2.124.701-5.062-.72c-.228-.036-.416-.177-.515-.372l-.002-.004-2.276-4.577-2.246 4.586c-.099.2-.287.343-.51.378h-.004l-5.057.751 3.664 3.557c.161.157.234.381.199.606l-.847 5.042 4.519-2.394c.092-.048.201-.077.317-.077.117 0 .227.029.324.08l-.004-.002 4.532 2.366-.877-5.032c-.007-.038-.012-.081-.012-.126 0-.191.078-.363.205-.487l3.654-3.574z"/></svg>