<svg height="32" viewBox="0 0 32 32" width="32" xmlns="http://www.w3.org/2000/svg"><path d="m56.386 20.392c-1.158 1.339-2.735 2.008-4.73 2.008-1.893 0-3.459-.598-4.697-1.792-1.239-1.197-1.858-2.738-1.858-4.626 0-1.91.628-3.451 1.883-4.624 1.256-1.171 2.83-1.758 4.723-1.758.883 0 1.74.157 2.572.472s1.494.752 1.987 1.313l-1.996 1.99c-.268-.366-.626-.651-1.041-.826l-.016-.006c-.407-.179-.882-.282-1.381-.282-.007 0-.015 0-.022 0h.001c-1.022 0-1.861.351-2.52 1.054s-.99 1.594-.99 2.668c0 1.098.322 1.994.963 2.686.642.691 1.474 1.038 2.496 1.038 1.135 0 1.995-.412 2.58-1.235zm13.366 1.681h-3.268l-.946-2.384h-4.713l-.896 2.384h-3.199l5.109-12.148h2.856l5.058 12.148zm10.095 0h-8.497v-12.147h8.189v2.488h-5.349v2.282h5.057v2.351h-5.057v2.522h5.659v2.504zm10.923-10.964-1.875 1.974c-.24-.309-.564-.56-.972-.755-.406-.194-.805-.292-1.195-.292-.459 0-.858.094-1.196.283s-.507.501-.507.936c0 .194.04.362.12.506s.215.269.404.377c.19.109.376.201.56.275s.448.162.791.266c.447.149.798.27 1.05.36.252.093.576.244.971.456s.703.43.922.66c.217.229.412.535.584.918.173.384.258.804.258 1.262 0 1.316-.45 2.32-1.35 3.01-.9.693-2.004 1.038-3.312 1.038-.007 0-.014 0-.022 0-.907 0-1.774-.17-2.572-.479l.049.017c-.814-.309-1.486-.738-2.014-1.287l1.927-1.956c.298.378.691.686 1.178.926s.973.361 1.454.361c.493 0 .898-.106 1.213-.317s.473-.547.473-1.004c0-.184-.043-.346-.128-.49-.082-.137-.176-.255-.284-.36h-.001c-.104-.096-.287-.203-.551-.318-.151-.07-.373-.16-.598-.243l-.073-.023c-.183-.062-.481-.162-.894-.299-.447-.149-.832-.304-1.153-.464s-.642-.37-.962-.634c-.319-.264-.571-.597-.734-.978l-.006-.017c-.172-.4-.258-.864-.258-1.39 0-.64.138-1.215.413-1.724.263-.495.637-.9 1.089-1.193l.012-.008c.458-.291.96-.512 1.505-.661.499-.142 1.072-.224 1.664-.224.78 0 1.526.142 2.215.401l-.043-.014c.717.258 1.334.626 1.85 1.106zm13.968 10.964h-3.268l-.946-2.384h-4.713l-.894 2.384h-3.2l5.109-12.148h2.856zm11.56 0h-3.441l-2.633-4.821h-.998v4.822h-2.89v-12.148h4.645c.618 0 1.192.064 1.72.19.56.134 1.053.341 1.502.613l-.023-.013c.459.278.826.669 1.068 1.134l.007.016c.258.491.387 1.07.387 1.733 0 .801-.223 1.487-.67 2.059s-1.067.978-1.858 1.218l3.183 5.2zm-51.569-4.735-1.514-4.17-1.548 4.17zm34.986 0-1.514-4.17-1.549 4.17zm13.021-3.689c0-.904-.652-1.355-1.96-1.355h-1.566v2.832h1.394c1.422 0 2.132-.493 2.132-1.477zm-91.582-9.563c-1.581 1.419-3.222 1.414-3.222 1.414s-.003-1.31 1.048-2.708c-1.184-.502-2.54-.792-4.093-.792-6.425 0-9.598 4.213-10.087 8.745.16-.208.344-.418.554-.624 1.641-1.617 3.949-2.122 3.949-2.122s-.513 2.272-2.154 3.889c-.628.628-1.402 1.11-2.266 1.393l-.04.011c.356 2.092 1.532 3.83 2.766 5.652 1.582 2.336 3.216 4.752 3.216 8.055v5h-2.03v-5c0-2.697-1.396-4.761-2.875-6.945-1.583-2.336-3.217-4.752-3.217-8.055 0-7.065 5.011-12 12.184-12 2.2 0 4.076.488 5.672 1.315 1.446-.984 2.96-1.315 2.96-1.315s-.28 1.237-1.085 2.534c5.301 4.218 6.669 12.598 6.669 16.465 0 1.103-.911 2-2.03 2h-1.016v5c0 1.654-1.366 3-3.046 3h-2.031v3h-2.03v-5h4.061c.56 0 1.015-.448 1.015-1v-7h3.046c0-.133-.202-10.403-5.917-14.914zm2.87 9.914c0 1.103-.911 2-2.031 2s-2.03-.897-2.03-2 .91-2 2.03-2 2.031.897 2.031 2zm-7.616-10s-.512 2.272-2.153 3.889c-1.641 1.616-3.432 1.611-3.432 1.611s-.004-1.763 1.637-3.379c1.64-1.616 3.949-2.121 3.949-2.121zm1.728 2.372c2.176-.592 4.365.128 4.365.128s-1.55 1.695-3.726 2.287-3.889-.287-3.889-.287 1.075-1.536 3.251-2.128zm-2.743 4.128s-1.55 1.695-3.726 2.287-3.888-.287-3.888-.287 1.074-1.536 3.25-2.128 4.364.128 4.364.128z"/></svg>