<svg xmlns="http://www.w3.org/2000/svg" width="16" height="16" viewBox="0 0 16 16">
    <path d="M10.501 4c.78 0 1.42.595 1.493 1.356L12 5.5 12 11h1.5c.246 0 .45-.177.492-.41L14 10.5v-8c0-.245-.177-.45-.41-.492L13.5 2H5.5c-.245 0-.45.177-.492.41L5 2.5V4h5.502zm0 1H2.5c-.246 0-.45.177-.492.41L2 5.5v8c0 .245.177.45.41.492L2.5 14H10.5c.245 0 .45-.177.492-.41L11 13.5 11 12l-.002-1 .003-5.5c0-.245-.177-.45-.41-.492L10.5 5zM3.999 2.5c0-.78.595-1.42 1.356-1.493L5.499 1H13.5c.78 0 1.42.595 1.493 1.356L15 2.5v8c0 .78-.595 1.42-1.355 1.493L13.5 12H12v1.5c0 .78-.594 1.42-1.355 1.493l-.144.007H2.5c-.78 0-1.42-.595-1.493-1.356L1 13.5v-8c0-.78.595-1.42 1.355-1.493L2.5 4H4V2.5z"/>
</svg>
