<svg height="20" viewBox="0 0 20 20" width="20" xmlns="http://www.w3.org/2000/svg"><path d="m9.269 8.92c.13-.126.211-.303.211-.499s-.081-.372-.211-.498c-.132-.128-.313-.206-.511-.206s-.379.079-.512.206l-3.829 3.733c-.619.593-1.004 1.427-1.004 2.35v.008c0 .894.353 1.72 1.006 2.357 1.34 1.307 3.509 1.307 4.832 0l8.643-8.43c.9-.877 1.393-2.047 1.393-3.286s-.494-2.409-1.393-3.286c-.873-.846-2.064-1.368-3.378-1.368s-2.505.522-3.379 1.369l.001-.001-8.623 8.41c-1.11 1.068-1.8 2.567-1.8 4.226v.01-.001c0 1.6.634 3.114 1.8 4.233 1.11 1.084 2.629 1.753 4.305 1.753h.033-.002.045c1.672 0 3.188-.67 4.294-1.755l-.001.001 3.829-3.734c.13-.126.211-.303.211-.499s-.081-.372-.211-.498c-.132-.128-.313-.207-.512-.207s-.38.079-.512.207l-3.827 3.733c-.851.831-2.017 1.343-3.302 1.343-.004 0-.009 0-.013 0h.001c-.005 0-.01 0-.016 0-1.285 0-2.45-.512-3.303-1.344l.001.001c-.848-.819-1.374-1.965-1.376-3.234 0-1.221.494-2.374 1.376-3.234l8.624-8.414c.598-.583 1.417-.943 2.319-.943h.03-.002c.883 0 1.729.343 2.346.946.636.619.971 1.429.971 2.289s-.354 1.686-.971 2.287l-8.643 8.43c-.757.74-2.009.74-2.786 0-.357-.343-.58-.825-.581-1.358 0-.516.211-.997.581-1.359l3.846-3.734z"/></svg>