<svg width="170px" height="32px" viewBox="0 0 170 32" version="1.1" xmlns="http://www.w3.org/2000/svg" xmlns:xlink="http://www.w3.org/1999/xlink">
    <g stroke="none" stroke-width="1" fill-rule="evenodd">
        <g transform="translate(-104.000000, -92.000000)">
            <g transform="translate(80.000000, 80.000000)">
                <g transform="translate(24.000000, 12.000000)">
                    <path d="M43.2166219,10 C44.0481215,10 44.8542595,10.147 45.6368473,10.4422 C46.4194352,10.7374 47.042607,11.1478 47.5069666,11.6734 L45.6289973,13.5382 C45.3802116,13.1956 45.0480949,12.9352 44.6332509,12.7588 C44.2171991,12.5812 43.7782012,12.4936 43.3138415,12.4936 C42.3525145,12.4936 41.5626804,12.823 40.9425279,13.4824 C40.3211676,14.1418 40.0107894,14.9764 40.0107894,15.9832 C40.0107894,17.0128 40.3133176,17.8528 40.9171662,18.502 C41.5216187,19.15 42.3042066,19.4746 43.2655337,19.4746 C44.3337419,19.4746 45.1428991,19.0882 45.6936091,18.3166 L47.6198863,20.1178 C46.5299395,21.373 45.0462833,22 43.168314,22 C41.3875643,22 39.9135698,21.4396 38.7487457,20.3194 C37.582714,19.1986 37,17.7532 37,15.9832 C37,14.1928 37.5911678,12.748 38.7722958,11.6488 C39.9546315,10.5496 41.4358722,10 43.2166219,10 Z M76.2213425,10.01566 C76.8916145,10.01566 77.5630942,10.13626 78.2369893,10.37746 C78.9114882,10.61986 79.4917868,10.96486 79.9772811,11.41486 L78.2122315,13.26526 C77.9863921,12.97606 77.6814485,12.74026 77.2980046,12.55726 C76.9151646,12.37606 76.5401746,12.28366 76.1730346,12.28366 C75.7412828,12.28366 75.3662928,12.37246 75.0480645,12.54946 C74.7298363,12.72646 74.5704203,13.01866 74.5704203,13.42666 C74.5704203,13.60846 74.6078589,13.76686 74.68334,13.90066 C74.758821,14.03506 74.8856293,14.15266 75.0637646,14.25406 C75.2425038,14.35606 75.4176199,14.44246 75.5903206,14.51206 C75.7630214,14.58106 76.011807,14.66446 76.334866,14.76106 C76.7557485,14.90086 77.0854499,15.01366 77.3227624,15.09886 C77.5594711,15.18526 77.8644147,15.32746 78.2369893,15.52546 C78.6095639,15.72406 78.8982036,15.92986 79.1035121,16.14466 C79.3082168,16.35946 79.4917868,16.64626 79.6536182,17.00506 C79.8160535,17.36506 79.8963654,17.75866 79.8963654,18.18766 C79.8963654,19.42126 79.4724636,20.36206 78.6258678,21.01006 C77.7786682,21.65926 76.7400485,21.98386 75.5094049,21.98386 C74.6779053,21.98386 73.8790135,21.83926 73.1139373,21.55006 C72.3470495,21.26026 71.7154238,20.85766 71.2190602,20.34346 L73.0324177,18.50926 C73.3126035,18.86326 73.6827627,19.15246 74.1416877,19.37746 C74.6000088,19.60306 75.0565184,19.71586 75.5094049,19.71586 C75.9731607,19.71586 76.3535853,19.61686 76.6506789,19.41826 C76.9471686,19.21966 77.0957153,18.90586 77.0957153,18.47746 C77.0957153,18.30526 77.0546536,18.15286 76.9743418,18.01846 C76.8940299,17.88466 76.8040564,17.77246 76.7074407,17.68066 C76.610221,17.59006 76.4375203,17.49046 76.1893385,17.38306 C75.939949,17.27626 75.7304135,17.19346 75.5577128,17.13346 C75.3850121,17.07586 75.1048263,16.98106 74.7159478,16.85266 C74.2950653,16.71346 73.9333599,16.56826 73.6308318,16.41826 C73.3295113,16.26826 73.0269831,16.07026 72.7250588,15.82306 C72.4225306,15.57646 72.1900489,15.26566 72.0288213,14.89006 C71.8669898,14.51506 71.7860741,14.08006 71.7860741,13.58686 C71.7860741,12.98626 71.9152977,12.44746 72.1743488,11.97046 C72.432796,11.49346 72.7781974,11.11786 73.2111569,10.84426 C73.6423049,10.57126 74.1145145,10.36486 74.627182,10.22506 C75.1398495,10.08526 75.6718402,10.01566 76.2213425,10.01566 Z M55.4379697,10.3051 L60.1981087,21.6943 L57.1214998,21.6943 L56.2320307,19.4587 L51.7961585,19.4587 L50.9537896,21.6943 L47.9430002,21.6943 L52.7502394,10.3051 L55.4379697,10.3051 Z M69.4077613,10.30534 L69.4077613,12.63814 L64.3734751,12.63814 L64.3734751,14.77774 L69.1330102,14.77774 L69.1330102,16.98154 L64.3734751,16.98154 L64.3734751,19.34614 L69.6988164,19.34614 L69.6988164,21.69454 L61.7014448,21.69454 L61.7014448,10.30534 L69.4077613,10.30534 Z M88.3626803,10.3051 L93.1210078,21.6943 L90.0462104,21.6943 L89.1555336,19.4587 L84.7196614,19.4587 L83.8778964,21.6943 L80.8665031,21.6943 L85.67495,10.3051 L88.3626803,10.3051 Z M98.9977177,10.30528 C99.5798278,10.30528 100.119669,10.36468 100.616636,10.48288 C101.112396,10.60048 101.576151,10.78768 102.007903,11.04508 C102.440259,11.30308 102.776603,11.66188 103.019954,12.12328 C103.263305,12.58408 103.384074,13.12648 103.384074,13.74808 C103.384074,14.49868 103.174539,15.14188 102.753053,15.67828 C102.33217,16.21468 101.748852,16.59508 101.004911,16.82008 L104,21.69448 L100.762164,21.69448 L98.2845725,17.17408 L97.3461917,17.17408 L97.3461917,21.69448 L94.6258535,21.69448 L94.6258535,10.30528 L98.9977177,10.30528 Z M54.0460986,13.3453 L52.5890118,17.2549 L55.4705775,17.2549 L54.0460986,13.3453 Z M86.9702053,13.3453 L85.5125147,17.2549 L88.3940805,17.2549 L86.9702053,13.3453 Z M98.8026746,12.52528 L97.3292839,12.52528 L97.3292839,15.17968 L98.641447,15.17968 L98.8472511,15.1758457 C100.04863,15.1298351 100.648036,14.6697432 100.648036,13.79608 C100.648036,12.94888 100.033922,12.52528 98.8026746,12.52528 L98.8026746,12.52528 Z"></path>
                    <path d="M107.015,21.6770766 C107.263,21.6770766 107.4645,21.5918266 107.6195,21.4213266 C107.7745,21.2508266 107.852,21.0570766 107.852,20.8400766 C107.852,20.6230766 107.7745,20.4293266 107.6195,20.2588266 C107.4645,20.0883266 107.263,20.0030766 107.015,20.0030766 C106.767,20.0030766 106.5655,20.0883266 106.4105,20.2588266 C106.2555,20.4293266 106.178,20.6230766 106.178,20.8400766 C106.178,21.0570766 106.2555,21.2508266 106.4105,21.4213266 C106.5655,21.5918266 106.767,21.6770766 107.015,21.6770766 Z M113.692056,21.8630766 C114.126056,21.8630766 114.557472,21.8010766 114.986306,21.6770766 C115.415139,21.5530766 115.797472,21.3619099 116.133306,21.1035766 C116.469139,20.8452432 116.742972,20.5171599 116.954806,20.1193266 C117.166639,19.7214932 117.272556,19.2487432 117.272556,18.7010766 C117.272556,18.1534099 117.174389,17.7013266 116.978056,17.3448266 C116.781722,16.9883266 116.528556,16.6938266 116.218556,16.4613266 C115.908556,16.2288266 115.559806,16.0402432 115.172306,15.8955766 C114.784806,15.7509099 114.399889,15.6165766 114.017556,15.4925766 C113.707556,15.3892432 113.410472,15.2859099 113.126306,15.1825766 C112.842139,15.0792432 112.588972,14.9474932 112.366806,14.7873266 C112.144639,14.6271599 111.966389,14.4334099 111.832056,14.2060766 C111.697722,13.9787432 111.630556,13.6894099 111.630556,13.3380766 C111.630556,12.9867432 111.700306,12.6819099 111.839806,12.4235766 C111.979306,12.1652432 112.162722,11.9508266 112.390056,11.7803266 C112.617389,11.6098266 112.870556,11.4832432 113.149556,11.4005766 C113.428556,11.3179099 113.702389,11.2765766 113.971056,11.2765766 C114.498056,11.2765766 114.947556,11.3773266 115.319556,11.5788266 C115.691556,11.7803266 115.996389,12.0464099 116.234056,12.3770766 L117.117556,11.6640766 C116.848889,11.3024099 116.451056,10.9898266 115.924056,10.7263266 C115.397056,10.4628266 114.761556,10.3310766 114.017556,10.3310766 C113.614556,10.3310766 113.206389,10.3879099 112.793056,10.5015766 C112.379722,10.6152432 112.002556,10.7960766 111.661556,11.0440766 C111.320556,11.2920766 111.044139,11.6072432 110.832306,11.9895766 C110.620472,12.3719099 110.514556,12.8265766 110.514556,13.3535766 C110.514556,13.8495766 110.599806,14.2680766 110.770306,14.6090766 C110.940806,14.9500766 111.165556,15.2368266 111.444556,15.4693266 C111.723556,15.7018266 112.038722,15.8904099 112.390056,16.0350766 C112.741389,16.1797432 113.097889,16.3089099 113.459556,16.4225766 C113.810889,16.5362432 114.146722,16.6499099 114.467056,16.7635766 C114.787389,16.8772432 115.071556,17.0193266 115.319556,17.1898266 C115.567556,17.3603266 115.766472,17.5721599 115.916306,17.8253266 C116.066139,18.0784932 116.141056,18.3962432 116.141056,18.7785766 C116.141056,19.1299099 116.066139,19.4373266 115.916306,19.7008266 C115.766472,19.9643266 115.575306,20.1864932 115.342806,20.3673266 C115.110306,20.5481599 114.849389,20.6824932 114.560056,20.7703266 C114.270722,20.8581599 113.986556,20.9020766 113.707556,20.9020766 C113.128889,20.9020766 112.625139,20.7703266 112.196306,20.5068266 C111.767472,20.2433266 111.434222,19.9152432 111.196556,19.5225766 L110.235556,20.2355766 C110.431889,20.5042432 110.659222,20.7419099 110.917556,20.9485766 C111.175889,21.1552432 111.454889,21.3257432 111.754556,21.4600766 C112.054222,21.5944099 112.369389,21.6951599 112.700056,21.7623266 C113.030722,21.8294932 113.361389,21.8630766 113.692056,21.8630766 Z M127.080611,21.5840766 L127.080611,20.5920766 L121.206111,20.5920766 L121.206111,16.3605766 L126.522611,16.3605766 L126.522611,15.3840766 L121.206111,15.3840766 L121.206111,11.6020766 L126.894611,11.6020766 L126.894611,10.6100766 L120.090111,10.6100766 L120.090111,21.5840766 L127.080611,21.5840766 Z M134.827167,21.8630766 C135.323167,21.8630766 135.780417,21.8088266 136.198917,21.7003266 C136.617417,21.5918266 136.99975,21.4445766 137.345917,21.2585766 C137.692083,21.0725766 137.996917,20.8555766 138.260417,20.6075766 C138.523917,20.3595766 138.748667,20.0960766 138.934667,19.8170766 L138.066667,19.2590766 C137.684333,19.8274099 137.209,20.2407432 136.640667,20.4990766 C136.072333,20.7574099 135.473,20.8865766 134.842667,20.8865766 C134.14,20.8865766 133.507083,20.7574099 132.943917,20.4990766 C132.38075,20.2407432 131.902833,19.8919932 131.510167,19.4528266 C131.1175,19.0136599 130.81525,18.5047432 130.603417,17.9260766 C130.391583,17.3474099 130.285667,16.7377432 130.285667,16.0970766 C130.285667,15.4564099 130.389,14.8467432 130.595667,14.2680766 C130.802333,13.6894099 131.102,13.1804932 131.494667,12.7413266 C131.887333,12.3021599 132.36525,11.9534099 132.928417,11.6950766 C133.491583,11.4367432 134.129667,11.3075766 134.842667,11.3075766 C135.194,11.3075766 135.522083,11.3489099 135.826917,11.4315766 C136.13175,11.5142432 136.413333,11.6227432 136.671667,11.7570766 C136.93,11.8914099 137.15475,12.0464099 137.345917,12.2220766 C137.537083,12.3977432 137.6895,12.5734099 137.803167,12.7490766 L138.733167,12.0670766 C138.547167,11.7984099 138.314667,11.5581599 138.035667,11.3463266 C137.756667,11.1344932 137.446667,10.9536599 137.105667,10.8038266 C136.764667,10.6539932 136.400417,10.5377432 136.012917,10.4550766 C135.625417,10.3724099 135.230167,10.3310766 134.827167,10.3310766 C134.010833,10.3310766 133.253917,10.4757432 132.556417,10.7650766 C131.858917,11.0544099 131.254417,11.4548266 130.742917,11.9663266 C130.231417,12.4778266 129.831,13.0849099 129.541667,13.7875766 C129.252333,14.4902432 129.107667,15.2600766 129.107667,16.0970766 C129.107667,16.9340766 129.24975,17.7039099 129.533917,18.4065766 C129.818083,19.1092432 130.213333,19.7163266 130.719667,20.2278266 C131.226,20.7393266 131.8305,21.1397432 132.533167,21.4290766 C133.235833,21.7184099 134.0005,21.8630766 134.827167,21.8630766 Z M145.332722,21.8630766 C146.149056,21.8630766 146.823306,21.7209932 147.355472,21.4368266 C147.887639,21.1526599 148.308722,20.7935766 148.618722,20.3595766 C148.928722,19.9255766 149.143139,19.4528266 149.261972,18.9413266 C149.380806,18.4298266 149.440222,17.9467432 149.440222,17.4920766 L149.440222,10.6100766 L148.324222,10.6100766 L148.324222,17.3680766 C148.324222,17.8124099 148.272556,18.2438266 148.169222,18.6623266 C148.065889,19.0808266 147.897972,19.4528266 147.665472,19.7783266 C147.432972,20.1038266 147.125556,20.3673266 146.743222,20.5688266 C146.360889,20.7703266 145.890722,20.8710766 145.332722,20.8710766 C144.774722,20.8710766 144.304556,20.7703266 143.922222,20.5688266 C143.539889,20.3673266 143.232472,20.1038266 142.999972,19.7783266 C142.767472,19.4528266 142.599556,19.0808266 142.496222,18.6623266 C142.392889,18.2438266 142.341222,17.8124099 142.341222,17.3680766 L142.341222,10.6100766 L141.225222,10.6100766 L141.225222,17.4920766 C141.225222,17.9467432 141.284639,18.4298266 141.403472,18.9413266 C141.522306,19.4528266 141.736722,19.9255766 142.046722,20.3595766 C142.356722,20.7935766 142.775222,21.1526599 143.302222,21.4368266 C143.829222,21.7209932 144.506056,21.8630766 145.332722,21.8630766 Z M153.838778,21.5840766 L153.838778,16.4535766 L155.698778,16.4535766 L158.736778,21.5840766 L160.100778,21.5840766 L156.892278,16.3605766 C157.295278,16.3192432 157.667278,16.2262432 158.008278,16.0815766 C158.349278,15.9369099 158.643778,15.7431599 158.891778,15.5003266 C159.139778,15.2574932 159.336111,14.9707432 159.480778,14.6400766 C159.625444,14.3094099 159.697778,13.9425766 159.697778,13.5395766 C159.697778,13.0022432 159.604778,12.5475766 159.418778,12.1755766 C159.232778,11.8035766 158.971861,11.5013266 158.636028,11.2688266 C158.300194,11.0363266 157.902361,10.8684099 157.442528,10.7650766 C156.982694,10.6617432 156.484111,10.6100766 155.946778,10.6100766 L152.722778,10.6100766 L152.722778,21.5840766 L153.838778,21.5840766 Z M153.838778,15.4925766 L153.838778,11.5710766 L155.822778,11.5710766 C156.236111,11.5710766 156.613278,11.6072432 156.954278,11.6795766 C157.295278,11.7519099 157.584611,11.8655766 157.822278,12.0205766 C158.059944,12.1755766 158.245944,12.3770766 158.380278,12.6250766 C158.514611,12.8730766 158.581778,13.1779099 158.581778,13.5395766 C158.581778,14.1905766 158.338944,14.6788266 157.853278,15.0043266 C157.367611,15.3298266 156.675278,15.4925766 155.776278,15.4925766 L153.838778,15.4925766 Z M169.428333,21.5840766 L169.428333,20.5920766 L163.553833,20.5920766 L163.553833,16.3605766 L168.870333,16.3605766 L168.870333,15.3840766 L163.553833,15.3840766 L163.553833,11.6020766 L169.242333,11.6020766 L169.242333,10.6100766 L162.437833,10.6100766 L162.437833,21.5840766 L169.428333,21.5840766 Z" fill-rule="nonzero"></path>
                    <path d="M20.8153846,-2.48689958e-14 C20.8153846,-2.48689958e-14 20.5361997,1.23702472 19.7306242,2.5351541 C25.0328271,6.75285333 26.4,15.1330156 26.4,19 C26.4,20.103 25.4892,21 24.3692308,21 L23.3538462,21 L23.3538462,26 C23.3538462,27.654 21.9871385,29 20.3076923,29 L18.2769231,29 L18.2769231,32 L16.2461538,32 L16.2461538,27 L20.3076923,27 C20.8681846,27 21.3230769,26.552 21.3230769,26 L21.3230769,19 L24.3692308,19 C24.3692308,18.8673857 24.1677977,8.59664594 18.4522352,4.08565819 C16.9815366,5.40586548 15.4589821,5.49374185 15.2540628,5.49958489 L15.2307691,5.5 C15.2307691,5.5 15.2269974,4.19021355 16.2766934,2.79372282 C15.094835,2.28931339 13.7387637,2 12.1846154,2 C5.76042166,2 2.58643019,6.21257989 2.09786487,10.745744 C2.25753432,10.5377234 2.44082834,10.3281539 2.65116923,10.121 C4.29203077,8.505 6.6,8 6.6,8 C6.6,8 6.08723077,10.272 4.44636923,11.889 C3.63663079,12.6864697 2.79054324,13.0891834 2.14117447,13.2925477 C2.49616854,15.3849367 3.67228667,17.1232202 4.90633846,18.945 C6.48830769,21.281 8.12307692,23.697 8.12307692,27 L8.12307692,32 L6.09230769,32 L6.09230769,27 C6.09230769,24.303 4.69615385,22.239 3.21673846,20.055 C1.63476923,17.719 -1.0658141e-14,15.303 -1.0658141e-14,12 C-1.0658141e-14,4.935 5.01092308,0 12.1846154,0 C14.3845774,0 16.2604012,0.488093486 17.8560903,1.31560596 C19.3027718,0.331116052 20.8153846,-2.48689958e-14 20.8153846,-2.48689958e-14 Z M19.2923077,12 C20.4122769,12 21.3230769,12.897 21.3230769,14 C21.3230769,15.103 20.4122769,16 19.2923077,16 C18.1723385,16 17.2615385,15.103 17.2615385,14 C17.2615385,12.897 18.1723385,12 19.2923077,12 Z M12.6923077,10.5 C12.6923077,10.5 11.1418154,12.195 8.96584615,12.787 C6.78987692,13.379 5.07692308,12.5 5.07692308,12.5 C5.07692308,12.5 6.15221538,10.964 8.32818462,10.372 C10.5041538,9.78 12.6923077,10.5 12.6923077,10.5 Z M13.7076923,4 C13.7076923,4 13.1949231,6.272 11.5540615,7.889 C10.0225908,9.39726667 8.36109653,9.49346222 8.1463705,9.49958489 L8.12307683,9.5 C8.12307683,9.5 8.118,7.737 9.75886154,6.121 C11.3997231,4.505 13.7076923,4 13.7076923,4 Z M15.4358769,6.372 C17.6118462,5.78 19.8,6.5 19.8,6.5 C19.8,6.5 18.2495077,8.195 16.0735385,8.787 C13.8975692,9.379 12.1846154,8.5 12.1846154,8.5 C12.1846154,8.5 13.2599077,6.964 15.4358769,6.372 Z"></path>
                </g>
            </g>
        </g>
    </g>
</svg>