<svg version="1.1" xmlns="http://www.w3.org/2000/svg" width="20" height="20" viewBox="0 0 20 20">
    <path d="M18.103 4.62c0.199-0.206 0.477-0.335 0.786-0.335s0.587 0.128 0.785 0.334l0 0c0.202 0.209 0.326 0.494 0.326 0.809s-0.124 0.599-0.326 0.809l0-0-8.888 9.143c-0.199 0.206-0.477 0.335-0.786 0.335s-0.587-0.128-0.785-0.334l-0-0-8.888-9.143c-0.202-0.209-0.326-0.494-0.326-0.809s0.124-0.599 0.326-0.809l-0 0c0.199-0.206 0.477-0.335 0.786-0.335s0.587 0.128 0.785 0.334l0 0 8.103 8.337 8.103-8.337z" />
</svg>
