<svg xmlns="http://www.w3.org/2000/svg" xmlns:xlink="http://www.w3.org/1999/xlink" width="16" height="16" viewBox="0 0 16 16">
    <path id="a" d="M15.97 6.612l-.005-.016L13.568.574A.824.824 0 0 0 12.782 0H3.068a.823.823 0 0 0-.788.583L.04 6.543l-.007.015-.004.016a.776.776 0 0 0-.022.313 1.608 1.608 0 0 0-.004.101v7.728C.003 15.423.586 16 1.302 16h13.396c.716 0 1.299-.577 1.301-1.284V6.988c0-.027 0-.055-.002-.078a.814.814 0 0 0-.028-.298zM9.65 5.704l-.006.332c-.018.948-.68 1.586-1.647 1.586-.472 0-.878-.15-1.17-.435-.293-.285-.454-.682-.462-1.151l-.006-.332H1.964l1.698-4.082h8.526l1.746 4.082H9.65zm-8.01 1.622h3.36C5.521 8.532 6.624 9.244 8 9.244c.72 0 1.388-.199 1.929-.575.474-.329.843-.79 1.083-1.343h3.342v7.052H1.641V7.326z"/>
</svg>
