<svg version="1.1" xmlns="http://www.w3.org/2000/svg" width="20" height="20" viewBox="0 0 20 20">
    <path d="M16.143 11.067h-15.071c-0.592 0-1.071-0.48-1.071-1.071s0.48-1.071 1.071-1.071v0h15.063l-7.229-7.029c-0.206-0.199-0.335-0.477-0.335-0.786s0.128-0.587 0.334-0.785l0-0c0.209-0.202 0.494-0.326 0.809-0.326s0.599 0.124 0.809 0.326l-0-0 9.143 8.89c0.206 0.199 0.335 0.477 0.335 0.786s-0.128 0.587-0.334 0.785l-0 0-9.143 8.889c-0.209 0.202-0.494 0.326-0.809 0.326s-0.599-0.124-0.809-0.326l0 0c-0.206-0.199-0.335-0.477-0.335-0.786s0.128-0.587 0.334-0.785l0-0 7.237-7.036z" />
</svg>
