<svg version="1.1" xmlns="http://www.w3.org/2000/svg" width="20" height="20" viewBox="0 0 20 20">
    <path d="M12.68 4.577v-2.677c0-0.001-0-0.003-0-0.004 0-0.231 0.096-0.44 0.25-0.588l0-0c0.149-0.154 0.357-0.25 0.588-0.25 0.002 0 0.003 0 0.005 0h-0c0.228 0 0.428 0.085 0.592 0.249l5.636 5.636c0.154 0.149 0.249 0.357 0.249 0.587 0 0.002 0 0.004-0 0.006v-0c0 0.002 0 0.004 0 0.007 0 0.23-0.096 0.438-0.249 0.586l-0 0-5.634 5.636c-0.149 0.154-0.357 0.249-0.587 0.249-0.002 0-0.005-0-0.007-0h0c-0.002 0-0.003 0-0.005 0-0.23 0-0.439-0.095-0.587-0.249l-0-0c-0.154-0.149-0.25-0.357-0.25-0.588 0-0.002 0-0.003 0-0.005v0-2.681h-2.328c-0.715 0-1.357 0.022-1.921 0.065-0.563 0.045-1.122 0.123-1.679 0.235-0.55 0.112-1.029 0.264-1.431 0.457-0.404 0.192-0.78 0.44-1.13 0.745-0.347 0.302-0.629 0.657-0.85 1.073-0.224 0.429-0.404 0.927-0.514 1.45l-0.007 0.038c-0.121 0.561-0.191 1.206-0.191 1.866 0 0.034 0 0.068 0.001 0.102l-0-0.005c0 0.4 0.019 0.849 0.056 1.353 0 0.036 0.009 0.117 0.026 0.24 0.020 0.134 0.029 0.237 0.029 0.311 0 0.004 0 0.009 0 0.014 0 0.134-0.048 0.256-0.127 0.351l0.001-0.001c-0.085 0.098-0.209 0.159-0.347 0.159-0.006 0-0.011-0-0.017-0l0.001 0c-0.167 0-0.309-0.087-0.417-0.24-0.060-0.078-0.113-0.166-0.156-0.26l-0.004-0.009c-0.031-0.052-0.12-0.248-0.206-0.446l-0.059-0.151c-0.939-2.107-1.41-3.779-1.41-5.020 0-1.477 0.197-2.718 0.592-3.717 1.214-3.020 4.477-4.522 9.76-4.522h2.328zM2.124 12.419c0.305-0.573 0.694-1.060 1.157-1.464l0.006-0.005c0.417-0.365 0.89-0.68 1.402-0.93l0.038-0.017c0.504-0.241 1.091-0.436 1.704-0.557l0.048-0.008c0.612-0.124 1.228-0.21 1.846-0.257 0.578-0.045 1.252-0.071 1.932-0.071 0.034 0 0.068 0 0.101 0l-0.005-0h3.707v2.756l4.334-4.333-4.334-4.334v2.758h-3.707c-4.718 0-7.501 1.228-8.476 3.65-0.329 0.831-0.496 1.905-0.496 3.208 0 0.347 0.049 0.748 0.149 1.204 0.146-0.608 0.35-1.143 0.613-1.641l-0.018 0.038z" />
</svg>
