<svg version="1.1" xmlns="http://www.w3.org/2000/svg" width="20" height="20" viewBox="0 0 20 20">
    <path d="M3.727 11.056c0.297 0.304 0.475 0.489 0.541 0.555l2.443 2.438c0.201 0.201 0.326 0.48 0.326 0.787 0 0.615-0.498 1.113-1.113 1.113-0.307 0-0.585-0.125-0.787-0.326l-4.81-4.807c-0.202-0.198-0.328-0.473-0.328-0.778 0-0.018 0-0.037 0.001-0.055l-0 0.003c-0.001-0.015-0.001-0.033-0.001-0.051 0-0.305 0.125-0.58 0.327-0.778l4.809-4.807c0.198-0.185 0.465-0.299 0.758-0.299 0.614 0 1.112 0.498 1.112 1.112 0 0.293-0.114 0.56-0.299 0.759l0.001-0.001-2.907 2.91h15.087c0.614 0 1.112 0.498 1.112 1.112s-0.498 1.112-1.112 1.112v0h-15.161z" />
</svg>
