<svg version="1.1" xmlns="http://www.w3.org/2000/svg" width="20" height="20" viewBox="0 0 20 20">
    <path d="M9.269 8.92c0.13-0.126 0.211-0.303 0.211-0.499s-0.081-0.372-0.211-0.498l-0-0c-0.132-0.128-0.313-0.206-0.511-0.206s-0.379 0.079-0.512 0.206l0-0-3.829 3.733c-0.619 0.593-1.004 1.427-1.004 2.35 0 0.003 0 0.005 0 0.008v-0c0 0.894 0.353 1.72 1.006 2.357 1.34 1.307 3.509 1.307 4.832 0l8.643-8.43c0.9-0.877 1.393-2.047 1.393-3.286s-0.494-2.409-1.393-3.286c-0.873-0.846-2.064-1.368-3.378-1.368s-2.505 0.522-3.379 1.369l0.001-0.001-8.623 8.41c-1.11 1.068-1.8 2.567-1.8 4.226 0 0.003 0 0.007 0 0.010v-0.001c0 1.6 0.634 3.114 1.8 4.233 1.11 1.084 2.629 1.753 4.305 1.753 0.011 0 0.022-0 0.033-0h-0.002c0.013 0 0.029 0 0.045 0 1.672 0 3.188-0.67 4.294-1.755l-0.001 0.001 3.829-3.734c0.13-0.126 0.211-0.303 0.211-0.499s-0.081-0.372-0.211-0.498l-0-0c-0.132-0.128-0.313-0.207-0.512-0.207s-0.38 0.079-0.512 0.207l0-0-3.827 3.733c-0.851 0.831-2.017 1.343-3.302 1.343-0.004 0-0.009 0-0.013-0h0.001c-0.005 0-0.010 0-0.016 0-1.285 0-2.45-0.512-3.303-1.344l0.001 0.001c-0.848-0.819-1.374-1.965-1.376-3.234v-0c0-1.221 0.494-2.374 1.376-3.234l8.624-8.414c0.598-0.583 1.417-0.943 2.319-0.943 0.010 0 0.020 0 0.030 0l-0.002-0c0.883 0 1.729 0.343 2.346 0.946 0.636 0.619 0.971 1.429 0.971 2.289s-0.354 1.686-0.971 2.287l-8.643 8.43c-0.757 0.74-2.009 0.74-2.786 0-0.357-0.343-0.58-0.825-0.581-1.358v-0c0-0.516 0.211-0.997 0.581-1.359l3.846-3.734z" />
</svg>
