<svg version="1.1" xmlns="http://www.w3.org/2000/svg" width="20" height="20" viewBox="0 0 20 20">
    <path d="M5.556 3.333v-2.222c0-0.614 0.497-1.111 1.111-1.111v0h10c0.614 0 1.111 0.497 1.111 1.111v0 14.444c0 0.614-0.497 1.111-1.111 1.111v0h-2.222v2.222c0 0.614-0.497 1.111-1.111 1.111v0h-10c-0.614 0-1.111-0.497-1.111-1.111v0-14.444c0-0.614 0.497-1.111 1.111-1.111v0h2.222zM6.896 3.333h6.438c0.614 0 1.111 0.497 1.111 1.111v0 10.928h2.033v-14.047h-9.582v2.008zM3.567 4.636v14.041h9.559v-14.041h-9.559z" />
</svg>
