<svg version="1.1" xmlns="http://www.w3.org/2000/svg" width="20" height="20" viewBox="0 0 20 20">
    <path d="M17.116 11.452c0 1.829-0.739 3.548-2.084 4.84-1.292 1.241-3.050 2.005-4.987 2.005-0.016 0-0.033-0-0.049-0l0.002 0c-1.9 0-3.689-0.711-5.031-2.004-1.344-1.294-2.086-3.014-2.086-4.84 0-1.828 0.74-3.548 2.086-4.84 1.294-1.241 3.053-2.006 4.992-2.006 0.015 0 0.029 0 0.044 0l-0.002-0c0.007 0-1.533 1.949-1.533 1.949-0.114 0.141-0.183 0.322-0.183 0.52 0 0.277 0.136 0.523 0.345 0.673l0.002 0.002c0.148 0.11 0.334 0.177 0.535 0.177 0.001 0 0.002 0 0.003 0h-0c0.266 0 0.53-0.116 0.704-0.333l2.787-3.5c0.114-0.141 0.183-0.322 0.183-0.52 0-0.277-0.136-0.523-0.345-0.673l-0.002-0.002-3.693-2.722c-0.149-0.11-0.336-0.176-0.538-0.176-0.283 0-0.536 0.129-0.702 0.332l-0.001 0.002c-0.114 0.141-0.184 0.323-0.184 0.52 0 0.277 0.136 0.523 0.346 0.674l0.002 0.002 1.871 1.38c-1.112 0.046-2.155 0.286-3.114 0.685l0.060-0.022c-1.095 0.451-2.032 1.069-2.827 1.835l0.003-0.003c-0.79 0.755-1.432 1.657-1.884 2.663l-0.022 0.054c-0.442 0.976-0.7 2.116-0.7 3.316 0 0.005 0 0.009 0 0.014v-0.001c0 1.153 0.234 2.274 0.7 3.328 0.448 1.018 1.089 1.933 1.904 2.717 0.792 0.763 1.729 1.382 2.766 1.811l0.059 0.022c1.017 0.426 2.2 0.673 3.44 0.673 0.008 0 0.015 0 0.023-0h-0.001c0.006 0 0.014 0 0.021 0 1.24 0 2.422-0.247 3.5-0.696l-0.060 0.022c1.094-0.447 2.031-1.065 2.825-1.829l-0.003 0.003c0.789-0.755 1.431-1.657 1.883-2.663l0.022-0.054c0.466-1.056 0.7-2.176 0.7-3.329 0.002-0.472-0.397-0.856-0.886-0.856-0.49 0-0.888 0.381-0.888 0.853z" />
</svg>
