<svg version="1.1" xmlns="http://www.w3.org/2000/svg" width="20" height="20" viewBox="0 0 20 20">
    <path d="M1.667 18.089l-0.922 0.922c-0.075 0.072-0.177 0.117-0.289 0.117-0.23 0-0.417-0.187-0.417-0.417 0-0.113 0.045-0.215 0.117-0.29l9.133-9.133c0.033-0.034 0.073-0.062 0.116-0.082l0.002-0.001c-0.672-0.938-1.075-2.109-1.075-3.374 0-3.222 2.612-5.833 5.833-5.833s5.833 2.612 5.833 5.833c0 3.222-2.612 5.833-5.833 5.833-1.673 0-3.181-0.704-4.244-1.832l-0.003-0.003c-0.013 0.018-0.026 0.033-0.040 0.048l-4.289 4.288 1.789 1.788c0.075 0.075 0.122 0.18 0.122 0.295 0 0.23-0.187 0.417-0.417 0.417-0.115 0-0.22-0.047-0.295-0.122l-1.788-1.789-1.078 1.078 3.039 3.038c0.075 0.075 0.122 0.18 0.122 0.295 0 0.23-0.187 0.417-0.417 0.417-0.115 0-0.22-0.047-0.295-0.122l-3.038-3.039-1.078 1.078 1.789 1.788c0.075 0.075 0.122 0.18 0.122 0.295 0 0.23-0.187 0.417-0.417 0.417-0.115 0-0.22-0.047-0.295-0.122l-1.788-1.789zM14.167 10.833c2.761 0 5-2.239 5-5s-2.239-5-5-5v0c-2.761 0-5 2.239-5 5s2.239 5 5 5v0z" />
</svg>
