<svg xmlns="http://www.w3.org/2000/svg" width="18" height="18" viewBox="0 0 18 18">
    <path fill="#000" fill-rule="nonzero" d="M12.719 4.679l.16-.12h.742l-.064.213-1.685 5.598a6.83 6.83 0 0 0-.17.715 3.7 3.7 0 0 0-.07.655c0 .454.126.756.374.927.268.184.599.277.996.277.732 0 1.356-.15 1.875-.45.523-.302.95-.702 1.283-1.2a5.445 5.445 0 0 0 .745-1.72c.162-.648.243-1.32.243-2.015 0-.968-.197-1.86-.59-2.68a6.573 6.573 0 0 0-1.645-2.143 7.69 7.69 0 0 0-2.487-1.422c-.956-.34-1.995-.51-3.116-.51-1.234 0-2.363.224-3.391.671a8.39 8.39 0 0 0-2.662 1.807A8.374 8.374 0 0 0 1.507 5.9a7.769 7.769 0 0 0-.63 3.076c0 1.128.206 2.19.619 3.185a7.934 7.934 0 0 0 1.748 2.615c.752.748 1.655 1.338 2.709 1.771 1.053.433 2.213.65 3.48.65 1.397 0 2.69-.29 3.88-.87 1.196-.581 2.19-1.32 2.985-2.217l.23-.017.371.307.019.237a10.155 10.155 0 0 1-3.275 2.45c-1.278.609-2.682.913-4.21.913-1.408 0-2.693-.236-3.853-.71-1.16-.472-2.153-1.118-2.979-1.936a8.712 8.712 0 0 1-1.92-2.865A9.043 9.043 0 0 1 0 8.976c0-1.25.24-2.423.72-3.515a8.877 8.877 0 0 1 1.982-2.852A9.351 9.351 0 0 1 5.653.698C6.781.232 8 0 9.31 0c1.257 0 2.416.188 3.475.565 1.06.377 1.978.903 2.754 1.578a7.163 7.163 0 0 1 1.814 2.405A7.05 7.05 0 0 1 18 7.56a8.69 8.69 0 0 1-.329 2.432c-.22.759-.539 1.415-.956 1.967-.42.556-.943.993-1.569 1.312-.627.319-1.342.478-2.144.478-.664 0-1.218-.177-1.654-.533-.342-.28-.522-.685-.545-1.206a6.165 6.165 0 0 1-.238.308 3.803 3.803 0 0 1-.764.704 4.453 4.453 0 0 1-.99.516 3.407 3.407 0 0 1-1.211.211c-.52 0-.97-.091-1.349-.276a2.805 2.805 0 0 1-.934-.716 2.8 2.8 0 0 1-.54-1.016 4.051 4.051 0 0 1-.168-1.157c0-.71.119-1.444.355-2.2a7.505 7.505 0 0 1 1.013-2.076A5.746 5.746 0 0 1 7.585 4.75a3.84 3.84 0 0 1 2.121-.617c.798 0 1.436.205 1.906.62.358.315.605.716.74 1.198l.367-1.273zm-.923 2.479a2.87 2.87 0 0 0-.13-.86 2.077 2.077 0 0 0-.378-.712 1.714 1.714 0 0 0-.634-.474c-.258-.116-.573-.175-.948-.175-.66 0-1.247.18-1.764.538-.527.365-.97.826-1.33 1.383a6.919 6.919 0 0 0-.835 1.846 6.852 6.852 0 0 0-.291 1.902c0 .672.182 1.23.545 1.68.354.437.913.658 1.693.658a2.53 2.53 0 0 0 1.724-.655 6.023 6.023 0 0 0 1.29-1.61 8.55 8.55 0 0 0 .79-1.923c.18-.656.268-1.19.268-1.598z"/>
</svg>
