<svg version="1.1" xmlns="http://www.w3.org/2000/svg" width="20" height="20" viewBox="0 0 20 20">
    <path d="M5.714 7.143c0.789 0 1.429-0.64 1.429-1.429s-0.64-1.429-1.429-1.429v0c-0.789 0-1.429 0.64-1.429 1.429s0.64 1.429 1.429 1.429v0zM5.714 8.571c-1.578 0-2.857-1.279-2.857-2.857s1.279-2.857 2.857-2.857v0c1.578 0 2.857 1.279 2.857 2.857s-1.279 2.857-2.857 2.857v0zM11.429 15.714h7.143v-5.714c0-0.789-0.64-1.429-1.429-1.429v0h-5.714c-0.789 0-1.429 0.64-1.429 1.429v0 0.383c0.86 0.503 1.429 1.422 1.429 2.474v0 2.857zM10 12.857c0-0.789-0.64-1.429-1.429-1.429v0h-5.714c-0.789 0-1.429 0.64-1.429 1.429v0 5.714h8.571v-5.714zM11.429 17.143v2.857h-11.429v-7.143c0-1.578 1.279-2.857 2.857-2.857v0h5.714c0-1.578 1.279-2.857 2.857-2.857v0h5.714c1.578 0 2.857 1.279 2.857 2.857v0 7.143h-8.571zM14.286 4.286c0.789 0 1.429-0.64 1.429-1.429s-0.64-1.429-1.429-1.429v0c-0.789 0-1.429 0.64-1.429 1.429s0.64 1.429 1.429 1.429v0zM14.286 5.714c-1.578 0-2.857-1.279-2.857-2.857s1.279-2.857 2.857-2.857v0c1.578 0 2.857 1.279 2.857 2.857s-1.279 2.857-2.857 2.857v0z" />
</svg>
