<svg xmlns="http://www.w3.org/2000/svg" width="18" height="18" viewBox="0 0 18 18">
    <path fill="#000" fill-rule="evenodd" d="M8.973 11.455A2.458 2.458 0 0 1 6.51 9a2.458 2.458 0 0 1 2.462-2.455A2.458 2.458 0 0 1 11.435 9a2.458 2.458 0 0 1-2.462 2.455m3.337-6.546a.819.819 0 0 0-.82.818v.021a4.072 4.072 0 0 0-2.463-.839A4.102 4.102 0 0 0 4.924 9c0 2.256 1.84 4.09 4.103 4.09 1.223 0 2.31-.546 3.063-1.395a3.306 3.306 0 0 0 2.682 1.396C16.842 13.11 18 11.215 18 9.055 18 3.454 13.41 0 9.027 0 4.05 0 0 4.037 0 9s4.05 9 9.027 9a8.957 8.957 0 0 0 5.49-1.855c.857-.656-.134-1.957-1-1.298a7.321 7.321 0 0 1-4.49 1.517c-4.073 0-7.386-3.303-7.386-7.364 0-4.06 3.313-7.364 7.386-7.364 3.333 0 7.317 2.784 7.332 7.419.004 1.461-.682 2.4-1.587 2.4a1.641 1.641 0 0 1-1.641-1.637v-4.09a.819.819 0 0 0-.821-.819"/>
</svg>
