<svg version="1.1" xmlns="http://www.w3.org/2000/svg" width="20" height="20" viewBox="0 0 20 20">
    <path d="M19.756 18.58l-4.809-4.809c1.187-1.442 1.907-3.307 1.907-5.34 0-4.654-3.772-8.428-8.425-8.431h-0c-0.029-0-0.063-0.001-0.097-0.001-4.655 0-8.429 3.774-8.429 8.429s3.774 8.429 8.429 8.429c0.034 0 0.068-0 0.102-0.001l-0.005 0c0.005 0 0.012 0 0.018 0 2.027 0 3.886-0.719 5.336-1.917l-0.014 0.011 4.808 4.804c0.149 0.139 0.349 0.225 0.569 0.225 0.46 0 0.833-0.373 0.833-0.833 0-0.219-0.085-0.419-0.223-0.568l0 0.001zM8.429 15.18c-3.728-0.003-6.751-3.023-6.756-6.751v-0c0-3.722 3.029-6.756 6.756-6.756 3.728 0.006 6.749 3.027 6.756 6.755v0.001c0 3.722-3.033 6.751-6.756 6.751z" />
</svg>
