<svg version="1.1" xmlns="http://www.w3.org/2000/svg" width="20" height="20" viewBox="0 0 20 20">
    <path d="M3.333 3.333c-1.381 0-2.5 1.119-2.5 2.5v0 8.333c0 1.381 1.119 2.5 2.5 2.5v0h13.333c1.381 0 2.5-1.119 2.5-2.5v0-8.333c0-1.381-1.119-2.5-2.5-2.5v0h-13.333zM3.333 2.5h13.333c1.841 0 3.333 1.492 3.333 3.333v0 8.333c0 1.841-1.492 3.333-3.333 3.333v0h-13.333c-1.841 0-3.333-1.492-3.333-3.333v0-8.333c0-1.841 1.492-3.333 3.333-3.333v0zM3.75 5.833h10.833c0.23 0 0.417 0.187 0.417 0.417s-0.187 0.417-0.417 0.417v0h-10.833c-0.23 0-0.417-0.187-0.417-0.417s0.187-0.417 0.417-0.417v0zM12.777 13.123c-0.174-0.297-0.277-0.655-0.277-1.036 0-0.001 0-0.003 0-0.004v0c0-0.378 0.101-0.733 0.277-1.040-0.195-0.132-0.435-0.21-0.694-0.21-0.69 0-1.25 0.56-1.25 1.25s0.56 1.25 1.25 1.25c0.259 0 0.499-0.079 0.699-0.213l-0.004 0.003zM13.333 10.417c0.344-0.26 0.779-0.417 1.25-0.417 1.151 0 2.083 0.933 2.083 2.083s-0.933 2.083-2.083 2.083c-0.471 0-0.906-0.157-1.255-0.42l0.005 0.004c-0.344 0.26-0.779 0.417-1.25 0.417-1.151 0-2.083-0.933-2.083-2.083s0.933-2.083 2.083-2.083c0.471 0 0.906 0.157 1.255 0.42l-0.005-0.004zM14.583 13.333c0.69 0 1.25-0.56 1.25-1.25s-0.56-1.25-1.25-1.25v0c-0.69 0-1.25 0.56-1.25 1.25s0.56 1.25 1.25 1.25v0z" />
</svg>
