<svg version="1.1" xmlns="http://www.w3.org/2000/svg" width="20" height="20" viewBox="0 0 20 20">
    <path d="M0.196 10.57c-0.122-0.155-0.196-0.354-0.196-0.569s0.074-0.414 0.197-0.572l-0.002 0.002c2.578-3.314 5.873-4.987 9.825-4.987 3.923 0 7.204 1.675 9.782 4.986 0.044 0.054 0.082 0.115 0.112 0.181l0.002 0.005c0.052 0.112 0.083 0.244 0.083 0.382 0 0.216-0.074 0.415-0.198 0.573l0.001-0.002c-2.579 3.311-5.86 4.986-9.783 4.986-3.951 0-7.247-1.675-9.822-4.986zM18.078 10c-2.187-2.545-4.856-3.801-8.059-3.801-3.23 0-5.914 1.257-8.1 3.801 2.187 2.545 4.87 3.801 8.101 3.801 3.202 0 5.872-1.256 8.059-3.801zM9.999 13.056c-1.688 0-3.056-1.368-3.056-3.056s1.368-3.056 3.056-3.056v0c1.688 0 3.056 1.368 3.056 3.056s-1.368 3.056-3.056 3.056v0zM9.999 11.389c0.767 0 1.389-0.622 1.389-1.389s-0.622-1.389-1.389-1.389v0c-0.767 0-1.389 0.622-1.389 1.389s0.622 1.389 1.389 1.389v0z" />
</svg>
