<svg version="1.1" xmlns="http://www.w3.org/2000/svg" width="20" height="20" viewBox="0 0 20 20">
    <path d="M15 9.167h-10.833c-0.92 0-1.667 0.746-1.667 1.667v0 6.667c0 0.92 0.746 1.667 1.667 1.667v0h11.667c0.92 0 1.667-0.746 1.667-1.667v0-6.667c0-0.92-0.746-1.667-1.667-1.667v0h-0.833zM5 8.333v-3.75c0-2.531 2.052-4.583 4.583-4.583v0h0.833c2.531 0 4.583 2.052 4.583 4.583v0 3.75h0.833c1.381 0 2.5 1.119 2.5 2.5v0 6.667c0 1.381-1.119 2.5-2.5 2.5v0h-11.667c-1.381 0-2.5-1.119-2.5-2.5v0-6.667c0-1.381 1.119-2.5 2.5-2.5v0h0.833zM5.833 8.333h8.333v-3.75c0-2.071-1.679-3.75-3.75-3.75v0h-0.833c-2.071 0-3.75 1.679-3.75 3.75v0 3.75zM10 11.667c-0.46 0-0.833 0.373-0.833 0.833v0 3.333c0 0.46 0.373 0.833 0.833 0.833s0.833-0.373 0.833-0.833v0-3.333c0-0.46-0.373-0.833-0.833-0.833v0zM10 10.833c0.92 0 1.667 0.746 1.667 1.667v0 3.333c0 0.92-0.746 1.667-1.667 1.667s-1.667-0.746-1.667-1.667v0-3.333c0-0.92 0.746-1.667 1.667-1.667v0z" />
</svg>
