<svg xmlns="http://www.w3.org/2000/svg" width="20" height="20" viewBox="0 0 20 20">
    <g fill="#000" fill-rule="nonzero">
        <path d="M10.286 20v-9.714H20V20h-9.714zM0 9.714V0h9.714v9.714H0zm10.286 0V0H20v9.714h-9.714zM0 20v-9.714h9.714V20H0zm14.857-2.559h.854v-4.87h-.854v4.87zM5.18 7.156h.854V6.053h.65v-.752h-.65V2.286H4.858l-2 3.081v.686h2.321v1.103zM15.814 4.65l1.709-2.365h-1.03l-1.248 1.788-1.256-1.788h-1.022l1.715 2.373-1.825 2.497h1.022l1.366-1.906 1.365 1.906h1.022L15.814 4.65zm-8.577 7.92h-1.03l-1.248 1.79-1.256-1.79H2.681l1.716 2.373-1.826 2.497h1.023l1.365-1.905 1.365 1.905h1.022l-1.818-2.504 1.709-2.366z"/>
        <path d="M3.697 5.301l1.482-2.249v2.25z"/>
    </g>
</svg>
