<svg xmlns="http://www.w3.org/2000/svg" width="88" height="16" viewBox="0 0 88 16">
    <g fill="#3D70FF" fill-rule="evenodd">
        <path d="M59.039 8.923a4.718 4.718 0 0 0-.464-.564l-.001-.001-.01-.01c-.515-.498-1.402-1.019-1.551-1.087-.466-.214-1.348-.523-1.72-.609-1.386-.318-2.103-.867-2.103-.867-.392-.282-.638-.686-.638-1.136 0-.85.878-1.542 1.957-1.542 1.079 0 2.19.692 2.19 1.542h3.354c0-2.554-2.61-4.625-5.544-4.625-2.934 0-5.312 2.07-5.312 4.625 0 1.558.888 2.932 2.245 3.77-.007.01.267.166.415.227.61.252 1.235.494 1.863.722.41.14.81.288 1.19.441a7.068 7.068 0 0 1 .995.49c.141.084.259.199.346.331.137.21.215.448.215.7 0 .85-.878 1.542-1.957 1.542-1.045 0-2.133-.648-2.187-1.46a49.043 49.043 0 0 1-.003-.513h-3.355v.497c.041 2.524 2.637 4.56 5.545 4.56 2.933 0 5.311-2.072 5.311-4.626 0-.77-.219-1.495-.602-2.133l-.179-.274M12.008 10.47a4.788 4.788 0 1 1 0-4.708h3.307A7.846 7.846 0 0 0 10.889.897 7.791 7.791 0 0 0 7.838.28a7.808 7.808 0 0 0-5.542 2.296 7.807 7.807 0 0 0-1.679 2.49A7.79 7.79 0 0 0 0 8.117a7.808 7.808 0 0 0 2.296 5.542 7.808 7.808 0 0 0 5.542 2.295 7.809 7.809 0 0 0 5.542-2.296 7.809 7.809 0 0 0 1.935-3.187h-3.307zM28.221 15.393h3.05V.948h-3.05zM77.708 15.446h3.05V1.001h-3.05zM84.396 3.516s-2.782.16-3.638 3.584V2.237S81.935.467 84.396.573v2.943zM40.125 3.302c2.009 0 3.703 1.081 4.413 2.835.023.055.16.589.16.856H35.63s-.002-.044-.001-.086c.004-.361.182-.878.35-1.198.8-1.526 2.303-2.407 4.146-2.407m7.22 1.736a7.808 7.808 0 0 0-1.678-2.49A7.808 7.808 0 0 0 40.125.252a7.808 7.808 0 0 0-5.542 2.296 7.808 7.808 0 0 0-2.296 5.542 7.807 7.807 0 0 0 2.296 5.542 7.807 7.807 0 0 0 2.49 1.678 7.79 7.79 0 0 0 3.052.618 7.79 7.79 0 0 0 3.051-.618 7.807 7.807 0 0 0 2.49-1.678 7.807 7.807 0 0 0 1.777-2.733h-3.44a4.79 4.79 0 0 1-8.453-1.391H47.827c.028-.107.11-.782.11-.799a7.793 7.793 0 0 0-.593-3.671"/>
        <path d="M28.07 9.287a4.748 4.748 0 0 1-.8 1.668 4.82 4.82 0 0 1-2.19 1.633 4.723 4.723 0 0 1-1.037.252 4.842 4.842 0 0 1-2.146-.213 4.738 4.738 0 0 1-1.33-.7 4.82 4.82 0 0 1-1.59-2.081 4.776 4.776 0 0 1-.332-1.756 4.775 4.775 0 0 1 2.305-4.095 4.762 4.762 0 0 1 3.093-.655 4.763 4.763 0 0 1 2.856 1.446 4.83 4.83 0 0 1 .798 1.124 4.752 4.752 0 0 1 .524 2.18c0 .413-.052.814-.15 1.197m2.484-4.207a7.7 7.7 0 0 0-1.656-2.456A7.701 7.701 0 0 0 23.433.359a7.701 7.701 0 0 0-5.466 2.264 7.702 7.702 0 0 0-2.265 5.467 7.702 7.702 0 0 0 2.264 5.466 7.701 7.701 0 0 0 5.467 2.265 7.701 7.701 0 0 0 5.466-2.264 7.7 7.7 0 0 0 2.264-5.467 7.685 7.685 0 0 0-.608-3.01"/>
        <path d="M28.221 15.393h3.05V.948h-3.05zM87.231 13.627a1.819 1.819 0 1 1-3.638 0 1.819 1.819 0 0 1 3.638 0M72.903 9.287a4.748 4.748 0 0 1-.8 1.668 4.81 4.81 0 0 1-2.414 1.708 4.76 4.76 0 0 1-1.792.201 4.79 4.79 0 0 1-2.114-.68 4.677 4.677 0 0 1-.382-.257 4.811 4.811 0 0 1-1.592-2.081 4.776 4.776 0 0 1-.332-1.756 4.775 4.775 0 0 1 2.306-4.095 4.762 4.762 0 0 1 3.092-.655 4.76 4.76 0 0 1 2.857 1.446 4.82 4.82 0 0 1 1.106 1.88 4.748 4.748 0 0 1 .216 1.424c0 .413-.053.814-.151 1.197m2.484-4.207a7.7 7.7 0 0 0-1.655-2.456A7.7 7.7 0 0 0 71.276.968a7.684 7.684 0 0 0-3.01-.609A7.7 7.7 0 0 0 62.8 2.623a7.7 7.7 0 0 0-1.656 2.457 7.685 7.685 0 0 0-.61 3.01c0 1.042.206 2.055.61 3.01a7.7 7.7 0 0 0 1.655 2.456 7.7 7.7 0 0 0 5.466 2.265 7.685 7.685 0 0 0 3.01-.61 7.7 7.7 0 0 0 2.457-1.655 7.7 7.7 0 0 0 2.264-5.466 7.685 7.685 0 0 0-.609-3.01"/>
        <path d="M73.054 15.393h3.05V.948h-3.05z"/>
    </g>
</svg>
