<svg version="1.1" xmlns="http://www.w3.org/2000/svg" width="20" height="20" viewBox="0 0 20 20">
    <path fill="#fff" d="M10.824 12.191c0.229-0.221 0.366-0.357 0.414-0.406l1.829-1.829c0.151-0.151 0.36-0.245 0.59-0.245 0.461 0 0.834 0.373 0.834 0.834 0 0.23-0.093 0.438-0.244 0.589v0l-3.604 3.601c-0.148 0.152-0.355 0.247-0.584 0.247-0.013 0-0.026-0-0.040-0.001l0.002 0c-0.011 0.001-0.024 0.001-0.038 0.001-0.229 0-0.436-0.094-0.584-0.246l-3.6-3.602c-0.151-0.151-0.244-0.359-0.244-0.589 0-0.46 0.373-0.833 0.833-0.833 0.23 0 0.438 0.093 0.589 0.244l2.179 2.179v-11.303c0-0.46 0.373-0.834 0.834-0.834s0.834 0.373 0.834 0.834v0 11.357zM1.429 12.857v4.286c0 0.789 0.64 1.429 1.429 1.429v0h14.286c0.789 0 1.429-0.64 1.429-1.429v0-4.286h1.429v4.286c0 1.578-1.279 2.857-2.857 2.857v0h-14.286c-1.578 0-2.857-1.279-2.857-2.857v0-4.286h1.429z" />
</svg>
