<svg height="1024pt" preserveAspectRatio="xMidYMid meet" viewBox="0 0 1024 1024" width="1024pt" xmlns="http://www.w3.org/2000/svg"><g transform="matrix(.1 0 0 -.1 0 1024)"><path d="m6565 10057c-27-4-79-22-115-39-61-29-249-215-3131-3097-2902-2901-3068-3070-3097-3131-64-138-61-253 11-399 21-42 90-113 143-147 128-82 286-88 429-17 74 37 6171 6134 6208 6208 55 110 64 225 28 333-28 83-58 128-120 184-96 87-232 127-356 105z"/><path d="m9533 7065c-35-8-86-26-115-42-41-22-748-723-3107-3083-1680-1680-3067-3075-3083-3100-75-118-82-294-18-421 37-71 117-147 199-186 69-33 84-37 171-39 86-2 102 0 163 26 38 16 87 44 110 63s1408 1401 3077 3070c2449 2450 3041 3047 3067 3094 18 31 30 59 28 62-3 2 0 10 6 17 6 8 13 49 16 92 11 164-59 302-200 393-88 57-206 77-314 54z"/></g></svg>