<svg width="1600px" height="100px" viewBox="0 0 1600 100" version="1.1" xmlns="http://www.w3.org/2000/svg" xmlns:xlink="http://www.w3.org/1999/xlink">
    <g id="loader" stroke="none" stroke-width="1" fill="none" fill-rule="evenodd">
        <rect fill="#FFFFFF" x="0" y="0" width="1600" height="100"></rect>
        <path d="M60.80436,28.2102 C69.69276,35.3202 71.98596,49.3854 71.98596,55.8834 C71.98596,57.7374 70.45236,59.2458 68.56956,59.2458 L66.86316,59.2458 L66.86316,67.659 C66.86316,70.4418 64.55916,72.7062 61.73676,72.7062 L58.32036,72.7062 L58.32036,77.757 L54.90036,77.757 L54.90036,69.3438 L61.73676,69.3438 C62.67996,69.3438 63.44316,68.5914 63.44316,67.659 L63.44316,55.8834 L68.56956,55.8834 C68.56956,55.6602 68.23116,38.4558 58.67676,30.8382 C58.66596,30.831 57.75876,30.1794 56.79396,29.6034 C55.87236,29.0562 54.88956,28.5882 54.87876,28.5846 C52.90956,27.753 50.65236,27.2778 48.06756,27.2778 C37.30716,27.2778 31.96476,34.305 31.10796,41.8938 C31.10436,41.9118 30.93156,42.9342 30.94956,43.9854 C30.96396,45.1266 31.17636,46.3038 31.17636,46.311 C31.77756,49.8174 33.75036,52.7334 35.82396,55.7898 C38.48436,59.721 41.23476,63.7854 41.23476,69.3438 L41.23476,77.757 L37.81836,77.757 L37.81836,69.3438 C37.81836,64.8042 35.46756,61.3302 32.97996,57.6582 C30.31956,53.727 27.56916,49.6626 27.56916,44.1042 C27.56916,32.217 35.99676,23.9154 48.06756,23.9154 C51.72876,23.9154 54.84996,24.7146 57.51396,26.079 C57.53196,26.0862 58.48236,26.5902 59.33196,27.141 C60.11316,27.6486 60.80076,28.2066 60.80436,28.2102 M60.02676,44.1042 C61.91316,44.1042 63.44316,45.6126 63.44316,47.4702 C63.44316,49.3242 61.91316,50.8362 60.02676,50.8362 C58.14396,50.8362 56.61036,49.3242 56.61036,47.4702 C56.61036,45.6126 58.14396,44.1042 60.02676,44.1042 M48.92436,41.5806 C48.92436,41.5806 46.31436,44.4354 42.65316,45.429 C38.99196,46.4262 36.10836,44.943 36.10836,44.943 C36.10836,44.943 37.91916,42.3618 41.58036,41.3646 C45.24156,40.371 48.92436,41.5806 48.92436,41.5806 M50.63076,30.6474 C50.63076,30.6474 49.77036,34.467 47.00556,37.1886 C44.24796,39.9066 41.2347598,39.8994001 41.2347598,39.8994001 C41.2347598,39.8994001 41.22756,36.933 43.98876,34.215 C46.74636,31.4934 50.63076,30.6474 50.63076,30.6474 M53.53956,34.6362 C57.20076,33.639 60.87996,34.8522 60.87996,34.8522 C60.87996,34.8522 58.27356,37.7034 54.61236,38.7006 C50.95116,39.6942 48.06756,38.2146 48.06756,38.2146 C48.06756,38.2146 49.87836,35.6334 53.53956,34.6362" id="1" fill="#000000"></path>
        <path d="M138.36592,15.60696 C139.47832,15.14256 140.76712,15.07776 141.99832,15.43776 C144.26992,16.09656 146.25352,17.92896 147.90232,20.88816 C148.56112,22.06536 149.02552,23.18856 149.30992,23.94456 C152.11632,24.08856 154.595609,24.7218044 156.778127,25.7229304 L157.71952,26.18736 L157.71952,26.18736 C158.5268,26.62746 159.303735,27.114135 160.050291,27.647385 L160.79392,28.20336 L160.79392,28.20336 C169.68952,35.30976 171.98632,49.38576 171.98632,55.88016 C171.98632,57.61392 170.650384,59.043488 168.941473,59.2263915 L168.56992,59.24616 L166.86352,59.24616 L166.86352,67.65936 C166.86352,70.2956968 164.795664,72.4667661 162.178194,72.6879968 L161.73712,72.70656 L158.32072,72.70656 L158.32072,77.75736 L154.90072,77.75736 L154.90072,69.34416 L161.73712,69.34416 C162.58276,69.34416 163.288432,68.734716 163.42111,67.9331076 L163.44352,67.65936 L163.44352,55.88016 L168.56992,55.88016 L168.523981,54.8340294 C168.294927,51.0816329 166.958676,38.1850445 159.403138,31.4531162 L158.561787,30.7402933 C158.23192,30.47256 157.63912,30.01656 156.94552,29.60376 L156.351894,29.272416 C155.552752,28.853664 154.78264,28.5432 154.75672,28.53456 C152.81632,27.73536 150.59512,27.27816 148.06792,27.27816 C147.66832,27.27816 147.27592,27.28896 146.89072,27.31056 L146.84032,27.18096 L146.79352,27.22056 C146.71432,26.95776 146.63512,26.72376 146.55232,26.48616 L146.04517,25.28781 L146.04517,25.28781 L145.49392,24.04536 L145.49392,24.04536 C144.58312,22.20576 142.93432,19.41576 141.00832,18.85776 C140.55472,18.72456 140.10472,18.73896 139.74112,18.89016 C139.40272,19.03416 139.08232,19.26456 139.02832,19.99176 C138.91312,21.45336 140.78512,23.71056 141.98752,25.29816 L143.344528,27.0345538 C143.630195,27.41021 143.82982,27.68196 143.81632,27.68496 C140.87152,28.27896 138.46312,29.49216 136.56232,31.11936 C136.40032,31.27776 136.24552,31.43616 136.10152,31.60176 L135.80992,31.11936 C135.48232,30.58296 134.93872,29.70816 134.47072,29.04576 C133.12072,27.20616 131.00752,25.01736 128.99512,25.18296 C128.70352,25.23336 128.04832,25.44576 127.87552,26.40336 C127.728434,27.2179886 128.610342,28.4037661 129.824507,29.7965489 L132.064853,32.30936 L132.064853,32.30936 L132.68872,33.03096 L133.78312,34.28016 L133.284404,35.0908415 C132.247747,36.901923 131.570182,38.9075526 131.234769,40.9756119 L131.09752,41.99496 L131.09752,41.99496 C130.97152,43.39896 130.95052,44.32546 131.076187,45.5223767 L131.18392,46.36176 L131.18392,46.36176 C131.69692,49.26576 133.14492,51.76476 134.805003,54.27751 L136.759924,57.185389 C138.938213,60.464169 140.948755,63.9418614 141.207147,68.3784976 L141.23512,69.34416 L141.23512,77.75736 L137.81872,77.75736 L137.81872,69.34416 C137.81872,65.088285 135.752587,61.7689725 133.444601,58.3450482 L132.042243,56.263331 C129.710835,52.7503524 127.56952,49.0090306 127.56952,44.10456 C127.56952,40.68456 128.26792,37.55976 129.54952,34.84536 L128.659387,33.83736 L128.659387,33.83736 L127.376147,32.4060647 C125.426395,30.1978163 123.93487,28.17906 124.37272,25.76616 C124.91632,22.78536 127.38592,21.76656 128.61712,21.64416 C132.32512,21.28776 135.35992,24.27936 137.14912,26.64096 C137.50192,26.44296 137.86192,26.25576 138.22912,26.07576 C136.71352,24.25416 135.29152,22.12296 135.47512,19.71816 C135.62632,17.78496 136.64872,16.32696 138.36592,15.60696 Z M160.0282,44.10276 C161.911,44.10276 163.4446,45.61116 163.4446,47.46876 C163.4446,49.32636 161.911,50.83836 160.0282,50.83836 C158.1418,50.83836 156.6118,49.32636 156.6118,47.46876 C156.6118,45.61116 158.1418,44.10276 160.0282,44.10276 Z" id="2" fill="#000000"></path>
        <path d="M231.97808,49.1388 C231.62168,48.2316 231.34448,47.2956 231.17528,46.3128 C231.17528,46.3092 231.13568,46.0896 231.08888,45.7548 L267.11408,45.7548 C267.40928,46.9392 267.64688,48.0768 267.83408,49.1388 L231.97808,49.1388 Z M226.46288,52.1304 C225.11288,53.502 223.21568,53.9268 223.21568,53.9268 C223.21568,53.9268 223.63688,52.0008 224.98688,50.6292 C226.32968,49.2684 227.79128,49.2612 227.80928,49.2612 C227.80928,49.2612 227.81288,50.7588 226.46288,52.1304 L226.46288,52.1304 Z M226.21808,42.5508 C227.56808,43.9224 227.56448,45.4164 227.56448,45.4164 C227.54648,45.4164 226.08488,45.4128 224.74208,44.0484 C223.39208,42.6768 222.97088,40.7508 222.97088,40.7508 C222.97088,40.7508 224.86808,41.1792 226.21808,42.5508 L226.21808,42.5508 Z M231.10688,41.892 C231.96728,34.3068 237.30608,27.2796 248.07008,27.2796 C250.65128,27.2796 252.90848,27.7548 254.88128,28.5828 C254.89208,28.59 255.87488,29.058 256.79288,29.6016 C257.76128,30.1776 258.66848,30.8292 258.67928,30.84 C262.37288,33.7848 264.69128,38.1696 266.14208,42.45 L231.03488,42.45 C231.07088,42.1188 231.10688,41.9028 231.10688,41.892 L231.10688,41.892 Z M260.80328,28.212 C260.79968,28.2084 260.11208,27.6468 259.33088,27.1428 C258.48128,26.5884 257.53448,26.088 257.51648,26.0808 C254.85248,24.7164 251.72768,23.9136 248.07008,23.9136 C237.56168,23.9136 229.81088,30.2064 227.98208,39.6816 C227.67968,39.426 227.37008,39.1956 227.06408,38.994 C225.72488,38.112 224.18408,37.5828 222.59288,37.374 C220.79648,37.14 219.56528,37.3704 219.56528,37.3704 C219.56528,37.3704 219.25928,39.372 219.73808,41.4564 C219.84968,41.9352 220.46168,44.4156 222.38408,46.3668 C222.80168,46.7952 223.23008,47.1408 223.65128,47.4252 C223.30928,47.6772 222.96728,47.9688 222.62888,48.3108 C220.70648,50.262 220.09448,52.746 219.98288,53.2212 C219.50408,55.3092 219.81008,57.3108 219.81008,57.3108 C219.81008,57.3108 221.04128,57.5376 222.83768,57.3036 C224.42888,57.0948 225.96968,56.5692 227.30888,55.6836 C227.82008,55.3488 228.33488,54.9384 228.82088,54.4524 C229.31408,53.9484 229.69928,53.4336 230.00528,52.9368 C230.89808,54.582 231.94568,56.13 232.97888,57.6564 C235.47008,61.332 237.81728,64.806 237.81728,69.342 L237.81728,77.7552 L241.23368,77.7552 L241.23368,69.342 C241.23368,63.7836 238.48328,59.7192 235.82288,55.7916 C235.06328,54.6684 234.31448,53.5632 233.64488,52.4472 L268.31288,52.4472 C268.54328,54.4956 268.56848,55.8204 268.56848,55.8816 L263.44568,55.8816 L263.44568,67.6608 C263.44568,68.5896 262.67888,69.342 261.73568,69.342 L254.90288,69.342 L254.90288,77.7552 L258.31928,77.7552 L258.31928,72.708 L261.73568,72.708 C264.56168,72.708 266.86208,70.4436 266.86208,67.6608 L266.86208,59.2476 L268.56848,59.2476 C270.45488,59.2476 271.98488,57.7392 271.98488,55.8816 C271.98488,49.3836 269.69168,35.3184 260.80328,28.212 L260.80328,28.212 Z" id="3" fill="#000000"></path>
        <path d="M348.06756,23.9154 C351.395924,23.9154 354.278006,24.5758959 356.776017,25.7210799 L357.51396,26.079 C357.52996,26.0854 358.282671,26.4843333 359.046444,26.9597506 L359.33196,27.141 C360.11316,27.6486 360.80076,28.2066 360.80436,28.2102 C369.69276,35.3202 371.98596,49.3854 371.98596,55.8834 C371.98596,57.6138 370.650024,59.043144 368.941113,59.2260325 L368.56956,59.2458 L366.86316,59.2458 L366.86316,67.659 C366.86316,70.2953368 364.795304,72.4664061 362.177834,72.6876368 L361.73676,72.7062 L358.32036,72.7062 L358.32036,77.757 L354.90036,77.757 L354.90036,69.3438 L361.73676,69.3438 C362.58564,69.3438 363.28872,68.734356 363.420847,67.9327476 L363.44316,67.659 L363.44316,55.8834 L368.56956,55.8834 L368.507208,54.5809304 C368.232053,50.4997549 366.774271,37.8587124 359.239036,31.3065476 L358.67676,30.8382 C358.66596,30.831 357.75876,30.1794 356.79396,29.6034 L355.890227,29.0968667 C355.32516,28.7958 354.88596,28.587 354.87876,28.5846 C352.90956,27.753 350.65236,27.2778 348.06756,27.2778 C337.590328,27.2778 332.249691,33.9400139 331.184938,41.2959688 L331.034498,42.4273506 C330.988449,42.8262889 330.93956,43.4014 330.94956,43.9854 C330.96396,45.1266 331.17636,46.3038 331.17636,46.311 C331.72746,49.5252 333.431085,52.2433 335.308395,55.0282021 L336.762037,57.185029 C338.938018,60.463809 340.948406,63.9415014 341.206787,68.3781376 L341.23476,69.3438 L341.23476,77.757 L337.81836,77.757 L337.81836,69.3438 C337.81836,65.087925 335.752227,61.7686125 333.444241,58.3446882 L332.041883,56.262971 C329.710475,52.7499924 327.56916,49.0086706 327.56916,44.1042 C327.56916,32.217 335.99676,23.9154 348.06756,23.9154 Z M358.09932,40.75548 C361.78932,40.75548 364.79172,43.75788 364.79172,47.44788 C364.79172,51.13428 361.78932,54.13668 358.09932,54.13668 C354.40932,54.13668 351.41052,51.13428 351.41052,47.44788 C351.41052,43.75788 354.40932,40.75548 358.09932,40.75548 Z M358.09932,44.06388 C356.23092,44.06388 354.71532,45.57588 354.71532,47.44788 C354.71532,49.31628 356.23092,50.82828 358.09932,50.82828 C359.96772,50.82828 361.48332,49.31628 361.48332,47.44788 C361.48332,45.57588 359.96772,44.06388 358.09932,44.06388 Z" id="5" fill="#000000"></path>
        <path d="M448.06828,23.91504 C451.393371,23.91504 454.278131,24.5755359 456.776656,25.7207199 L457.51468,26.07864 C457.53268,26.08584 458.48308,26.58984 459.33268,27.14064 L459.831268,27.4798696 C460.38228,27.8688622 460.79948,28.20704 460.80508,28.20984 C463.570535,30.4222036 465.69632,33.306964 467.314967,36.4286589 L467.78548,37.37184 L476.86828,37.37184 L476.86828,40.75224 L469.20388,40.75224 C471.29548,46.47624 471.98668,52.31904 471.98668,55.88304 C471.98668,57.61344 470.650744,59.042784 468.941833,59.2256725 L468.57028,59.24544 L466.86028,59.24544 L466.86028,67.65864 C466.86028,70.2983874 464.795655,72.4664051 462.178525,72.6873052 L461.73748,72.70584 L458.31748,72.70584 L458.31748,77.75664 L454.90108,77.75664 L454.90108,69.34344 L461.73748,69.34344 C462.58312,69.34344 463.288792,68.733996 463.42147,67.9323876 L463.44388,67.65864 L463.44388,55.88304 L468.57028,55.88304 L468.547825,55.259621 C468.454746,53.3550445 467.992269,47.395015 465.79337,41.4636098 L465.52108,40.75224 L431.27428,40.75224 L431.18203,41.32284 L431.18203,41.32284 L431.034902,42.4269906 C430.988458,42.8259289 430.93868,43.40104 430.94668,43.98504 L430.977179,44.664432 C431.024181,45.328848 431.111099,45.919392 431.151621,46.175568 L431.17348,46.31064 C431.67748,49.23264 433.13148,51.74714 434.800063,54.2708067 L436.760284,57.184669 C438.938573,60.463449 440.949115,63.9411414 441.207507,68.3777776 L441.23548,69.34344 L441.23548,77.75664 L437.81908,77.75664 L437.81908,69.34344 C437.81908,65.087565 435.752947,61.7682525 433.444961,58.3443282 L432.042466,56.262611 C429.710398,52.7496324 427.56628,49.0083106 427.56628,44.10384 C427.56628,32.21664 435.99748,23.91504 448.06828,23.91504 Z M460.0282,44.10276 C461.911,44.10276 463.4446,45.61116 463.4446,47.46876 C463.4446,49.32636 461.911,50.83836 460.0282,50.83836 C458.1418,50.83836 456.6118,49.32636 456.6118,47.46876 C456.6118,45.61116 458.1418,44.10276 460.0282,44.10276 Z M448.06828,27.27744 C439.799204,27.27744 434.731757,31.4288179 432.438221,36.7926393 L432.20308,37.37184 L463.95868,37.37184 C462.77148,35.17344 461.27708,33.1201067 459.399628,31.4495091 L458.67748,30.84144 C458.66668,30.83064 457.75948,30.17904 456.79468,29.60304 L456.182552,29.2546153 C455.48428,28.8720178 454.88788,28.58984 454.87948,28.58424 C452.90668,27.75264 450.65308,27.27744 448.06828,27.27744 Z" id="6" fill="#000000"></path>
        <path d="M562.8488,21.98796 C564.939341,21.98796 566.656778,23.5824237 566.851596,25.6188351 L566.87,26.00556 L566.87,35.52756 L573.4076,35.52756 L573.4076,38.90796 L568.4756,38.90796 C571.1396,45.18996 571.9856,51.93276 571.9856,55.88196 C571.9856,57.61572 570.649664,59.045288 568.940753,59.2281915 L568.5692,59.24796 L566.8628,59.24796 L566.8628,67.65756 C566.8628,70.2973074 564.798175,72.4685561 562.177984,72.6897963 L561.7364,72.70836 L558.32,72.70836 L558.32,77.75556 L554.9,77.75556 L554.9,69.34236 L561.7364,69.34236 C562.58528,69.34236 563.291276,68.732916 563.423986,67.9313076 L563.4464,67.65756 L563.4464,55.88196 L568.5692,55.88196 L568.532091,54.9818897 C568.396039,52.5925932 567.777696,45.8565812 565.051954,39.6245303 L564.728,38.90796 L531.6944,38.90796 C531.512,39.56076 531.3632,40.22156 531.250133,40.8882267 L531.03562,42.4259106 C530.9892,42.8248489 530.9392,43.39996 530.9492,43.98396 C530.9672,45.12876 531.176,46.30596 531.176,46.31316 C531.7304,49.52406 533.431275,52.24491 535.308104,55.0302933 L536.761677,57.186062 C538.937658,60.4625339 540.948046,63.9400724 541.206427,68.3766983 L541.2344,69.34236 L541.2344,77.75556 L537.818,77.75556 L537.818,69.34236 C537.818,65.086485 535.755031,61.7703366 533.444475,58.3438414 L532.9796,57.65676 C530.3192,53.72556 527.5688,49.66116 527.5688,44.10276 C527.5688,42.64836 527.69552,41.244648 527.939744,39.9026832 L528.1448,38.90796 L522.7952,38.90796 L522.7952,35.52756 L529.2572,35.52756 L529.2572,26.00556 C529.2572,23.9184071 530.848475,22.2011697 532.887512,22.0063637 L533.2748,21.98796 L562.8488,21.98796 Z M560.0282,44.10276 C561.911,44.10276 563.4446,45.61116 563.4446,47.46876 C563.4446,49.32636 561.911,50.83836 560.0282,50.83836 C558.1418,50.83836 556.6118,49.32636 556.6118,47.46876 C556.6118,45.61116 558.1418,44.10276 560.0282,44.10276 Z M563.4824,32.13996 L532.6412,32.13996 L532.6412,35.52396 L563.4824,35.52396 L563.4824,32.13996 Z M563.4824,25.37556 L532.6412,25.37556 L532.6412,28.75596 L563.4824,28.75596 L563.4824,25.37556 Z" id="8" fill="#000000"></path>
        <path d="M648.06756,23.9154 C651.395924,23.9154 654.278006,24.5758959 656.776017,25.7210799 L657.51396,26.079 C657.52996,26.0854 658.282671,26.4843333 659.046444,26.9597506 L659.33196,27.141 C660.11316,27.6486 660.80076,28.2066 660.80436,28.2102 C669.69276,35.3202 671.98596,49.3854 671.98596,55.8834 C671.98596,57.6138 670.650024,59.043144 668.941113,59.2260325 L668.56956,59.2458 L666.86316,59.2458 L666.86316,67.659 C666.86316,70.2953368 664.795304,72.4664061 662.177834,72.6876368 L661.73676,72.7062 L658.32036,72.7062 L658.32036,77.757 L654.90036,77.757 L654.90036,69.3438 L661.73676,69.3438 C662.58564,69.3438 663.28872,68.734356 663.420847,67.9327476 L663.44316,67.659 L663.44316,55.8834 L668.56956,55.8834 L668.507208,54.5809304 C668.232053,50.4997549 666.774271,37.8587124 659.239036,31.3065476 L658.67676,30.8382 C658.66596,30.831 657.75876,30.1794 656.79396,29.6034 L655.890227,29.0968667 C655.32516,28.7958 654.88596,28.587 654.87876,28.5846 C652.90956,27.753 650.65236,27.2778 648.06756,27.2778 C637.590328,27.2778 632.249691,33.9400139 631.184938,41.2959688 L631.034498,42.4273506 C630.988449,42.8262889 630.93956,43.4014 630.94956,43.9854 C630.96396,45.1266 631.17636,46.3038 631.17636,46.311 C631.72746,49.5252 633.431085,52.2433 635.308395,55.0282021 L636.762037,57.185029 C638.938018,60.463809 640.948406,63.9415014 641.206787,68.3781376 L641.23476,69.3438 L641.23476,77.757 L637.81836,77.757 L637.81836,69.3438 C637.81836,65.087925 635.752227,61.7686125 633.444241,58.3446882 L632.041883,56.262971 C629.710475,52.7499924 627.56916,49.0086706 627.56916,44.1042 C627.56916,32.217 635.99676,23.9154 648.06756,23.9154 Z M639.57696,32.4816 C643.15896,30.1992 647.09736,29.9256 650.38776,31.7328 C653.48376,33.432 655.48536,36.7008 655.48536,40.0596 C655.48536,43.3428 654.08496,45.3336 652.91136,46.428 C651.02496,48.192 648.62016,48.6996 647.14056,48.5988 C644.32896,48.4044 641.12856,46.194 640.72536,42.4752 C640.44096,39.8436 642.31296,37.4532 644.22096,36.5388 C645.90576,35.7324 647.63016,35.97 648.83616,37.176 C649.61736,37.9536 650.02056,38.9076 650.01336,39.9336 C649.99836,41.4876 649.21836,42.5166 648.86711,42.9060167 L648.71736,43.062 L646.08216,40.92 L646.142237,40.8517152 C646.262736,40.711056 646.45512,40.45704 646.56456,40.1892 C646.68336,39.876 646.68336,39.7248 646.48536,39.5232 C646.33416,39.372 646.09296,39.192 645.56376,39.4476 C644.72496,39.8508 643.98696,41.1252 644.09136,42.1116 C644.31816,44.2284 646.22616,45.1428 647.37096,45.2184 C648.21336,45.2796 649.58496,44.9052 650.60376,43.9584 C651.59736,43.0296 652.10136,41.7156 652.10136,40.0596 C652.10136,37.9536 650.75856,35.7936 648.76056,34.6992 C646.55376,33.4896 643.93656,33.7164 641.39496,35.3364 C640.07736,36.1752 639.11976,37.3668 638.55456,38.8716 C638.01096,40.326 637.86696,41.9928 638.14416,43.692 C638.47536,45.7476 639.42216,47.7492 640.80096,49.3332 C642.15136,50.882 643.905671,52.0240444 645.904604,52.6657827 L646.66536,52.8828 L645.84456,56.1624 C642.85296,55.4172 640.22856,53.8224 638.24856,51.5544 C636.43416,49.4736 635.24256,46.9464 634.80336,44.2392 C634.01136,39.3684 635.84016,34.8648 639.57696,32.4816 Z" id="10" fill="#000000"></path>
        <path d="M756.63736,22.37136 L757.149482,23.245152 C757.571958,23.935584 758.254122,24.95984 759.195425,26.0421227 L763.59256,30.89256 L763.59256,30.89256 C770.18416,38.42736 771.98776,50.12736 771.98776,55.88016 C771.98776,57.61392 770.651824,59.043488 768.939986,59.2263915 L768.56776,59.24616 L766.86136,59.24616 L766.86136,67.65936 C766.86136,70.2956968 764.796735,72.4667661 762.176544,72.6879968 L761.73496,72.70656 L758.31856,72.70656 L758.31856,77.75736 L754.90216,77.75736 L754.90216,69.34416 L761.73496,69.34416 C762.58384,69.34416 763.289836,68.734716 763.422546,67.9331076 L763.44496,67.65936 L763.44496,55.88016 L768.56776,55.88016 L768.521711,54.8295051 C768.314225,51.4281611 767.199858,40.5476016 761.388517,33.5200909 L760.296256,32.2765508 C759.52598,31.4286506 758.14261,29.951385 756.78136,28.73616 C756.25336,29.61176 755.484704,31.7229044 754.966713,33.2324847 L754.40896,34.91016 L749.25376,30.98616 C748.58896,32.52456 747.82016,36.42136 747.381493,38.8482933 L747.02536,40.90776 L739.10176,36.52296 L738.64096,42.90936 L734.79256,42.36936 C734.478301,44.6492188 735.309116,47.2415925 735.612132,48.0855489 L735.71776,48.36696 L731.33296,48.98256 L733.573368,51.8282864 C734.876444,53.513515 735.951125,54.9519953 736.20736,55.32936 C738.711266,59.0293129 740.956869,63.2554389 741.212393,68.3739017 L741.23656,69.34416 L741.23656,77.75736 L737.81656,77.75736 L737.81656,69.34416 C737.81656,64.80456 735.87976,60.85176 733.36696,57.19776 C731.55544,54.56832 728.928304,51.480384 726.71681,48.9624576 L725.15536,47.19696 L725.22736,47.19696 C727.99216,46.13136 731.79376,45.67776 731.79376,45.67776 C731.53936,43.52496 731.62416,41.23456 731.70896,39.9468267 L731.79376,38.90976 L735.56296,39.37056 L736.63936,31.29216 L744.63856,35.98656 C745.28152,31.07544 746.901779,27.8090938 747.642469,26.5241281 L748.02256,25.91016 L752.64136,29.52456 C753.86896,26.37096 756.63736,22.37136 756.63736,22.37136 Z M760.0282,44.10276 C761.911,44.10276 763.4446,45.61116 763.4446,47.46876 C763.4446,49.32636 761.911,50.83836 760.0282,50.83836 C758.1418,50.83836 756.6118,49.32636 756.6118,47.46876 C756.6118,45.61116 758.1418,44.10276 760.0282,44.10276 Z M721.32676,38.4144 L726.68356,39.8364 L725.81596,43.1052 L720.45916,41.6904 L721.32676,38.4144 Z M726.52444,26.71584 L732.63724,31.53264 L730.54204,34.18944 L724.42924,29.37264 L726.52444,26.71584 Z M738.93508,19.19904 L742.33708,25.67904 L739.33828,27.25224 L735.93988,20.77224 L738.93508,19.19904 Z M752.26408,16.368 L752.98408,21.6888 L749.63248,22.1424 L748.91248,16.8216 L752.26408,16.368 Z" id="13" fill="#000000"></path>
        <path d="M847.9304,23.98812 L849.4856,23.99172 C854.5112,24.08532 859.1912,26.09772 862.7048,29.67252 C866.072706,33.1048024 868.015161,37.6085643 868.232032,42.451478 L868.2524,43.36332 L868.2524,45.82212 L868.266069,46.534695 L868.266069,46.534695 L868.2524,47.52492 L868.3244,55.21452 L868.3244,67.65972 C868.3244,70.2960568 866.259775,72.4671261 863.639584,72.6883568 L863.198,72.70692 L858.32,72.70692 L858.32,77.75412 L854.9036,77.75412 L854.9036,69.34452 L863.198,69.34452 C864.04688,69.34452 864.74996,68.735076 864.882087,67.9334676 L864.9044,67.65972 L864.9044,64.29012 L863.4824,64.29012 L863.4824,65.90652 L860.0984,65.90652 L860.0984,64.29012 L858.3308,64.29012 L858.3308,65.90652 L854.9468,65.90652 L854.9468,64.29012 L853.3304,64.29012 L853.3304,60.90612 L854.9468,60.90612 L854.9468,59.21412 L858.3308,59.21412 L858.3308,60.90612 L860.0984,60.90612 L860.0984,59.21412 L863.4824,59.21412 L863.4824,60.90612 L864.9044,60.90612 L864.9044,57.44652 L864.8,57.44652 C863.52992,57.44652 862.736512,56.132536 863.239317,55.0324272 L863.3672,54.80052 L864.9044,52.44612 L864.897067,45.8454533 L864.897067,45.8454533 L864.8864,45.50172 L864.8936,45.50172 L864.8684,43.36332 C864.8684,39.06852 863.2412,35.05092 860.2892,32.04492 C857.7836,29.49252 854.5544,27.91572 851.0444,27.49092 L850.450306,27.4344459 C849.825516,27.3857052 848.929862,27.3362237 848.16396,27.3119274 L847.3328,27.29652 C837.3473,27.59752 832.234578,34.1051867 831.187419,41.2781909 L831.007847,42.6860509 C830.9716,43.0566978 830.9412,43.51892 830.9492,43.98612 C830.9672,45.12732 831.176,46.30452 831.176,46.31172 C831.68,49.23372 833.134,51.74572 834.802583,54.2706367 L836.761677,57.185749 C838.937658,60.464529 840.948046,63.9422214 841.206427,68.3788576 L841.2344,69.34452 L841.2344,77.75412 L837.818,77.75412 L837.818,69.34452 C837.818,65.088645 835.755031,61.7693325 833.444475,58.3424419 L832.041523,56.261218 C829.710115,52.7507124 827.5688,49.0093906 827.5688,44.10492 C827.5688,32.27532 835.9532,24.06372 847.9304,23.98812 Z M857.29256,44.1042 C859.60376,44.1042 861.48656,45.9582 861.48656,48.2334 C861.48656,50.5086 859.60376,52.3626 857.29256,52.3626 C854.98136,52.3626 853.09856,50.5086 853.09856,48.2334 C853.09856,45.9582 854.98136,44.1042 857.29256,44.1042 Z" id="12" fill="#000000"></path>
        <path d="M931.40964,14.9874 C932.69484,14.9874 933.75684,15.945 933.92244,17.1834 C935.17164,15.8766 936.92844,15.0666 938.86884,15.0666 C942.64524,15.0666 945.71604,18.1374 945.71604,21.9102 C945.71604,23.3358 945.28044,24.657 944.53524,25.7478 C944.33364,26.1294 944.06004,26.7846 944.33364,27.2202 C944.63892,27.71268 945.388872,27.465576 945.676642,27.3470352 L945.79164,27.2958 C947.44404,26.151 949.41684,25.5246 951.48324,25.5246 C953.66844,25.5246 955.74204,26.2194 957.45924,27.5046 C958.25484,27.2634 959.09004,27.141 959.94684,27.141 C962.24724,27.141 964.41084,28.0374 966.03804,29.6646 C967.66524,31.2882 968.55804,33.4554 968.55804,35.7558 C968.55804,36.6162 968.43564,37.455 968.19444,38.2578 C971.07804,44.7162 971.98524,51.7974 971.98524,55.8834 C971.98524,57.6138 970.649304,59.043144 968.940393,59.2260325 L968.56884,59.2458 L966.86244,59.2458 L966.86244,67.659 C966.86244,70.2953368 964.797815,72.4664061 962.177624,72.6876368 L961.73604,72.7062 L958.31964,72.7062 L958.31964,77.757 L954.90324,77.757 L954.90324,69.3438 L961.73604,69.3438 C962.58492,69.3438 963.290916,68.734356 963.423626,67.9327476 L963.44604,67.659 L963.44604,55.8834 L968.56884,55.8834 L968.535173,55.0445712 C968.426539,53.0787888 967.979769,47.9449312 966.19879,42.6182355 L965.95524,41.9298 L964.48644,38.3514 C964.92564,37.5846 965.17764,36.699 965.17764,35.7558 C965.17764,32.8794 962.85204,30.543 959.97924,30.5286 C958.45284,30.543 956.79324,31.5258 956.79324,31.5258 L956.54124,31.263 C955.32804,29.823 953.51364,28.9086 951.48324,28.9086 C947.991553,28.9086 945.128975,31.619366 944.886655,35.0528979 L944.86644,35.6838 L944.86644,35.6838 L944.87004,35.8314 C944.89524,36.6954 945.02484,37.5234 945.02484,37.5234 C944.56854,37.3695 943.96644,37.274325 943.408384,37.2363562 L942.82524,37.2174 L942.12557,37.2961802 C941.862718,37.3227551 941.681983,37.3377429 941.65524,37.3398 L941.18724,37.4586 L941.18724,37.4586 L941.035876,37.5190544 C940.623276,37.7006521 939.530409,38.3023846 938.79324,39.8346 L938.14164,39.0858 L938.14164,39.0858 C937.05084,37.9338 935.50644,37.2174 933.79284,37.2174 C930.48084,37.2174 927.79524,39.903 927.79524,43.215 C927.79524,46.0014 929.69244,48.3414 932.26284,49.0182 C932.49324,49.8246 932.90004,51.0378 933.53364,52.2546 C933.99924,53.0466 934.50484,53.8274 935.02804,54.6108667 L936.761317,57.185029 C938.937298,60.463809 940.947686,63.9415014 941.206067,68.3781376 L941.23404,69.3438 L941.23404,77.757 L937.81764,77.757 L937.81764,69.3438 C937.81764,65.087925 935.754671,61.7686125 933.444115,58.3446882 L932.97924,57.6582 C931.92228,56.09724 930.851496,54.51324 929.943835,52.823256 L929.29644,51.5346 L929.35764,51.4914 C928.56204,51.063 927.82044,50.5122 927.15804,49.8534 C925.38684,48.0822 924.41124,45.7206 924.41124,43.215 C924.41124,40.7094 925.38684,38.3514 927.15804,36.5802 C928.93284,34.809 931.28724,33.8334 933.79284,33.8334 C935.34804,33.8334 936.84204,34.2078 938.17764,34.9134 C939.19644,34.215 940.32684,33.7398 941.64804,33.7218 C941.79924,32.8902 942.05484,32.0838 942.40764,31.3206 L942.48684,30.9858 L942.48684,30.9858 C942.59124,30.4638 942.63804,29.679 942.40764,29.2938 C941.98524,28.5866 941.309684,28.5336222 940.707136,28.5811481 L940.10004,28.6458 L940.10004,28.6458 C939.70044,28.7214 939.29004,28.7538 938.86884,28.7538 C935.09604,28.7538 932.02524,25.6866 932.02524,21.9102 C932.02524,21.2082 932.13324,20.5314 932.33124,19.8906 C932.04324,20.0058 931.73364,20.0634 931.40964,20.0634 C930.00924,20.0634 928.87164,18.9294 928.87164,17.5254 C928.87164,16.125 930.00924,14.9874 931.40964,14.9874 Z M960.0282,44.10276 L960.399753,44.1225285 C962.108664,44.305432 963.4446,45.735 963.4446,47.46876 C963.4446,49.32636 961.911,50.83836 960.0282,50.83836 C958.1418,50.83836 956.6118,49.32636 956.6118,47.46876 C956.6118,45.735 957.9446,44.305432 959.65602,44.1225285 L960.0282,44.10276 Z M927.10476,22.8336 C929.94516,22.8336 932.25636,25.1448 932.25636,27.9888 C932.25636,30.8292 929.94516,33.1404 927.10476,33.1404 C924.26076,33.1404 921.94956,30.8292 921.94956,27.9888 C921.94956,25.1448 924.26076,22.8336 927.10476,22.8336 Z M927.10476,26.2176 C926.12556,26.2176 925.33356,27.0132 925.33356,27.9888 C925.33356,28.9644 926.12556,29.7564 927.10476,29.7564 C928.08036,29.7564 928.87236,28.9644 928.87236,27.9888 C928.87236,27.0132 928.08036,26.2176 927.10476,26.2176 Z M938.86884,18.4506 C936.96084,18.4506 935.40924,19.9986 935.40924,21.9102 C935.40924,23.8218 936.96084,25.3734 938.86884,25.3734 C940.78404,25.3734 942.33204,23.8218 942.33204,21.9102 C942.33204,19.9986 940.78404,18.4506 938.86884,18.4506 Z M952.79256,17.29716 C954.66456,17.29716 956.17656,18.80916 956.17656,20.68116 C956.17656,22.54956 954.66456,24.06516 952.79256,24.06516 C950.92416,24.06516 949.40856,22.54956 949.40856,20.68116 C949.40856,18.80916 950.92416,17.29716 952.79256,17.29716 Z M946.71756,11.45256 C947.82276,11.45256 948.71556,12.34536 948.71556,13.45056 C948.71556,14.55576 947.82276,15.44856 946.71756,15.44856 C945.61236,15.44856 944.71596,14.55576 944.71596,13.45056 C944.71596,12.34536 945.61236,11.45256 946.71756,11.45256 Z" id="14" fill="#000000"></path>
        <path d="M1048.06936,23.91432 C1051.39445,23.91432 1054.27921,24.5777911 1056.77774,25.7235161 L1057.6541,26.1530756 C1057.94976,26.3114311 1058.66936,26.71152 1059.33016,27.13992 L1059.83065,27.4791496 C1060.38336,27.8681422 1060.80056,28.20632 1060.80616,28.20912 C1069.69096,35.31912 1071.98416,49.38432 1071.98416,55.88232 C1071.98416,57.61272 1070.65136,59.042064 1068.93994,59.2249525 L1068.56776,59.24472 L1066.86136,59.24472 L1066.86136,67.65792 C1066.86136,70.2976674 1064.79674,72.4689161 1062.17654,72.6901563 L1061.73496,72.70872 L1058.31856,72.70872 L1058.31856,77.75592 L1054.90216,77.75592 L1054.90216,69.34272 L1061.73496,69.34272 C1062.58384,69.34272 1063.28984,68.733276 1063.42255,67.9316676 L1063.44496,67.65792 L1063.44496,55.88232 L1068.56776,55.88232 L1068.52316,54.8539888 C1068.32238,51.5264387 1067.24534,40.8760839 1061.63801,33.826963 L1061.17336,33.26352 L1057.19896,35.88072 L1058.44096,37.77072 L1055.52136,39.69312 L1054.27936,37.80312 L1051.26616,39.79032 L1052.51896,41.69112 L1049.59936,43.61712 L1048.34656,41.71272 L1045.56376,43.54512 L1046.82736,45.46032 L1043.90776,47.38632 L1042.64776,45.46752 L1039.63456,47.45472 L1040.90536,49.38432 L1037.98576,51.30312 L1036.71496,49.37712 L1033.20856,51.68832 C1033.78906,52.72782 1034.44651,53.74302 1035.13079,54.764295 L1036.76024,57.183949 C1038.93622,60.462729 1040.94661,63.9404214 1041.20499,68.3770576 L1041.23296,69.34272 L1041.23296,77.75592 L1037.81656,77.75592 L1037.81656,69.34272 C1037.81656,65.086845 1035.75359,61.7706966 1033.446,58.3442014 L1032.04256,56.261891 C1029.70867,52.7489124 1027.56736,49.0075906 1027.56736,44.10312 C1027.56736,32.21952 1035.99856,23.91432 1048.06936,23.91432 Z M1060.0282,44.10276 C1061.911,44.10276 1063.4446,45.61116 1063.4446,47.46876 C1063.4446,49.32636 1061.911,50.83836 1060.0282,50.83836 C1058.1418,50.83836 1056.6118,49.32636 1056.6118,47.46876 C1056.6118,45.61116 1058.1418,44.10276 1060.0282,44.10276 Z M1048.06936,27.28032 C1037.59213,27.28032 1032.25149,33.9425339 1031.18342,41.2951656 L1031.06189,42.2093867 C1031.01176,42.59552 1030.93816,43.28352 1030.94776,43.98432 C1030.96576,45.12912 1031.17456,46.30632 1031.17456,46.31352 C1031.26096,46.81752 1031.37616,47.30872 1031.51589,47.79032 L1031.74336,48.50592 L1034.81056,46.48632 L1033.30216,44.20032 L1036.22176,42.27792 L1037.72656,44.56392 L1040.74336,42.58032 L1039.22416,40.27632 L1042.14376,38.35392 L1043.65936,40.65432 L1046.44216,38.82552 L1044.91576,36.50712 L1047.83536,34.58472 L1049.36176,36.89952 L1052.37496,34.91592 L1050.84136,32.58312 L1053.75736,30.66072 L1055.29456,32.98992 L1058.62096,30.79752 L1057.68025,30.1589419 C1057.40928,29.9820075 1057.10401,29.78862 1056.79216,29.60232 L1056.18194,29.2553472 C1055.48536,28.8734756 1054.88896,28.58912 1054.88056,28.58352 C1052.90776,27.75192 1050.65056,27.28032 1048.06936,27.28032 Z" id="9" fill="#000000"></path>
        <path d="M1142.87168,27.0258 C1147.69653,27.0258 1152.11957,28.738254 1155.57055,31.5899054 L1156.20608,32.1378 L1161.40808,28.6782 L1161.76448,29.031 C1169.85728,36.3534 1171.98488,49.6266 1171.98488,55.8834 C1171.98488,57.6138 1170.64894,59.043144 1168.94003,59.2260325 L1168.56848,59.2458 L1166.86208,59.2458 L1166.86208,67.659 C1166.86208,70.2953368 1164.79746,72.4664061 1162.17726,72.6876368 L1161.73568,72.7062 L1158.31928,72.7062 L1158.31928,77.757 L1154.90288,77.757 L1154.90288,69.3438 L1161.73568,69.3438 C1162.58456,69.3438 1163.29056,68.734356 1163.42327,67.9327476 L1163.44568,67.659 L1163.44568,55.8834 L1168.56848,55.8834 L1168.48139,54.2366736 C1168.18638,50.3314576 1166.91399,40.3467572 1161.52385,33.6867007 L1161.05168,33.1242 L1133.19848,51.675 C1133.78168,52.7145 1134.44183,53.73375 1135.12881,54.7600875 L1136.76096,57.185029 C1138.93694,60.463809 1140.94733,63.9415014 1141.20571,68.3781376 L1141.23368,69.3438 L1141.23368,77.757 L1137.81728,77.757 L1137.81728,69.3438 C1137.81728,65.655375 1136.26776,62.6704125 1134.35047,59.7111466 L1132.97888,57.6582 C1132.37888,56.7726 1131.77408,55.8774 1131.19648,54.9598 L1130.35448,53.565 L1128.05768,55.0878 L1125.48008,56.787 C1123.84568,53.8926 1122.90968,50.5482 1122.90968,46.9842 C1122.90968,35.961 1131.84848,27.0258 1142.87168,27.0258 Z M1142.87168,30.4098 C1138.44368,30.4098 1134.28208,32.1342 1131.15008,35.2662 C1128.01808,38.3946 1126.29368,42.5562 1126.29368,46.9842 C1126.29368,48.2514 1126.43653,49.497864 1126.71301,50.7033168 L1126.94528,51.5994 L1153.27928,34.0854 C1150.34168,31.7058 1146.70568,30.4098 1142.87168,30.4098 Z M1160.0282,44.10276 C1161.911,44.10276 1163.4446,45.61116 1163.4446,47.46876 C1163.4446,49.32636 1161.911,50.83836 1160.0282,50.83836 C1158.1418,50.83836 1156.6118,49.32636 1156.6118,47.46876 C1156.6118,45.61116 1158.1418,44.10276 1160.0282,44.10276 Z" id="16" fill="#000000"></path>
        <path d="M1247.29536,13.54092 C1249.33889,13.3058612 1251.20678,13.3423594 1252.42421,13.4159349 L1253.86176,13.54452 L1255.25136,13.72452 L1255.45656,17.38932 L1257.82896,14.42292 L1259.03136,14.67492 L1259.03136,14.67492 C1262.40336,15.45972 1265.36256,16.87652 1267.01189,17.7658533 L1268.39136,18.55932 L1269.85296,19.48812 L1262.80056,30.02892 C1270.04016,37.50612 1271.98776,49.90092 1271.98776,55.88052 C1271.98776,57.61428 1270.65182,59.043848 1268.93999,59.2267515 L1268.56776,59.24652 L1266.86136,59.24652 L1266.86136,67.65972 C1266.86136,70.2960568 1264.79674,72.4671261 1262.17654,72.6883568 L1261.73496,72.70692 L1258.31856,72.70692 L1258.31856,77.75412 L1254.90216,77.75412 L1254.90216,69.34452 L1261.73496,69.34452 C1262.58384,69.34452 1263.28984,68.735076 1263.42255,67.9334676 L1263.44496,67.65972 L1263.44496,55.88052 L1268.56776,55.88052 L1268.52369,54.8624942 C1268.29867,51.1206801 1266.95973,38.01924 1259.24083,31.3072676 L1258.67856,30.83892 C1258.66896,30.82932 1257.95109,30.3162533 1257.11155,29.7978138 L1256.79216,29.60412 C1255.87416,29.05692 1254.89136,28.58892 1254.88056,28.58172 C1252.90776,27.75372 1250.65056,27.27852 1248.06936,27.27852 C1237.59213,27.27852 1232.25149,33.9407339 1231.18674,41.2966888 L1231.03598,42.4265891 C1230.98954,42.8258978 1230.93976,43.40212 1230.94776,43.98612 C1230.96576,45.12732 1231.17456,46.30452 1231.17456,46.31172 C1231.28256,46.93092 1231.43016,47.52852 1231.61736,48.11172 C1232.48136,50.16732 1233.38496,51.91692 1234.09056,53.16612 L1234.94016,54.47832 L1234.94016,54.47832 L1236.76037,57.185749 C1238.93697,60.464529 1240.94984,63.9422214 1241.20855,68.3788576 L1241.23656,69.34452 L1241.23656,77.75412 L1237.81656,77.75412 L1237.81656,69.34452 C1237.81656,65.37237 1236.01948,62.21607 1233.90372,59.026695 L1231.56831,55.55247 L1231.56831,55.55247 L1231.34736,55.19652 C1230.11256,53.26332 1228.99656,51.23292 1228.30176,48.96132 C1227.72936,47.55732 1227.17496,46.02732 1226.70696,44.40732 C1225.48296,40.17372 1225.08336,36.22452 1225.51896,32.67852 C1226.08056,28.12812 1228.00296,24.25092 1231.23936,21.15132 C1232.7978,19.6584 1235.01027,18.215673 1236.41357,17.3619533 L1237.74816,16.57932 L1239.00816,15.88812 L1240.41576,17.68812 L1240.42296,15.49932 L1241.76738,14.9498939 C1242.58183,14.6396051 1244.91174,13.8107082 1247.29536,13.54092 Z M1260.0282,44.10276 C1261.911,44.10276 1263.4446,45.61116 1263.4446,47.46876 C1263.4446,49.32636 1261.911,50.83836 1260.0282,50.83836 C1258.1418,50.83836 1256.6118,49.32636 1256.6118,47.46876 C1256.6118,45.61116 1258.1418,44.10276 1260.0282,44.10276 Z M1252.25616,20.69772 L1252.03296,16.78452 L1250.99809,16.7481631 C1250.04708,16.7322098 1248.89325,16.7608629 1247.67696,16.89972 C1246.4365,17.0416629 1245.17489,17.3793282 1244.23897,17.6746751 L1243.79976,17.81772 L1243.78896,21.64812 L1240.21056,22.91172 L1238.14416,20.27292 L1236.91464,21.0491136 C1235.79953,21.7795567 1234.5241,22.6931486 1233.58296,23.59572 C1230.93336,26.13372 1229.34936,29.31252 1228.88496,33.05292 C1228.73736,34.23372 1228.69776,35.46852 1228.76616,36.76092 C1231.49856,28.93812 1238.68416,23.91252 1248.06936,23.91252 C1251.39445,23.91252 1254.27921,24.5759911 1256.77774,25.7217161 L1257.65452,26.1531817 C1257.951,26.3132311 1258.67216,26.71332 1259.33016,27.14172 L1259.65816,27.3595867 L1259.65816,27.3595867 L1260.23736,27.77532 L1265.06136,20.56452 C1263.85496,19.93412 1262.02847,19.0761644 1259.94093,18.4280657 L1259.14656,18.19572 L1256.47176,21.54012 L1252.25616,20.69772 Z" id="17" fill="#000000"></path>
        <path d="M1348.06756,23.9154 C1351.39592,23.9154 1354.27801,24.5758959 1356.77602,25.7210799 L1357.51396,26.079 C1357.52996,26.0854 1358.28267,26.4843333 1359.04644,26.9597506 L1359.33196,27.141 C1360.11316,27.6486 1360.80076,28.2066 1360.80436,28.2102 C1369.69276,35.3202 1371.98596,49.3854 1371.98596,55.8834 C1371.98596,57.6138 1370.65002,59.043144 1368.94111,59.2260325 L1368.56956,59.2458 L1366.86316,59.2458 L1366.86316,67.659 C1366.86316,70.2953368 1364.7953,72.4664061 1362.17783,72.6876368 L1361.73676,72.7062 L1358.32036,72.7062 L1358.32036,77.757 L1354.90036,77.757 L1354.90036,69.3438 L1361.73676,69.3438 C1362.58564,69.3438 1363.28872,68.734356 1363.42085,67.9327476 L1363.44316,67.659 L1363.44316,55.8834 L1368.56956,55.8834 L1368.50721,54.5809304 C1368.23205,50.4997549 1366.77427,37.8587124 1359.23904,31.3065476 L1358.67676,30.8382 C1358.66596,30.831 1357.75876,30.1794 1356.79396,29.6034 L1355.89023,29.0968667 C1355.32516,28.7958 1354.88596,28.587 1354.87876,28.5846 C1352.90956,27.753 1350.65236,27.2778 1348.06756,27.2778 C1337.59033,27.2778 1332.24969,33.9400139 1331.18494,41.2959688 L1331.0345,42.4273506 C1330.98845,42.8262889 1330.93956,43.4014 1330.94956,43.9854 C1330.96396,45.1266 1331.17636,46.3038 1331.17636,46.311 C1331.72746,49.5252 1333.43108,52.2433 1335.3084,55.0282021 L1336.76204,57.185029 C1338.93802,60.463809 1340.94841,63.9415014 1341.20679,68.3781376 L1341.23476,69.3438 L1341.23476,77.757 L1337.81836,77.757 L1337.81836,69.3438 C1337.81836,65.087925 1335.75223,61.7686125 1333.44424,58.3446882 L1332.04188,56.262971 C1329.71047,52.7499924 1327.56916,49.0086706 1327.56916,44.1042 C1327.56916,32.217 1335.99676,23.9154 1348.06756,23.9154 Z M1359.50584,42.67644 C1361.27344,42.67644 1362.63784,44.11644 1362.63784,45.97404 C1362.63784,48.05304 1360.88811,49.8156338 1358.27559,52.3504565 L1357.74184,52.86804 L1356.94624,53.64924 L1356.15064,52.86804 L1355.09065,51.873547 C1352.7375,49.6394588 1351.25464,47.96799 1351.25464,45.97404 C1351.25464,44.11644 1352.61904,42.67644 1354.38664,42.67644 C1355.35144,42.67644 1356.31984,43.15524 1356.94624,43.93644 C1357.57264,43.15524 1358.54104,42.67644 1359.50584,42.67644 Z" id="19" fill="#000000"></path>
        <path d="M1433.33276,15.9486 C1434.08516,13.8714 1436.37836,12.7986 1438.45556,13.551 C1440.53276,14.3034 1441.60556,16.593 1440.85316,18.6738 C1440.70736,19.0734 1440.50283,19.438575 1440.25477,19.7586937 L1439.99276,20.0634 L1441.85396,24.7146 C1443.78356,24.1926 1445.86796,23.9154 1448.06756,23.9154 C1451.39592,23.9154 1454.27801,24.5758959 1456.77602,25.7210799 L1457.51396,26.079 C1457.53196,26.0862 1458.48236,26.5902 1459.33196,27.141 L1460.06009,27.643 C1460.49556,27.959 1460.80196,28.2078 1460.80436,28.2102 C1469.69276,35.3202 1471.98596,49.3854 1471.98596,55.8834 C1471.98596,57.6138 1470.65002,59.043144 1468.94111,59.2260325 L1468.56956,59.2458 L1466.86316,59.2458 L1466.86316,67.659 C1466.86316,70.2953368 1464.7953,72.4664061 1462.17783,72.6876368 L1461.73676,72.7062 L1458.32036,72.7062 L1458.32036,77.757 L1454.90036,77.757 L1454.90036,69.3438 L1461.73676,69.3438 C1462.58564,69.3438 1463.28872,68.734356 1463.42085,67.9327476 L1463.44316,67.659 L1463.44316,55.8834 L1468.56956,55.8834 L1468.50721,54.5809304 C1468.23205,50.4997549 1466.77427,37.8587124 1459.23904,31.3065476 L1458.67676,30.8382 C1458.66596,30.831 1457.75876,30.1794 1456.79396,29.6034 L1455.89023,29.0968667 C1455.32516,28.7958 1454.88596,28.587 1454.87876,28.5846 C1452.90956,27.753 1450.65236,27.2778 1448.06756,27.2778 C1437.59033,27.2778 1432.24969,33.9400139 1431.18494,41.2959688 L1431.0345,42.4273506 C1430.98845,42.8262889 1430.93956,43.4014 1430.94956,43.9854 C1430.96396,45.1266 1431.17636,46.3038 1431.17636,46.311 C1431.72746,49.5252 1433.43108,52.2433 1435.3084,55.0282021 L1436.76204,57.185029 C1438.93802,60.463809 1440.94841,63.9415014 1441.20679,68.3781376 L1441.23476,69.3438 L1441.23476,77.757 L1437.81836,77.757 L1437.81836,69.3438 C1437.81836,65.087925 1435.75223,61.7686125 1433.44424,58.3446882 L1432.04188,56.262971 C1429.71047,52.7499924 1427.56916,49.0086706 1427.56916,44.1042 C1427.56916,39.6186 1428.77025,35.641032 1430.91485,32.4290661 L1431.38876,31.7526 L1427.53676,27.4398 C1427.18036,27.5442 1426.80236,27.6018 1426.40996,27.6018 C1424.20316,27.6018 1422.41036,25.8126 1422.41036,23.6058 C1422.41036,21.3918 1424.20316,19.6026 1426.40996,19.6026 C1428.62036,19.6026 1430.40956,21.3918 1430.40956,23.6058 C1430.40956,24.0324 1430.34273,24.440775 1430.2182,24.8263687 L1430.07476,25.2042 L1433.65316,29.2074 C1434.86516,28.0764 1436.23716,27.1079 1437.74833,26.3185667 L1438.67156,25.8666 L1436.84276,21.3018 C1436.46836,21.2766 1436.09396,21.2046 1435.72676,21.0714 C1433.65316,20.319 1432.58036,18.0222 1433.33276,15.9486 Z M1460.0282,44.10276 C1461.911,44.10276 1463.4446,45.61116 1463.4446,47.46876 C1463.4446,49.32636 1461.911,50.83836 1460.0282,50.83836 C1458.1418,50.83836 1456.6118,49.32636 1456.6118,47.46876 C1456.6118,45.61116 1458.1418,44.10276 1460.0282,44.10276 Z" id="20" fill="#000000"></path>
        <path d="M1544.1648,16.54332 C1545.504,16.54332 1546.8972,16.64052 1548.33,16.83492 C1558.2212,18.18308 1567.74413,27.7467636 1568.16249,37.7151237 L1568.1768,38.39532 L1568.2164,42.17532 L1568.24385,42.76662 L1568.24385,42.76662 L1568.2524,43.36332 L1568.2524,45.82212 L1568.26607,46.534695 L1568.26607,46.534695 L1568.2524,47.52492 L1568.3244,55.21452 L1568.3244,67.65972 C1568.3244,70.2960568 1566.25978,72.4671261 1563.63958,72.6883568 L1563.198,72.70692 L1558.32,72.70692 L1558.32,77.75412 L1554.9036,77.75412 L1554.9036,69.34452 L1563.198,69.34452 C1564.04688,69.34452 1564.74996,68.735076 1564.88209,67.9334676 L1564.9044,67.65972 L1564.9044,65.44572 L1562.2908,65.44572 L1562.2908,62.06172 L1564.9044,62.06172 L1564.89707,45.8454533 L1564.89707,45.8454533 L1564.8864,45.50172 L1564.8936,45.50172 L1564.7928,38.39532 C1564.7928,36.40812 1564.476,34.36332 1563.5436,32.31132 C1562.6436,30.32052 1561.3008,28.35852 1559.6664,26.63052 C1558.0428,24.91692 1556.1168,23.42652 1554.0972,22.31772 C1552.0344,21.18732 1549.9428,20.46732 1547.8728,20.18652 C1546.6056,20.01372 1545.3564,19.92732 1544.1648,19.92732 C1541.3388,19.92732 1538.8008,20.40972 1536.6228,21.36372 C1534.56,22.26732 1532.8608,23.58492 1531.5756,25.26972 C1530.1068,27.20292 1529.1888,29.60412 1528.8504,32.41572 C1528.51344,35.22156 1528.63429,38.36274 1529.43341,41.7762744 L1529.7252,42.92412 L1530.7152,45.96252 L1531.00882,46.7366817 C1531.74154,48.6016891 1533.11117,51.6427979 1535.30309,55.008456 L1536.76366,57.1837706 C1538.94302,60.4591653 1540.94875,63.941515 1541.2065,68.3787872 L1541.2344,69.34452 L1541.2344,77.75412 L1537.818,77.75412 L1537.818,69.34452 C1537.818,65.088645 1535.75503,61.7693325 1533.44447,58.3424419 L1532.9796,57.65532 C1531.482,55.44492 1529.9592,53.19132 1528.9116,50.65332 L1528.872,50.59932 L1528.872,50.59932 C1528.1016,49.13772 1526.4888,43.90692 1526.4888,43.90692 C1521.7872,26.92932 1530.2508,16.54332 1544.1648,16.54332 Z M1551.60924,42.7542 C1553.77284,42.7542 1556.41884,43.9458 1558.53204,46.437 C1561.69284,50.1702 1562.41284,55.059 1561.10964,56.3802 C1560.69204,56.7978 1559.91084,57.021 1558.91364,57.021 C1556.77884,57.021 1553.66844,56.0094 1551.16644,53.8026 C1547.60964,50.6706 1546.55844,45.897 1548.59244,43.8666 C1549.32324,43.1322 1550.38884,42.7542 1551.60924,42.7542 Z M1551.60924,46.4802 C1551.42564,46.4802 1551.28884,46.6314 1551.29244,46.8078 C1551.30324,47.0922 1551.36444,47.4954 1551.54444,48.0102 C1551.92964,49.101 1552.66764,50.163 1553.62884,51.009 C1554.79884,52.0386 1556.05164,52.6362 1557.08484,52.9602 C1557.38724,53.0558571 1557.67377,52.8235469 1557.67919,52.535316 L1557.65724,52.3878 C1557.25404,51.1206 1556.55564,49.8714 1555.68804,48.8454 C1554.33174,47.2449 1552.83931,46.591225 1551.8624,46.4933938 L1551.60924,46.4802 Z" id="21" fill="#000000"></path>
    </g>
</svg>